<svg id="Layer_1" data-name="Layer 1" xmlns="http://www.w3.org/2000/svg" viewBox="0 0 256.83 68.14"><defs><style>.cls-1{fill:#fff;}</style></defs><path class="cls-1" d="M43.81,42.53a16.69,16.69,0,0,1,1.38-6.89A15.78,15.78,0,0,1,49,30.37,16.61,16.61,0,0,1,54.6,27a20.85,20.85,0,0,1,13.83,0,16.7,16.7,0,0,1,5.64,3.38,15.92,15.92,0,0,1,3.77,5.27,16.69,16.69,0,0,1,1.37,6.89,16.64,16.64,0,0,1-1.37,6.88,16.07,16.07,0,0,1-3.77,5.28,16.68,16.68,0,0,1-5.64,3.37,20.85,20.85,0,0,1-13.83,0A16.58,16.58,0,0,1,49,54.69a15.92,15.92,0,0,1-3.77-5.28A16.64,16.64,0,0,1,43.81,42.53Zm9.84,0a8.26,8.26,0,0,0,2.06,5.83,7.51,7.51,0,0,0,5.8,2.23,7.51,7.51,0,0,0,5.81-2.23,8.26,8.26,0,0,0,2.06-5.83,8.28,8.28,0,0,0-2.06-5.84,7.55,7.55,0,0,0-5.81-2.23,7.54,7.54,0,0,0-5.8,2.23A8.28,8.28,0,0,0,53.65,42.53Z"/><path class="cls-1" d="M115,58.46h-9.44V54.13h-.13A10.72,10.72,0,0,1,104.09,56a8.4,8.4,0,0,1-2,1.64,10.93,10.93,0,0,1-2.68,1.18,11.11,11.11,0,0,1-3.28.46,13.86,13.86,0,0,1-6.07-1.14,8.73,8.73,0,0,1-3.6-3.18,12.63,12.63,0,0,1-1.71-4.79,39.52,39.52,0,0,1-.42-6V26.6h9.83V42.2c0,.92,0,1.87.1,2.85a8.78,8.78,0,0,0,.59,2.72,4.24,4.24,0,0,0,4.42,2.82,6.1,6.1,0,0,0,3.09-.69,4.79,4.79,0,0,0,1.8-1.83,7.64,7.64,0,0,0,.82-2.59,22.56,22.56,0,0,0,.19-3V26.6H115Z"/><path class="cls-1" d="M121.3,26.6h9.44v4.32h.13a8,8,0,0,1,1.31-1.83,9.78,9.78,0,0,1,2-1.64,11.58,11.58,0,0,1,2.69-1.18,11.11,11.11,0,0,1,3.28-.46,13.47,13.47,0,0,1,6,1.15,8.72,8.72,0,0,1,3.58,3.18,12.77,12.77,0,0,1,1.73,4.78,36,36,0,0,1,.46,6V58.46h-9.83V42.85c0-.91,0-1.86-.1-2.85a9.08,9.08,0,0,0-.59-2.72A4.24,4.24,0,0,0,137,34.46a6.08,6.08,0,0,0-3.08.69,4.75,4.75,0,0,0-1.8,1.84,7.36,7.36,0,0,0-.82,2.59,22.37,22.37,0,0,0-.2,3V58.46H121.3Z"/><path class="cls-1" d="M191.71,58.46h-9.05v-4.2h-.13A10.81,10.81,0,0,1,181,56a11.57,11.57,0,0,1-2.23,1.6,12.77,12.77,0,0,1-2.82,1.18,11,11,0,0,1-3.18.46A16.36,16.36,0,0,1,166.34,58a14.24,14.24,0,0,1-5-3.41,15.06,15.06,0,0,1-3.18-5.21,19,19,0,0,1-1.12-6.62,20,20,0,0,1,1-6.39A17.45,17.45,0,0,1,161,31a14,14,0,0,1,4.55-3.77,12.94,12.94,0,0,1,6.1-1.41,17,17,0,0,1,5.73,1A9.18,9.18,0,0,1,181.74,30h.14V8.9h9.83Zm-9.05-15.93a8.28,8.28,0,0,0-2.06-5.84,8.67,8.67,0,0,0-11.61,0,8.28,8.28,0,0,0-2.06,5.84A8.26,8.26,0,0,0,169,48.36a8.67,8.67,0,0,0,11.61,0A8.26,8.26,0,0,0,182.66,42.53Z"/><path class="cls-1" d="M198.26,16.57a5.71,5.71,0,1,1,9.74,4,5.71,5.71,0,0,1-9.74-4Zm.79,10h9.83V58.46h-9.83Z"/><path class="cls-1" d="M215.31,8.9h9.83V39.18L236,26.6h12.07L235.43,41l13,17.51H236L225.27,42.33h-.13V58.46h-9.83Z"/><path class="cls-1" d="M8.41,30.65V11.77H39.55v9.44H18.64v9.44"/><path class="cls-1" d="M8.41,58.46,18.64,30.65H39.55V40.1H25.4L18.64,58.46"/></svg>