<svg width="50" height="50" viewBox="0 0 50 50" fill="none" xmlns="http://www.w3.org/2000/svg">
<g clip-path="url(#clip0)">
<rect x="-0.220703" y="0.00292969" width="50" height="49.9888" rx="4" fill="#A696C7"/>
<path d="M37.6007 16.4277H12.9579C11.4579 16.4277 10.2793 17.606 10.2793 19.1057V30.8888C10.2793 32.3884 11.4579 33.5667 12.9579 33.5667H37.6007C39.1007 33.5667 40.2793 32.3884 40.2793 30.8888V19.1057C40.2793 17.606 39.1007 16.4277 37.6007 16.4277ZM39.2079 30.8888C39.2079 31.7993 38.5114 32.4956 37.6007 32.4956H12.9579C12.0472 32.4956 11.3507 31.7993 11.3507 30.8888V19.1057C11.3507 18.1952 12.0472 17.4989 12.9579 17.4989H37.6007C38.5114 17.4989 39.2079 18.1952 39.2079 19.1057V30.8888Z" fill="white"/>
<path d="M19.9222 24.4614C21.4222 24.4614 22.6008 23.2831 22.6008 21.7834C22.6008 20.2838 21.4222 19.1055 19.9222 19.1055C18.4222 19.1055 17.2437 20.2838 17.2437 21.7834C17.2437 23.2831 18.4222 24.4614 19.9222 24.4614ZM19.9222 20.1767C20.8329 20.1767 21.5294 20.8729 21.5294 21.7834C21.5294 22.6939 20.8329 23.3902 19.9222 23.3902C19.0115 23.3902 18.3151 22.6939 18.3151 21.7834C18.3151 20.8729 19.0115 20.1767 19.9222 20.1767Z" fill="white"/>
<path d="M19.9221 25.5332C16.9757 25.5332 14.5649 27.6756 14.5649 30.3535C14.5649 30.6749 14.7792 30.8891 15.1007 30.8891C15.4221 30.8891 15.6364 30.6749 15.6364 30.3535C15.6364 28.2647 17.5649 26.6044 19.9221 26.6044C22.2792 26.6044 24.2078 28.2647 24.2078 30.3535C24.2078 30.6749 24.4221 30.8891 24.7435 30.8891C25.0649 30.8891 25.2792 30.6749 25.2792 30.3535C25.2792 27.6756 22.8685 25.5332 19.9221 25.5332Z" fill="white"/>
<path d="M35.4578 22.855H27.9578C27.6364 22.855 27.4221 23.0693 27.4221 23.3907C27.4221 23.7121 27.6364 23.9264 27.9578 23.9264H35.4578C35.7793 23.9264 35.9936 23.7121 35.9936 23.3907C35.9936 23.0693 35.7793 22.855 35.4578 22.855Z" fill="white"/>
<path d="M35.4578 26.0684H27.9578C27.6364 26.0684 27.4221 26.2826 27.4221 26.6041C27.4221 26.9255 27.6364 27.1398 27.9578 27.1398H35.4578C35.7793 27.1398 35.9936 26.9255 35.9936 26.6041C35.9936 26.2826 35.7793 26.0684 35.4578 26.0684Z" fill="white"/>
</g>
<defs>
<clipPath id="clip0">
<rect width="50" height="50" fill="white"/>
</clipPath>
</defs>
</svg>
