<svg width="51" height="50" viewBox="0 0 51 50" fill="none" xmlns="http://www.w3.org/2000/svg">
<g clip-path="url(#clip0)">
<rect x="0.416992" y="0.00292969" width="50" height="49.9888" rx="4" fill="#FB3C4C"/>
<path d="M39.4913 26.3584C39.139 26.3584 38.853 26.6443 38.853 26.9966V33.6978C38.853 35.1049 37.7079 36.2498 36.3005 36.2498H13.9588C12.5513 36.2498 11.4062 35.1049 11.4062 33.6978V26.9966C11.4062 26.6443 11.1203 26.3584 10.7679 26.3584C10.4156 26.3584 10.1296 26.6443 10.1296 26.9966V33.6978C10.1296 35.8088 11.8473 37.5261 13.9588 37.5261H36.3005C38.412 37.5261 40.1296 35.8088 40.1296 33.6978V26.9966C40.1296 26.6443 39.8437 26.3584 39.4913 26.3584Z" fill="white"/>
<path d="M36.3005 16.148H31.5126V14.2339C31.5126 13.0022 30.5102 12 29.2783 12H20.981C19.7491 12 18.7467 13.0022 18.7467 14.2339V16.148H13.9588C11.8473 16.148 10.1296 17.8653 10.1296 19.9763V24.7631H10.2174C10.263 24.8422 10.3246 24.9134 10.4047 24.9689C10.5554 25.0732 14.1177 27.4714 22.5764 27.8907V29.2302C22.5764 30.1099 23.2923 30.8256 24.1722 30.8256H26.0871C26.967 30.8256 27.6828 30.1099 27.6828 29.2302V27.8907C36.1419 27.4714 39.7039 25.0729 39.8545 24.9686C39.9346 24.9131 39.9962 24.8419 40.0419 24.7628H40.1296V19.9763C40.1296 17.8653 38.412 16.148 36.3005 16.148ZM20.0233 14.2339C20.0233 13.7061 20.4531 13.2763 20.981 13.2763H29.2779C29.8061 13.2763 30.236 13.7061 30.236 14.2339V16.148H20.0233V14.2339ZM26.4062 29.2302C26.4062 29.406 26.2629 29.5492 26.0871 29.5492H24.1722C23.9963 29.5492 23.853 29.406 23.853 29.2302V25.4012C23.853 25.2254 23.9963 25.0822 24.1722 25.0822H26.0871C26.2629 25.0822 26.4062 25.2254 26.4062 25.4012V29.2302ZM26.0871 23.8059H24.1722C23.2923 23.8059 22.5764 24.5215 22.5764 25.4012V26.6131C15.843 26.2688 12.3618 24.6131 11.4062 24.0822V19.9763C11.4062 18.5692 12.5513 17.4243 13.9588 17.4243H36.3005C37.7079 17.4243 38.853 18.5692 38.853 19.9763V24.0825C37.8975 24.6138 34.4159 26.2691 27.6828 26.6134V25.4012C27.6828 24.5215 26.967 23.8059 26.0871 23.8059Z" fill="white"/>
</g>
<defs>
<clipPath id="clip0">
<rect width="50" height="49.9888" fill="white" transform="translate(0.416992 0.00292969)"/>
</clipPath>
</defs>
</svg>
