<svg width="224" height="160" viewBox="0 0 224 160" fill="none" xmlns="http://www.w3.org/2000/svg">
<path opacity="0.1" d="M112 160C173.529 160 223.407 153.937 223.407 146.458C223.407 138.98 173.529 132.917 112 132.917C50.4714 132.917 0.592651 138.98 0.592651 146.458C0.592651 153.937 50.4714 160 112 160Z" fill="#1894EC"/>
<path d="M201.262 121.585C200.853 122.612 201.524 126.331 201.524 126.331C201.524 126.331 204.571 124.096 204.981 123.069C205.177 122.576 205.17 122.025 204.96 121.538C204.75 121.05 204.356 120.666 203.863 120.469C203.37 120.273 202.819 120.28 202.332 120.489C201.844 120.698 201.459 121.093 201.262 121.585Z" fill="#1894EC"/>
<path d="M195.92 126.047C196.134 127.131 198.719 129.889 198.719 129.889C198.719 129.889 200.062 126.356 199.848 125.271C199.797 125.013 199.695 124.768 199.55 124.549C199.404 124.33 199.217 124.142 198.998 123.996C198.78 123.85 198.535 123.748 198.277 123.696C198.019 123.645 197.754 123.644 197.496 123.695C197.238 123.746 196.993 123.847 196.774 123.993C196.555 124.139 196.367 124.326 196.221 124.545C196.075 124.763 195.973 125.008 195.921 125.266C195.869 125.523 195.869 125.789 195.92 126.047Z" fill="#1894EC"/>
<path d="M192.176 135.82C192.909 136.648 196.532 137.723 196.532 137.723C196.532 137.723 195.907 133.996 195.175 133.168C195.001 132.971 194.79 132.81 194.554 132.695C194.317 132.579 194.061 132.512 193.798 132.495C193.536 132.479 193.273 132.515 193.024 132.601C192.776 132.686 192.546 132.82 192.349 132.994C192.152 133.168 191.992 133.379 191.876 133.616C191.761 133.852 191.693 134.109 191.677 134.371C191.661 134.633 191.697 134.896 191.783 135.145C191.868 135.394 192.002 135.623 192.176 135.82Z" fill="#1894EC"/>
<path d="M191.009 143.852C191.591 144.792 194.98 146.464 194.98 146.464C194.98 146.464 194.995 142.685 194.413 141.745C194.274 141.521 194.093 141.327 193.88 141.173C193.667 141.02 193.425 140.91 193.169 140.849C192.913 140.789 192.648 140.78 192.388 140.822C192.129 140.864 191.88 140.957 191.657 141.096C191.433 141.234 191.239 141.415 191.085 141.629C190.932 141.842 190.822 142.084 190.762 142.34C190.701 142.596 190.692 142.861 190.735 143.12C190.777 143.38 190.87 143.629 191.009 143.852Z" fill="#1894EC"/>
<path d="M202.543 131.645C201.521 132.067 197.794 131.439 197.794 131.439C197.794 131.439 199.995 128.366 201.017 127.944C201.507 127.742 202.058 127.743 202.549 127.946C203.039 128.15 203.428 128.541 203.63 129.031C203.833 129.522 203.832 130.073 203.628 130.563C203.424 131.053 203.034 131.443 202.543 131.645Z" fill="#1894EC"/>
<path d="M201.059 141.021C199.957 141.118 196.589 139.404 196.589 139.404C196.589 139.404 199.608 137.13 200.709 137.033C200.971 137.01 201.235 137.039 201.486 137.118C201.737 137.196 201.97 137.324 202.172 137.493C202.373 137.662 202.54 137.869 202.661 138.102C202.783 138.335 202.857 138.59 202.88 138.852C202.903 139.114 202.874 139.378 202.795 139.629C202.716 139.88 202.588 140.113 202.419 140.314C202.25 140.516 202.043 140.682 201.809 140.803C201.576 140.924 201.321 140.999 201.059 141.021Z" fill="#1894EC"/>
<path d="M198.365 149.937C197.296 150.218 193.687 149.098 193.687 149.098C193.687 149.098 196.278 146.347 197.347 146.065C197.86 145.93 198.406 146.005 198.865 146.272C199.324 146.54 199.657 146.979 199.792 147.492C199.927 148.005 199.853 148.551 199.585 149.01C199.318 149.469 198.879 149.802 198.365 149.937Z" fill="#1894EC"/>
<path opacity="0.25" d="M201.262 121.585C200.853 122.612 201.524 126.331 201.524 126.331C201.524 126.331 204.571 124.096 204.981 123.069C205.177 122.576 205.17 122.025 204.96 121.538C204.75 121.05 204.356 120.666 203.863 120.469C203.37 120.273 202.819 120.28 202.332 120.489C201.844 120.698 201.459 121.093 201.262 121.585Z" fill="black"/>
<path opacity="0.25" d="M195.92 126.047C196.134 127.131 198.719 129.889 198.719 129.889C198.719 129.889 200.062 126.356 199.848 125.271C199.797 125.013 199.695 124.768 199.55 124.549C199.404 124.33 199.217 124.142 198.998 123.996C198.78 123.85 198.535 123.748 198.277 123.696C198.019 123.645 197.754 123.644 197.496 123.695C197.238 123.746 196.993 123.847 196.774 123.993C196.555 124.139 196.367 124.326 196.221 124.545C196.075 124.763 195.973 125.008 195.921 125.266C195.869 125.523 195.869 125.789 195.92 126.047Z" fill="black"/>
<path opacity="0.25" d="M192.176 135.82C192.909 136.648 196.532 137.723 196.532 137.723C196.532 137.723 195.907 133.996 195.175 133.168C195.001 132.971 194.79 132.81 194.554 132.695C194.317 132.579 194.061 132.512 193.798 132.495C193.536 132.479 193.273 132.515 193.024 132.601C192.776 132.686 192.546 132.82 192.349 132.994C192.152 133.168 191.992 133.379 191.876 133.616C191.761 133.852 191.693 134.109 191.677 134.371C191.661 134.633 191.697 134.896 191.783 135.145C191.868 135.394 192.002 135.623 192.176 135.82Z" fill="black"/>
<path opacity="0.25" d="M191.009 143.852C191.591 144.792 194.98 146.464 194.98 146.464C194.98 146.464 194.995 142.685 194.413 141.745C194.274 141.521 194.093 141.327 193.88 141.173C193.667 141.02 193.425 140.91 193.169 140.849C192.913 140.789 192.648 140.78 192.388 140.822C192.129 140.864 191.88 140.957 191.657 141.096C191.433 141.234 191.239 141.415 191.085 141.629C190.932 141.842 190.822 142.084 190.762 142.34C190.701 142.596 190.692 142.861 190.735 143.12C190.777 143.38 190.87 143.629 191.009 143.852Z" fill="black"/>
<path opacity="0.25" d="M202.543 131.645C201.521 132.067 197.794 131.439 197.794 131.439C197.794 131.439 199.995 128.366 201.017 127.944C201.507 127.742 202.058 127.743 202.549 127.946C203.039 128.15 203.428 128.541 203.63 129.031C203.833 129.522 203.832 130.073 203.628 130.563C203.424 131.053 203.034 131.443 202.543 131.645Z" fill="black"/>
<path opacity="0.25" d="M201.059 141.021C199.957 141.118 196.589 139.404 196.589 139.404C196.589 139.404 199.608 137.13 200.709 137.033C200.971 137.01 201.235 137.039 201.486 137.118C201.737 137.196 201.97 137.324 202.172 137.493C202.373 137.662 202.54 137.869 202.661 138.102C202.783 138.335 202.857 138.59 202.88 138.852C202.903 139.114 202.874 139.378 202.795 139.629C202.716 139.88 202.588 140.113 202.419 140.314C202.25 140.516 202.043 140.682 201.809 140.803C201.576 140.924 201.321 140.999 201.059 141.021Z" fill="black"/>
<path opacity="0.25" d="M198.365 149.937C197.296 150.218 193.687 149.098 193.687 149.098C193.687 149.098 196.278 146.347 197.347 146.065C197.86 145.93 198.406 146.005 198.865 146.272C199.324 146.54 199.657 146.979 199.792 147.492C199.927 148.005 199.853 148.551 199.585 149.01C199.318 149.469 198.879 149.802 198.365 149.937Z" fill="black"/>
<path d="M213.219 128.051C212.428 128.824 211.535 132.496 211.535 132.496C211.535 132.496 215.226 131.687 216.017 130.914C216.397 130.543 216.613 130.036 216.619 129.506C216.626 128.975 216.421 128.463 216.049 128.084C215.678 127.704 215.172 127.487 214.641 127.481C214.11 127.475 213.599 127.68 213.219 128.051Z" fill="#1894EC"/>
<path d="M206.527 129.965C206.283 131.043 207.529 134.611 207.529 134.611C207.529 134.611 210.188 131.926 210.432 130.847C210.49 130.591 210.497 130.326 210.452 130.066C210.407 129.807 210.312 129.56 210.172 129.337C210.032 129.115 209.849 128.923 209.634 128.771C209.419 128.619 209.177 128.511 208.921 128.454C208.664 128.396 208.399 128.389 208.14 128.433C207.881 128.478 207.633 128.573 207.411 128.713C207.188 128.854 206.996 129.036 206.844 129.251C206.693 129.466 206.585 129.708 206.527 129.965Z" fill="#1894EC"/>
<path d="M199.144 137.382C199.478 138.436 202.355 140.887 202.355 140.887C202.355 140.887 203.294 137.227 202.96 136.173C202.881 135.922 202.753 135.69 202.584 135.489C202.414 135.288 202.207 135.122 201.974 135.001C201.741 134.88 201.486 134.806 201.224 134.783C200.962 134.761 200.698 134.79 200.448 134.869C200.197 134.949 199.964 135.077 199.763 135.246C199.562 135.415 199.396 135.623 199.275 135.856C199.154 136.089 199.08 136.344 199.058 136.606C199.035 136.868 199.065 137.132 199.144 137.382Z" fill="#1894EC"/>
<path d="M194.822 144.252C194.973 145.347 197.394 148.25 197.394 148.25C197.394 148.25 198.939 144.8 198.788 143.705C198.752 143.445 198.665 143.194 198.532 142.967C198.399 142.74 198.223 142.542 198.014 142.383C197.804 142.224 197.565 142.109 197.311 142.042C197.057 141.976 196.792 141.96 196.531 141.996C196.271 142.032 196.02 142.119 195.793 142.251C195.566 142.384 195.368 142.561 195.209 142.77C195.051 142.98 194.935 143.218 194.868 143.473C194.802 143.727 194.786 143.992 194.822 144.252Z" fill="#1894EC"/>
<path d="M210.313 137.766C209.208 137.738 206.055 135.654 206.055 135.654C206.055 135.654 209.312 133.736 210.417 133.764C210.948 133.778 211.452 134.002 211.817 134.387C212.183 134.772 212.38 135.287 212.366 135.817C212.353 136.348 212.129 136.852 211.744 137.217C211.359 137.583 210.844 137.78 210.313 137.766H210.313Z" fill="#1894EC"/>
<path d="M205.157 145.737C204.111 145.379 201.726 142.447 201.726 142.447C201.726 142.447 205.407 141.592 206.453 141.95C206.956 142.122 207.369 142.486 207.603 142.963C207.836 143.44 207.871 143.99 207.699 144.492C207.527 144.994 207.162 145.408 206.686 145.641C206.209 145.875 205.659 145.909 205.157 145.737V145.737Z" fill="#1894EC"/>
<path d="M199.082 152.797C197.99 152.62 195.144 150.133 195.144 150.133C195.144 150.133 198.628 148.668 199.72 148.844C200.244 148.929 200.713 149.218 201.023 149.649C201.334 150.079 201.461 150.615 201.377 151.139C201.292 151.663 201.003 152.132 200.572 152.443C200.142 152.754 199.606 152.881 199.082 152.797Z" fill="#1894EC"/>
<path opacity="0.1" d="M127.573 18.9487C116.564 18.5665 106.079 15.0126 96.0673 11.1244C86.0553 7.23614 76.1381 2.92831 65.3932 0.867998C58.4822 -0.457156 50.5789 -0.644646 45.0104 3.06071C39.6518 6.62637 37.9203 12.7814 36.9894 18.4926C36.289 22.7894 35.8773 27.3117 37.7963 31.3343C39.1287 34.1271 41.4944 36.4746 43.1303 39.1496C48.8227 48.4576 44.7992 59.9355 38.6303 69.024C35.7366 73.2872 32.3802 77.3543 30.1472 81.8926C27.9143 86.4309 26.8813 91.6311 28.8349 96.2606C30.7713 100.849 35.386 104.296 40.3848 106.72C50.5374 111.644 62.5013 113.053 74.1677 113.851C99.9925 115.618 125.955 114.853 151.849 114.087C161.431 113.803 171.056 113.516 180.483 112.034C185.718 111.211 191.122 109.905 194.923 106.752C199.747 102.75 200.943 95.9726 197.71 90.954C192.288 82.5359 177.294 80.4449 173.504 71.4108C171.418 66.438 173.56 60.8989 176.592 56.287C183.096 46.3934 193.998 37.7138 194.572 26.4053C194.967 18.6384 189.726 10.8601 181.623 7.18534C173.129 3.33341 161.351 3.81794 155.084 10.1942C148.632 16.7599 137.293 19.2862 127.573 18.9487Z" fill="#316099"/>
<path d="M108.724 140.385C112.858 140.385 116.209 136.828 116.209 132.44C116.209 128.052 112.858 124.495 108.724 124.495C104.59 124.495 101.239 128.052 101.239 132.44C101.239 136.828 104.59 140.385 108.724 140.385Z" fill="#FBD56F"/>
<path opacity="0.1" d="M108.724 140.385C112.858 140.385 116.209 136.828 116.209 132.44C116.209 128.052 112.858 124.495 108.724 124.495C104.59 124.495 101.239 128.052 101.239 132.44C101.239 136.828 104.59 140.385 108.724 140.385Z" fill="black"/>
<path d="M110.016 140.385C114.15 140.385 117.501 136.907 117.501 132.617C117.501 128.327 114.15 124.849 110.016 124.849C105.882 124.849 102.531 128.327 102.531 132.617C102.531 136.907 105.882 140.385 110.016 140.385Z" fill="#FBD56F"/>
<path d="M113.048 139.656L112.269 139.223C112.269 139.223 111.905 140.743 112.024 141.826C112.036 141.935 112.081 142.039 112.153 142.122C112.226 142.206 112.322 142.265 112.429 142.292C114.22 142.736 122.757 144.632 128.627 141.962C128.712 141.924 128.786 141.863 128.841 141.787C128.895 141.711 128.929 141.623 128.939 141.529C129.011 140.864 128.756 139.491 128.655 139.223C128.436 138.647 113.048 139.656 113.048 139.656Z" fill="#FBD56F"/>
<path opacity="0.1" d="M113.048 139.656L112.269 139.223C112.269 139.223 111.905 140.743 112.024 141.826C112.036 141.935 112.081 142.039 112.153 142.122C112.226 142.206 112.322 142.265 112.429 142.292C114.22 142.736 122.757 144.632 128.627 141.962C128.712 141.924 128.786 141.863 128.841 141.787C128.895 141.711 128.929 141.623 128.939 141.529C129.011 140.864 128.756 139.491 128.655 139.223C128.436 138.647 113.048 139.656 113.048 139.656Z" fill="black"/>
<path d="M120.462 141.07C124.987 141.07 128.655 140.243 128.655 139.223C128.655 138.203 124.987 137.376 120.462 137.376C115.937 137.376 112.269 138.203 112.269 139.223C112.269 140.243 115.937 141.07 120.462 141.07Z" fill="#FBD56F"/>
<path d="M116.178 136.932L115.399 136.498C115.399 136.498 115.035 138.018 115.154 139.101C115.166 139.211 115.211 139.314 115.283 139.398C115.356 139.481 115.452 139.54 115.559 139.567C117.35 140.012 125.887 141.907 131.757 139.238C131.842 139.199 131.916 139.139 131.971 139.063C132.025 138.987 132.059 138.898 132.069 138.805C132.141 138.139 131.886 136.766 131.785 136.498C131.566 135.922 116.178 136.932 116.178 136.932Z" fill="#FBD56F"/>
<path opacity="0.1" d="M116.178 136.932L115.399 136.498C115.399 136.498 115.035 138.018 115.154 139.101C115.166 139.211 115.211 139.314 115.283 139.398C115.356 139.481 115.452 139.54 115.559 139.567C117.35 140.012 125.887 141.907 131.757 139.238C131.842 139.199 131.916 139.139 131.971 139.063C132.025 138.987 132.059 138.898 132.069 138.805C132.141 138.139 131.886 136.766 131.785 136.498C131.566 135.922 116.178 136.932 116.178 136.932Z" fill="black"/>
<path d="M123.592 138.345C128.117 138.345 131.785 137.518 131.785 136.498C131.785 135.478 128.117 134.651 123.592 134.651C119.067 134.651 115.399 135.478 115.399 136.498C115.399 137.518 119.067 138.345 123.592 138.345Z" fill="#FBD56F"/>
<path d="M118.945 133.351L118.166 132.917C118.166 132.917 117.802 134.437 117.921 135.52C117.933 135.63 117.978 135.733 118.051 135.817C118.123 135.9 118.219 135.959 118.327 135.986C120.118 136.431 128.654 138.326 134.525 135.657C134.61 135.618 134.683 135.557 134.738 135.482C134.793 135.406 134.827 135.317 134.837 135.224C134.909 134.558 134.654 133.185 134.552 132.917C134.333 132.341 118.945 133.351 118.945 133.351Z" fill="#FBD56F"/>
<path opacity="0.1" d="M118.945 133.351L118.166 132.917C118.166 132.917 117.802 134.437 117.921 135.52C117.933 135.63 117.978 135.733 118.051 135.817C118.123 135.9 118.219 135.959 118.327 135.986C120.118 136.431 128.654 138.326 134.525 135.657C134.61 135.618 134.683 135.557 134.738 135.482C134.793 135.406 134.827 135.317 134.837 135.224C134.909 134.558 134.654 133.185 134.552 132.917C134.333 132.341 118.945 133.351 118.945 133.351Z" fill="black"/>
<path d="M126.359 134.764C130.884 134.764 134.552 133.937 134.552 132.917C134.552 131.897 130.884 131.07 126.359 131.07C121.834 131.07 118.166 131.897 118.166 132.917C118.166 133.937 121.834 134.764 126.359 134.764Z" fill="#FBD56F"/>
<path d="M115.88 129.623L115.102 129.189C115.102 129.189 114.738 130.709 114.857 131.792C114.868 131.902 114.914 132.005 114.986 132.089C115.059 132.172 115.155 132.231 115.262 132.258C117.053 132.703 125.59 134.598 131.46 131.929C131.545 131.89 131.619 131.829 131.673 131.754C131.728 131.678 131.762 131.589 131.772 131.496C131.844 130.83 131.589 129.457 131.487 129.189C131.268 128.613 115.88 129.623 115.88 129.623Z" fill="#FBD56F"/>
<path opacity="0.1" d="M115.88 129.623L115.102 129.189C115.102 129.189 114.738 130.709 114.857 131.792C114.868 131.902 114.914 132.005 114.986 132.089C115.059 132.172 115.155 132.231 115.262 132.258C117.053 132.703 125.59 134.598 131.46 131.929C131.545 131.89 131.619 131.829 131.673 131.754C131.728 131.678 131.762 131.589 131.772 131.496C131.844 130.83 131.589 129.457 131.487 129.189C131.268 128.613 115.88 129.623 115.88 129.623Z" fill="black"/>
<path d="M123.295 131.036C127.819 131.036 131.487 130.209 131.487 129.189C131.487 128.169 127.819 127.342 123.295 127.342C118.77 127.342 115.102 128.169 115.102 129.189C115.102 130.209 118.77 131.036 123.295 131.036Z" fill="#FBD56F"/>
<path d="M122.774 126.631L121.996 126.198C121.996 126.198 121.632 127.717 121.751 128.8C121.762 128.91 121.808 129.014 121.88 129.097C121.953 129.18 122.049 129.239 122.156 129.266C123.947 129.711 132.484 131.606 138.354 128.937C138.439 128.898 138.513 128.838 138.567 128.762C138.622 128.686 138.656 128.597 138.666 128.504C138.738 127.839 138.483 126.465 138.381 126.198C138.162 125.622 122.774 126.631 122.774 126.631Z" fill="#FBD56F"/>
<path opacity="0.1" d="M122.774 126.631L121.996 126.198C121.996 126.198 121.632 127.717 121.751 128.8C121.762 128.91 121.808 129.014 121.88 129.097C121.953 129.18 122.049 129.239 122.156 129.266C123.947 129.711 132.484 131.606 138.354 128.937C138.439 128.898 138.513 128.838 138.567 128.762C138.622 128.686 138.656 128.597 138.666 128.504C138.738 127.839 138.483 126.465 138.381 126.198C138.162 125.622 122.774 126.631 122.774 126.631Z" fill="black"/>
<path d="M130.189 128.044C134.713 128.044 138.381 127.217 138.381 126.197C138.381 125.177 134.713 124.351 130.189 124.351C125.664 124.351 121.996 125.177 121.996 126.197C121.996 127.217 125.664 128.044 130.189 128.044Z" fill="#FBD56F"/>
<path d="M118.117 124.62L117.338 124.187C117.338 124.187 116.974 125.707 117.093 126.789C117.105 126.899 117.15 127.003 117.222 127.086C117.295 127.17 117.391 127.229 117.498 127.256C119.289 127.7 127.826 129.595 133.696 126.926C133.781 126.887 133.855 126.827 133.91 126.751C133.964 126.675 133.998 126.586 134.008 126.493C134.08 125.828 133.825 124.454 133.724 124.187C133.505 123.611 118.117 124.62 118.117 124.62Z" fill="#FBD56F"/>
<path opacity="0.1" d="M118.117 124.62L117.338 124.187C117.338 124.187 116.974 125.707 117.093 126.789C117.105 126.899 117.15 127.003 117.222 127.086C117.295 127.17 117.391 127.229 117.498 127.256C119.289 127.7 127.826 129.595 133.696 126.926C133.781 126.887 133.855 126.827 133.91 126.751C133.964 126.675 133.998 126.586 134.008 126.493C134.08 125.828 133.825 124.454 133.724 124.187C133.505 123.611 118.117 124.62 118.117 124.62Z" fill="black"/>
<path d="M125.531 126.033C130.055 126.033 133.724 125.207 133.724 124.187C133.724 123.167 130.055 122.34 125.531 122.34C121.006 122.34 117.338 123.167 117.338 124.187C117.338 125.207 121.006 126.033 125.531 126.033Z" fill="#FBD56F"/>
<path d="M121.226 120.738L120.448 120.304C120.448 120.304 120.084 121.824 120.203 122.907C120.214 123.017 120.259 123.121 120.332 123.204C120.405 123.287 120.501 123.346 120.608 123.373C122.399 123.818 130.936 125.713 136.806 123.044C136.891 123.005 136.965 122.945 137.019 122.869C137.074 122.793 137.108 122.704 137.118 122.611C137.19 121.945 136.935 120.572 136.833 120.304C136.614 119.729 121.226 120.738 121.226 120.738Z" fill="#FBD56F"/>
<path opacity="0.1" d="M121.226 120.738L120.448 120.304C120.448 120.304 120.084 121.824 120.203 122.907C120.214 123.017 120.259 123.121 120.332 123.204C120.405 123.287 120.501 123.346 120.608 123.373C122.399 123.818 130.936 125.713 136.806 123.044C136.891 123.005 136.965 122.945 137.019 122.869C137.074 122.793 137.108 122.704 137.118 122.611C137.19 121.945 136.935 120.572 136.833 120.304C136.614 119.729 121.226 120.738 121.226 120.738Z" fill="black"/>
<path d="M128.64 122.152C133.165 122.152 136.833 121.325 136.833 120.305C136.833 119.285 133.165 118.458 128.64 118.458C124.116 118.458 120.448 119.285 120.448 120.305C120.448 121.325 124.116 122.152 128.64 122.152Z" fill="#FBD56F"/>
<path d="M122.76 116.131L121.982 115.697C121.982 115.697 121.618 117.217 121.737 118.3C121.748 118.41 121.793 118.513 121.866 118.597C121.938 118.68 122.035 118.739 122.142 118.766C123.933 119.211 132.47 121.106 138.34 118.436C138.425 118.398 138.499 118.337 138.553 118.261C138.608 118.185 138.642 118.097 138.652 118.004C138.724 117.338 138.469 115.965 138.367 115.697C138.148 115.121 122.76 116.131 122.76 116.131Z" fill="#FBD56F"/>
<path opacity="0.1" d="M122.76 116.131L121.982 115.697C121.982 115.697 121.618 117.217 121.737 118.3C121.748 118.41 121.793 118.513 121.866 118.597C121.938 118.68 122.035 118.739 122.142 118.766C123.933 119.211 132.47 121.106 138.34 118.436C138.425 118.398 138.499 118.337 138.553 118.261C138.608 118.185 138.642 118.097 138.652 118.004C138.724 117.338 138.469 115.965 138.367 115.697C138.148 115.121 122.76 116.131 122.76 116.131Z" fill="black"/>
<path d="M130.174 117.544C134.699 117.544 138.367 116.717 138.367 115.697C138.367 114.677 134.699 113.85 130.174 113.85C125.65 113.85 121.982 114.677 121.982 115.697C121.982 116.717 125.65 117.544 130.174 117.544Z" fill="#FBD56F"/>
<path d="M136.59 140.725L135.812 140.292C135.812 140.292 135.448 141.811 135.567 142.894C135.578 143.004 135.624 143.108 135.696 143.191C135.769 143.275 135.865 143.334 135.972 143.361C137.763 143.805 146.3 145.7 152.17 143.031C152.255 142.992 152.329 142.932 152.383 142.856C152.438 142.78 152.472 142.691 152.482 142.598C152.554 141.933 152.299 140.559 152.197 140.292C151.978 139.716 136.59 140.725 136.59 140.725Z" fill="#FBD56F"/>
<path opacity="0.1" d="M136.59 140.725L135.812 140.292C135.812 140.292 135.448 141.811 135.567 142.894C135.578 143.004 135.624 143.108 135.696 143.191C135.769 143.275 135.865 143.334 135.972 143.361C137.763 143.805 146.3 145.7 152.17 143.031C152.255 142.992 152.329 142.932 152.383 142.856C152.438 142.78 152.472 142.691 152.482 142.598C152.554 141.933 152.299 140.559 152.197 140.292C151.978 139.716 136.59 140.725 136.59 140.725Z" fill="black"/>
<path d="M144.005 142.138C148.529 142.138 152.197 141.312 152.197 140.292C152.197 139.272 148.529 138.445 144.005 138.445C139.48 138.445 135.812 139.272 135.812 140.292C135.812 141.312 139.48 142.138 144.005 142.138Z" fill="#FBD56F"/>
<path d="M139.358 137.144L138.579 136.711C138.579 136.711 138.215 138.23 138.334 139.313C138.346 139.423 138.391 139.527 138.463 139.61C138.536 139.694 138.632 139.753 138.739 139.779C140.53 140.224 149.067 142.119 154.937 139.45C155.022 139.411 155.096 139.351 155.151 139.275C155.205 139.199 155.239 139.11 155.249 139.017C155.321 138.352 155.066 136.978 154.965 136.711C154.746 136.135 139.358 137.144 139.358 137.144Z" fill="#FBD56F"/>
<path opacity="0.1" d="M139.358 137.144L138.579 136.711C138.579 136.711 138.215 138.23 138.334 139.313C138.346 139.423 138.391 139.527 138.463 139.61C138.536 139.694 138.632 139.753 138.739 139.779C140.53 140.224 149.067 142.119 154.937 139.45C155.022 139.411 155.096 139.351 155.151 139.275C155.205 139.199 155.239 139.11 155.249 139.017C155.321 138.352 155.066 136.978 154.965 136.711C154.746 136.135 139.358 137.144 139.358 137.144Z" fill="black"/>
<path d="M146.772 138.557C151.297 138.557 154.965 137.73 154.965 136.711C154.965 135.691 151.297 134.864 146.772 134.864C142.247 134.864 138.579 135.691 138.579 136.711C138.579 137.73 142.247 138.557 146.772 138.557Z" fill="#FBD56F"/>
<path d="M136.293 133.416L135.515 132.983C135.515 132.983 135.15 134.502 135.269 135.585C135.281 135.695 135.326 135.799 135.399 135.882C135.471 135.966 135.568 136.025 135.675 136.051C137.466 136.496 146.003 138.391 151.873 135.722C151.958 135.683 152.031 135.623 152.086 135.547C152.141 135.471 152.175 135.382 152.185 135.289C152.257 134.624 152.002 133.25 151.9 132.983C151.681 132.407 136.293 133.416 136.293 133.416Z" fill="#FBD56F"/>
<path opacity="0.1" d="M136.293 133.416L135.515 132.983C135.515 132.983 135.15 134.502 135.269 135.585C135.281 135.695 135.326 135.799 135.399 135.882C135.471 135.966 135.568 136.025 135.675 136.051C137.466 136.496 146.003 138.391 151.873 135.722C151.958 135.683 152.031 135.623 152.086 135.547C152.141 135.471 152.175 135.382 152.185 135.289C152.257 134.624 152.002 133.25 151.9 132.983C151.681 132.407 136.293 133.416 136.293 133.416Z" fill="black"/>
<path d="M143.707 134.829C148.232 134.829 151.9 134.002 151.9 132.983C151.9 131.963 148.232 131.136 143.707 131.136C139.183 131.136 135.515 131.963 135.515 132.983C135.515 134.002 139.183 134.829 143.707 134.829Z" fill="#FBD56F"/>
<path d="M143.187 130.425L142.409 129.991C142.409 129.991 142.044 131.511 142.163 132.594C142.175 132.704 142.22 132.807 142.293 132.89C142.365 132.974 142.462 133.033 142.569 133.06C144.36 133.505 152.896 135.4 158.767 132.73C158.852 132.692 158.925 132.631 158.98 132.555C159.035 132.479 159.069 132.391 159.079 132.298C159.151 131.632 158.896 130.259 158.794 129.991C158.575 129.415 143.187 130.425 143.187 130.425Z" fill="#FBD56F"/>
<path opacity="0.1" d="M143.187 130.425L142.409 129.991C142.409 129.991 142.044 131.511 142.163 132.594C142.175 132.704 142.22 132.807 142.293 132.89C142.365 132.974 142.462 133.033 142.569 133.06C144.36 133.505 152.896 135.4 158.767 132.73C158.852 132.692 158.925 132.631 158.98 132.555C159.035 132.479 159.069 132.391 159.079 132.298C159.151 131.632 158.896 130.259 158.794 129.991C158.575 129.415 143.187 130.425 143.187 130.425Z" fill="black"/>
<path d="M150.601 131.838C155.126 131.838 158.794 131.011 158.794 129.991C158.794 128.971 155.126 128.144 150.601 128.144C146.077 128.144 142.409 128.971 142.409 129.991C142.409 131.011 146.077 131.838 150.601 131.838Z" fill="#FBD56F"/>
<path d="M138.529 128.414L137.751 127.98C137.751 127.98 137.387 129.5 137.506 130.583C137.517 130.693 137.562 130.796 137.635 130.88C137.707 130.963 137.804 131.022 137.911 131.049C139.702 131.494 148.239 133.389 154.109 130.72C154.194 130.681 154.268 130.62 154.322 130.545C154.377 130.469 154.411 130.38 154.421 130.287C154.493 129.621 154.238 128.248 154.136 127.98C153.917 127.404 138.529 128.414 138.529 128.414Z" fill="#FBD56F"/>
<path opacity="0.1" d="M138.529 128.414L137.751 127.98C137.751 127.98 137.387 129.5 137.506 130.583C137.517 130.693 137.562 130.796 137.635 130.88C137.707 130.963 137.804 131.022 137.911 131.049C139.702 131.494 148.239 133.389 154.109 130.72C154.194 130.681 154.268 130.62 154.322 130.545C154.377 130.469 154.411 130.38 154.421 130.287C154.493 129.621 154.238 128.248 154.136 127.98C153.917 127.404 138.529 128.414 138.529 128.414Z" fill="black"/>
<path d="M145.943 129.827C150.468 129.827 154.136 129 154.136 127.98C154.136 126.96 150.468 126.133 145.943 126.133C141.419 126.133 137.751 126.96 137.751 127.98C137.751 129 141.419 129.827 145.943 129.827Z" fill="#FBD56F"/>
<path d="M141.639 124.532L140.86 124.098C140.86 124.098 140.496 125.618 140.615 126.701C140.627 126.811 140.672 126.915 140.745 126.998C140.817 127.081 140.914 127.14 141.021 127.167C142.812 127.612 151.348 129.507 157.219 126.838C157.304 126.799 157.377 126.739 157.432 126.663C157.487 126.587 157.521 126.498 157.531 126.405C157.603 125.739 157.348 124.366 157.246 124.098C157.027 123.523 141.639 124.532 141.639 124.532Z" fill="#FBD56F"/>
<path opacity="0.1" d="M141.639 124.532L140.86 124.098C140.86 124.098 140.496 125.618 140.615 126.701C140.627 126.811 140.672 126.915 140.745 126.998C140.817 127.081 140.914 127.14 141.021 127.167C142.812 127.612 151.348 129.507 157.219 126.838C157.304 126.799 157.377 126.739 157.432 126.663C157.487 126.587 157.521 126.498 157.531 126.405C157.603 125.739 157.348 124.366 157.246 124.098C157.027 123.523 141.639 124.532 141.639 124.532Z" fill="black"/>
<path d="M149.053 125.945C153.578 125.945 157.246 125.118 157.246 124.098C157.246 123.078 153.578 122.251 149.053 122.251C144.528 122.251 140.86 123.078 140.86 124.098C140.86 125.118 144.528 125.945 149.053 125.945Z" fill="#FBD56F"/>
<path d="M143.173 119.924L142.394 119.491C142.394 119.491 142.03 121.01 142.149 122.093C142.161 122.203 142.206 122.307 142.279 122.39C142.351 122.473 142.448 122.532 142.555 122.559C144.346 123.004 152.882 124.899 158.753 122.23C158.838 122.191 158.911 122.131 158.966 122.055C159.021 121.979 159.055 121.89 159.065 121.797C159.137 121.131 158.882 119.758 158.78 119.491C158.561 118.915 143.173 119.924 143.173 119.924Z" fill="#FBD56F"/>
<path opacity="0.1" d="M143.173 119.924L142.394 119.491C142.394 119.491 142.03 121.01 142.149 122.093C142.161 122.203 142.206 122.307 142.279 122.39C142.351 122.473 142.448 122.532 142.555 122.559C144.346 123.004 152.882 124.899 158.753 122.23C158.838 122.191 158.911 122.131 158.966 122.055C159.021 121.979 159.055 121.89 159.065 121.797C159.137 121.131 158.882 119.758 158.78 119.491C158.561 118.915 143.173 119.924 143.173 119.924Z" fill="black"/>
<path d="M150.587 121.337C155.112 121.337 158.78 120.51 158.78 119.49C158.78 118.47 155.112 117.644 150.587 117.644C146.062 117.644 142.394 118.47 142.394 119.49C142.394 120.51 146.062 121.337 150.587 121.337Z" fill="#FBD56F"/>
<path d="M192.554 151.595C191.414 151.554 191.373 151.112 189.907 150.349C189.079 149.918 187.822 148.666 186.886 147.659C186.811 147.578 186.738 147.5 186.668 147.423C186.915 147.417 187.056 147.415 187.056 147.415C187.056 147.415 186.689 144.2 187.015 143.436C187.341 142.672 187.097 138.131 187.097 138.131C187.097 138.131 187.3 134.674 186.934 133.871C186.567 133.067 187.056 127.922 187.056 127.922C187.056 127.922 187.382 124.868 187.463 118.638C187.545 112.409 183.879 112.208 183.879 112.208C183.879 112.208 183.39 112.17 182.648 112.099C182.577 112.093 182.502 112.085 182.426 112.078C182.906 111.072 183.187 110.319 183.187 110.319C183.187 110.319 182.576 104.491 182.413 103.487C182.25 102.482 181.272 98.3422 181.272 98.3422C181.272 98.3422 180.58 96.5738 180.173 95.3279C179.765 94.082 178.544 92.6352 178.544 92.6352C178.544 92.6352 176.344 88.2946 175.733 87.6515C175.45 87.3533 175.052 86.9771 174.708 86.6596C174.646 86.6023 174.586 86.548 174.528 86.4953C174.621 86.0424 174.669 85.5817 174.674 85.1195C174.674 85.1195 172.393 82.8689 172.231 82.3062C172.068 81.7435 169.909 79.6536 169.909 79.6536C169.909 79.6536 168.687 77.403 167.302 77.3627C166.648 77.3256 165.992 77.3455 165.341 77.4222C165.625 76.3695 165.962 75.2667 166.264 74.3203C166.297 74.2149 166.33 74.1121 166.363 74.0108C167.47 73.2624 168.338 72.212 168.865 70.9845C168.894 70.9192 168.92 70.8532 168.946 70.7873C168.961 70.7876 168.975 70.79 168.99 70.7898C169.048 70.7892 169.105 70.784 169.161 70.7743C169.617 70.696 170.003 70.1812 169.793 69.7749C169.807 69.7979 169.826 69.8167 169.849 69.8296C169.873 69.8424 169.899 69.8487 169.926 69.8479C170.078 69.8429 170.263 69.623 170.299 69.4297C170.305 69.3961 170.308 69.3622 170.313 69.3285C170.32 69.2865 170.327 69.2446 170.332 69.2025C170.336 69.1629 170.339 69.1231 170.343 69.0834C170.346 69.0424 170.349 69.0014 170.352 68.9603C170.353 68.9218 170.355 68.8834 170.355 68.8449C170.356 68.8006 170.356 68.7564 170.355 68.7121C170.354 68.6767 170.354 68.6413 170.352 68.6059C170.35 68.552 170.345 68.4983 170.34 68.4445C170.338 68.4225 170.338 68.4003 170.335 68.3783L170.335 68.3815C170.311 68.1619 170.267 67.9449 170.204 67.7334C169.979 66.9863 169.507 66.2454 169.689 65.487C169.691 65.4789 169.694 65.4714 169.696 65.4633L169.696 65.4648C169.848 64.8762 170.357 64.4486 170.669 63.9228C170.699 63.8726 170.725 63.8209 170.751 63.769C170.755 63.7595 170.761 63.7504 170.765 63.7409C170.784 63.7018 170.8 63.6616 170.817 63.6217C170.827 63.596 170.839 63.5707 170.849 63.5447C170.862 63.5097 170.873 63.474 170.884 63.4384C170.894 63.406 170.905 63.3738 170.915 63.3411C170.923 63.3096 170.93 63.2777 170.938 63.2458C170.947 63.2075 170.956 63.1692 170.964 63.1305C170.969 63.1027 170.973 63.0748 170.977 63.0468C170.984 63.0029 170.99 62.959 170.995 62.9147C170.998 62.8908 170.999 62.8668 171.001 62.8427C171.005 62.7934 171.008 62.7441 171.009 62.6945C171.01 62.6746 171.01 62.6548 171.01 62.6349C171.01 62.5808 171.009 62.5266 171.006 62.4725C171.005 62.4562 171.004 62.44 171.003 62.4237C170.999 62.366 170.993 62.3084 170.985 62.251C170.984 62.2427 170.984 62.2343 170.983 62.226L170.982 62.2283C170.913 61.7232 170.712 61.2454 170.399 60.843C170.042 60.4185 169.592 60.0829 169.083 59.8628C168.574 59.6427 168.021 59.5442 167.467 59.575C167.161 59.6096 166.852 59.6153 166.545 59.592C166.034 59.5171 165.602 59.1923 165.194 58.8784C164.057 58.0024 162.92 57.1265 161.783 56.2505C161.402 55.9198 160.965 55.6602 160.493 55.4839C160.011 55.3363 159.433 55.3872 159.076 55.7395C158.437 56.3698 158.843 57.4546 158.587 58.3093C158.365 59.0496 157.65 59.5513 156.91 59.8014C156.169 60.0514 155.377 60.1063 154.617 60.2873C154.39 60.324 154.178 60.4214 154.003 60.5692C153.806 60.8084 153.71 61.115 153.737 61.4237C153.732 62.1807 153.914 62.9271 154.266 63.5971C154.41 63.87 154.584 64.1458 154.737 64.4255C154.75 64.4486 154.762 64.4717 154.774 64.4949C154.791 64.5269 154.809 64.559 154.825 64.5913C154.851 64.6435 154.877 64.6959 154.901 64.7484C154.911 64.7711 154.92 64.7939 154.93 64.8167C154.946 64.8539 154.961 64.8912 154.976 64.9285C154.985 64.9523 154.994 64.9761 155.002 65C155.017 65.044 155.031 65.0881 155.044 65.1323C155.125 65.3922 155.133 65.6697 155.066 65.9337C154.948 66.3657 154.611 66.6985 154.314 67.036C154.071 67.2997 153.898 67.62 153.811 67.9676L153.81 67.9754C153.793 68.0562 153.79 68.1392 153.801 68.221C153.802 68.2312 153.803 68.2415 153.805 68.2513C153.809 68.2696 153.814 68.2876 153.82 68.3051C153.825 68.3179 153.83 68.3304 153.836 68.3426C153.842 68.3569 153.849 68.3708 153.857 68.3842C153.872 68.4066 153.889 68.4272 153.909 68.4453C153.918 68.4528 153.928 68.4599 153.938 68.4665C153.954 68.4787 153.972 68.4895 153.99 68.4986C154.001 68.5041 154.013 68.5093 154.025 68.514C154.052 68.524 154.08 68.5317 154.108 68.5367C154.116 68.5382 154.123 68.5407 154.131 68.5419C154.175 68.5475 154.219 68.5494 154.262 68.5475C154.275 68.5471 154.289 68.5455 154.302 68.5445C154.344 68.5414 154.386 68.5361 154.427 68.5287C154.442 68.5261 154.457 68.5237 154.473 68.5204C154.533 68.508 154.596 68.4927 154.665 68.4712C154.894 68.4021 155.117 68.3141 155.331 68.2081C155.33 68.2326 155.329 68.2568 155.329 68.2813C155.329 68.3235 155.329 68.3677 155.333 68.4099C155.344 69.1981 155.493 69.9782 155.773 70.7152C156.21 71.8637 156.942 72.8762 157.897 73.6499C157.885 73.7193 157.872 73.789 157.858 73.859C157.662 74.8227 157.251 75.7897 156.998 75.715C156.75 75.6597 156.497 75.6319 156.243 75.6322C156.166 75.6299 156.091 75.6289 156.021 75.6284L156.02 75.6282C155.79 75.6015 155.558 75.6015 155.328 75.6282C155.225 75.6352 155.122 75.621 155.025 75.5864C154.367 75.379 153.667 75.3397 152.99 75.4722C151.582 75.7608 149.439 76.2889 148.852 76.9207C147.956 77.8853 146.653 78.8096 145.186 82.8287C145.186 82.8287 144.453 85.2803 143.883 85.6018C144.009 85.5367 144.138 85.4786 144.27 85.4279C144.194 85.5607 144.09 85.675 143.964 85.7626C144.171 85.657 144.386 85.5676 144.606 85.4951C144.161 88.1136 144.82 95.6038 144.82 95.6038C144.82 95.6038 144.29 96.8954 144.983 97.659C145.394 98.1128 145.618 98.8204 145.732 99.3213C145.7 99.3715 145.667 99.4235 145.632 99.4772V99.478C145.265 100.046 144.775 100.787 144.453 101.196C143.883 101.919 144.046 104.21 144.046 104.21C144.046 104.21 143.924 105.295 143.516 105.697C143.109 106.099 143.191 107.586 143.191 107.586L142.132 111.485C142.132 111.485 141.154 112.369 141.154 112.771C141.154 113.173 140.38 114.298 140.38 114.298C140.38 114.298 139.199 116.227 140.38 115.946C140.811 115.82 141.215 115.616 141.573 115.346L141.572 115.375C141.571 115.446 141.569 115.517 141.568 115.59C141.535 117.692 141.763 120.648 143.313 120.648C145.716 120.648 151.907 123.502 151.907 123.502C153.169 124.466 154.88 124.145 154.88 124.145C154.88 124.145 151.866 127.159 151.947 128.405C152.029 129.651 150.237 131.7 150.237 131.7L144.698 142.512C144.729 143.265 144.862 144.01 145.095 144.728C145.068 144.751 145.041 144.772 145.015 144.796C142.887 146.74 142.702 150.59 142.702 150.59L142.213 152.559L149.626 155.815C149.626 155.815 159.238 156.016 160.908 155.574C162.578 155.131 162.211 153.283 160.012 152.921C157.812 152.559 157.283 151.595 156.55 151.153C156.055 150.854 154.299 148.927 153.209 147.705C153.193 147.686 153.177 147.669 153.161 147.651L153.414 146.249C153.902 146.008 154.636 143.597 154.636 143.597C154.636 143.597 154.636 142.632 155.124 142.351C155.613 142.069 156.631 139.176 156.631 139.176C156.631 139.176 158.831 135.518 158.708 135.036C158.586 134.554 160.297 132.102 160.297 132.102C160.297 132.102 163.189 129.289 163.066 128.787C162.944 128.284 165.388 125.712 165.388 125.712C166.271 125.038 167.007 124.19 167.551 123.222C167.771 123.186 168.007 123.149 168.256 123.107C171.454 122.583 176.769 121.635 177.362 121.371C178.177 121.01 178.014 122.617 177.688 123.984C177.362 125.35 177.118 131.901 177.485 132.745C177.851 133.589 177.688 134.956 177.688 134.956L177.199 142.311L177.525 143.878C177.525 143.878 176.426 144.762 176.874 145.285C177.322 145.807 176.914 148.058 176.914 148.058C176.953 148.044 176.998 148.03 177.05 148.016C177.01 148.104 176.973 148.195 176.94 148.29C176.308 150.09 176.67 153.042 176.67 153.042V155.373C176.67 155.373 187.952 155.574 190.436 155.574C192.921 155.574 196.342 154.368 196.546 153.403C196.749 152.439 193.695 151.635 192.554 151.595ZM160.466 109.754L159.727 109.817C159.972 109.781 160.219 109.76 160.466 109.754ZM164.972 78.9055C165.075 78.4406 165.201 77.9405 165.339 77.4276L164.972 78.9055ZM166.366 110.882C165.661 111.161 164.876 111.161 164.171 110.884L164.166 110.882C164.166 110.882 164.207 108.068 164.533 106.903C164.859 105.737 165.307 103.607 165.307 103.607C165.307 103.607 165.673 100.673 166.04 99.347C166.406 98.0207 167.832 90.6256 168.565 90.1433C169.298 89.661 169.705 90.5051 169.705 90.5051C169.705 90.5051 169.815 90.5028 169.998 90.4825C170.033 90.5596 170.072 90.6416 170.115 90.7285C170.984 92.4848 173.534 96.0915 173.534 96.0915C174.29 96.5581 174.931 97.1902 175.407 97.9403C176.1 99.1058 176.303 101.839 176.303 101.839C176.303 101.839 177.851 107.908 178.584 108.752C178.951 109.174 178.788 109.425 178.534 109.571C178.014 109.855 177.573 110.263 177.248 110.758C177.144 110.923 177.034 111.105 176.921 111.299C176.641 111.234 176.39 111.167 176.181 111.096C174.185 110.426 167.465 110.399 166.366 110.882Z" fill="url(#paint0_linear)"/>
<path d="M176.403 153.065V155.376C176.403 155.376 187.442 155.576 189.873 155.576C192.304 155.576 195.652 154.38 195.851 153.424C196.051 152.467 193.062 151.67 191.946 151.63C190.83 151.59 190.79 151.152 189.355 150.395C188.545 149.967 187.316 148.726 186.399 147.728C185.692 146.957 185.171 146.329 185.171 146.329C185.171 146.329 179.232 146.21 177.519 147.166C177.124 147.387 176.851 147.819 176.667 148.353C176.049 150.138 176.403 153.065 176.403 153.065Z" fill="#434175"/>
<path opacity="0.1" d="M176.667 148.353C177.912 147.92 185.201 147.752 186.399 147.728C185.692 146.957 185.171 146.329 185.171 146.329C185.171 146.329 179.232 146.21 177.519 147.166C177.124 147.387 176.851 147.819 176.667 148.353Z" fill="black"/>
<path d="M144.639 111.497C144.639 111.497 144.869 111.636 145.283 111.886C145.358 111.931 145.438 111.98 145.525 112.032C145.787 112.19 146.102 112.379 146.461 112.596C151.47 115.615 165.134 123.798 165.881 123.732C166.077 123.715 166.666 123.627 167.479 123.495C167.695 123.46 167.926 123.422 168.17 123.381C171.299 122.861 176.499 121.921 177.08 121.66C177.877 121.301 177.718 122.895 177.399 124.25C177.08 125.605 176.841 132.102 177.2 132.939C177.559 133.775 177.399 135.131 177.399 135.131L176.921 142.424L177.24 143.978C177.24 143.978 176.164 144.855 176.602 145.373C177.04 145.891 176.642 148.123 176.642 148.123C177.917 147.645 186.566 147.485 186.566 147.485C186.566 147.485 186.207 144.297 186.526 143.54C186.845 142.782 186.605 138.279 186.605 138.279C186.605 138.279 186.805 134.852 186.446 134.054C186.087 133.257 186.566 128.156 186.566 128.156C186.566 128.156 186.884 125.127 186.964 118.95C187.044 112.772 183.457 112.573 183.457 112.573C183.457 112.573 182.979 112.536 182.253 112.465C180.832 112.329 178.465 112.069 176.883 111.725C176.559 111.658 176.239 111.573 175.924 111.471C173.972 110.806 167.396 110.78 166.32 111.258C165.631 111.534 164.862 111.535 164.172 111.26L164.168 111.258L163.331 109.903L155.337 110.584L154.489 110.657L146.62 111.328L146.079 111.374L144.639 111.497Z" fill="#565387"/>
<path opacity="0.1" d="M176.682 117.611C179.004 118.743 181.219 114.73 182.252 112.466C180.832 112.329 178.465 112.069 176.883 111.725C175.843 113.471 174.455 116.526 176.682 117.611Z" fill="black"/>
<path d="M169.707 90.4941C169.756 90.7681 169.851 91.0318 169.989 91.2736C170.839 93.0153 173.334 96.5918 173.334 96.5918C174.076 97.0561 174.703 97.683 175.167 98.425C175.845 99.5808 176.044 102.291 176.044 102.291C176.044 102.291 177.558 108.309 178.276 109.146C178.635 109.564 178.475 109.814 178.226 109.958C177.717 110.241 177.285 110.646 176.969 111.135C175.924 112.816 174.255 116.148 176.602 117.292C179.79 118.846 182.779 110.7 182.779 110.7C182.779 110.7 182.182 104.921 182.022 103.925C181.863 102.929 180.906 98.8236 180.906 98.8236C180.906 98.8236 180.229 97.07 179.83 95.8345C179.432 94.5991 178.236 93.1643 178.236 93.1643C178.236 93.1643 176.084 88.8601 175.486 88.2224C175.209 87.9267 174.82 87.5536 174.483 87.2388C174.093 86.8745 173.772 86.5884 173.772 86.5884C173.772 86.5884 169.667 89.5376 169.707 90.4941Z" fill="#EE8E9E"/>
<path d="M142.686 152.587L149.94 155.815C149.94 155.815 159.345 156.014 160.979 155.576C162.613 155.137 162.254 153.304 160.102 152.945C157.95 152.587 157.432 151.63 156.715 151.192C156.231 150.896 154.512 148.985 153.446 147.773C152.933 147.19 152.57 146.768 152.57 146.768C152.57 146.768 151.175 143.062 147.309 143.898C146.604 144.051 145.953 144.393 145.428 144.888C143.345 146.817 143.164 150.634 143.164 150.634L142.686 152.587Z" fill="#434175"/>
<path opacity="0.1" d="M145.525 112.032C145.787 112.191 146.102 112.38 146.461 112.596C151.47 115.615 165.134 123.798 165.881 123.732C166.077 123.716 166.666 123.627 167.479 123.495C167.695 123.46 167.926 123.422 168.17 123.381C168.179 123.366 168.188 123.351 168.197 123.336C168.598 122.635 168.905 121.884 169.109 121.102C169.946 117.914 165.801 115.483 165.801 115.483L164.925 114.801C163.928 113.123 156.755 111.537 156.755 111.537L155.83 110.916L155.337 110.585L155.207 110.498L154.084 109.744L148.465 110.142L146.796 111.215L146.62 111.328L146 111.727L145.525 112.032Z" fill="black"/>
<path opacity="0.1" d="M145.428 144.888C146.954 150.165 153.327 148.442 153.327 148.442L153.446 147.773C152.933 147.19 152.57 146.768 152.57 146.768C152.57 146.768 151.175 143.062 147.309 143.898C146.604 144.051 145.953 144.393 145.428 144.888Z" fill="black"/>
<path d="M143.762 120.942C146.114 120.942 152.171 123.772 152.171 123.772C153.407 124.729 155.081 124.41 155.081 124.41C155.081 124.41 152.131 127.399 152.211 128.634C152.291 129.87 150.537 131.902 150.537 131.902L145.117 142.623C145.516 150.235 153.327 148.123 153.327 148.123L153.646 146.33C154.124 146.09 154.842 143.699 154.842 143.699C154.842 143.699 154.842 142.743 155.32 142.464C155.798 142.185 156.794 139.315 156.794 139.315C156.794 139.315 158.947 135.688 158.827 135.21C158.707 134.732 160.381 132.301 160.381 132.301C160.381 132.301 163.211 129.511 163.091 129.013C162.972 128.515 165.363 125.964 165.363 125.964C166.229 125.294 166.949 124.453 167.479 123.495C167.881 122.794 168.188 122.043 168.392 121.261C169.066 118.694 166.509 116.617 165.488 115.906C165.241 115.734 165.084 115.642 165.084 115.642L164.207 114.96C163.755 114.197 162.023 113.453 160.271 112.869C159.006 112.447 157.73 112.108 156.915 111.905C156.375 111.771 156.037 111.696 156.037 111.696L155.113 111.075L154.787 110.857L154.489 110.657L153.367 109.903L150.867 110.08L147.748 110.301L146.078 111.374L145.283 111.886L142.168 113.888C142.168 113.888 142.086 114.655 142.06 115.684C142.058 115.764 142.056 115.844 142.055 115.927C142.022 118.011 142.246 120.942 143.762 120.942Z" fill="#565387"/>
<path d="M155.758 76.3059L156.595 79.295C156.595 79.295 158.07 84.4362 158.229 84.7949C158.389 85.1536 162.254 88.7803 162.414 88.86C162.573 88.9397 164.678 90.1353 164.678 90.1353C164.678 90.1353 164.845 83.5594 164.686 81.6464C164.672 81.2261 164.707 80.8057 164.789 80.3934C165.043 78.8941 165.687 76.6957 166.22 75.0027C166.666 73.5839 167.037 72.5198 167.037 72.5198C167.037 72.5198 157.711 72.1213 158.03 73.0379C158.15 73.3846 158.111 73.9641 157.995 74.5452C157.803 75.5009 157.401 76.4598 157.153 76.3857C156.911 76.3309 156.663 76.3033 156.414 76.3036C156.07 76.2932 155.758 76.3059 155.758 76.3059Z" fill="#EE8E9E"/>
<path opacity="0.1" d="M157.995 74.5452C159.134 75.4961 160.55 76.0543 162.032 76.1367C163.513 76.2191 164.982 75.8214 166.22 75.0027C166.666 73.5839 167.037 72.5198 167.037 72.5198C167.037 72.5198 157.711 72.1213 158.03 73.0379C158.15 73.3846 158.111 73.9641 157.995 74.5452Z" fill="black"/>
<path d="M169.309 69.0138C169.31 69.7451 169.193 70.4717 168.965 71.1663C168.907 71.3455 168.841 71.5218 168.765 71.6944C168.229 72.9659 167.322 74.0471 166.164 74.7979C165.006 75.5488 163.649 75.9348 162.269 75.906C160.889 75.8773 159.55 75.4351 158.424 74.6366C157.298 73.8381 156.438 72.7201 155.955 71.4273C155.681 70.6958 155.535 69.9225 155.524 69.1414C155.52 69.0995 155.52 69.0557 155.52 69.0138C155.52 67.1853 156.246 65.4316 157.539 64.1386C158.832 62.8455 160.586 62.1191 162.415 62.1191C164.243 62.1191 165.997 62.8455 167.29 64.1386C168.583 65.4316 169.309 67.1853 169.309 69.0138H169.309Z" fill="#EE8E9E"/>
<path opacity="0.1" d="M155.758 76.3058L156.595 79.2948C156.595 79.2948 158.07 84.436 158.229 84.7947C158.389 85.1534 162.254 88.7801 162.414 88.8598C162.573 88.9395 164.678 90.1352 164.678 90.1352C164.678 90.1352 164.845 83.5592 164.686 81.6462C164.672 81.226 164.707 80.8055 164.789 80.3932L164.247 82.6027L164.287 87.0265L164.606 87.2657L163.888 88.3417V87.5446C163.888 87.5446 161.338 85.0737 160.939 84.0375C160.541 83.0013 159.106 81.1249 159.106 81.1249C159.106 81.1249 157.472 78.3782 157.432 77.8999C157.401 77.5269 156.715 76.6645 156.414 76.3034C156.07 76.293 155.758 76.3058 155.758 76.3058Z" fill="black"/>
<path opacity="0.1" d="M169.707 90.4941C169.756 90.7681 169.851 91.0318 169.989 91.2736C170.86 91.1844 173.829 90.6304 174.483 87.2388C174.093 86.8745 173.772 86.5884 173.772 86.5884C173.772 86.5884 169.667 89.5376 169.707 90.4941Z" fill="black"/>
<path opacity="0.1" d="M142.055 115.927C142.859 115.358 143.624 114.582 144.081 114.367C144.759 114.048 145.795 113.011 145.795 113.011C145.795 113.011 146.058 112.833 146.461 112.596C147.201 112.163 148.413 111.534 149.342 111.457C150.174 111.388 152.938 111.211 155.113 111.075C156.686 110.977 157.95 110.899 157.95 110.899C157.95 110.899 160.541 109.983 161.657 110.58C162.456 110.981 163.298 111.288 164.167 111.497C164.167 111.497 164.168 111.41 164.172 111.26L164.167 111.258L163.331 109.903L154.489 110.657L153.367 109.903L147.748 110.301L146.078 111.374L144.639 111.497C144.639 111.497 144.869 111.636 145.283 111.886L142.168 113.888C142.168 113.888 142.072 114.779 142.055 115.927Z" fill="black"/>
<path d="M140.893 116.28C141.315 116.154 141.71 115.953 142.06 115.685V115.684C142.862 115.116 143.625 114.342 144.081 114.128C144.758 113.809 145.795 112.773 145.795 112.773C145.795 112.773 147.907 111.338 149.342 111.218C149.733 111.186 150.551 111.129 151.534 111.065C152.54 110.998 153.717 110.923 154.787 110.857C155.404 110.818 155.985 110.781 156.476 110.751C157.356 110.697 157.95 110.66 157.95 110.66C157.95 110.66 160.541 109.744 161.657 110.342C162.456 110.742 163.298 111.049 164.167 111.258C164.167 111.258 164.207 108.468 164.526 107.313C164.845 106.157 165.283 104.045 165.283 104.045C165.283 104.045 165.642 101.135 166.001 99.82C166.359 98.5048 167.754 91.1717 168.472 90.6934C169.189 90.2152 169.588 91.0521 169.588 91.0521C169.588 91.0521 174.37 90.9724 174.45 85.7116C174.45 85.7116 172.218 83.4798 172.059 82.9219C171.899 82.3639 169.787 80.2915 169.787 80.2915C169.787 80.2915 168.591 78.0596 167.236 78.0198C166.596 77.983 165.954 78.0027 165.317 78.0788L164.167 82.7624L164.207 87.1863L164.526 87.4254L163.809 88.5014V87.7044C163.809 87.7044 161.258 85.2334 160.86 84.1972C160.461 83.161 159.026 81.2847 159.026 81.2847C159.026 81.2847 157.392 78.5379 157.352 78.0597C157.313 77.5814 156.197 76.2997 156.197 76.2997C155.972 76.2733 155.744 76.2733 155.519 76.2997C155.418 76.3067 155.317 76.2925 155.223 76.2582C154.579 76.0526 153.894 76.0137 153.232 76.1451C151.853 76.4312 149.757 76.9549 149.182 77.5814C148.306 78.5379 147.03 79.4545 145.595 83.4399L153.327 86.2297L152.666 87.4875L146.512 99.1823C146.512 99.1823 146.308 99.5147 146.031 99.9491V99.9499C145.673 100.513 145.193 101.248 144.878 101.653C144.32 102.371 144.48 104.642 144.48 104.642C144.48 104.642 144.36 105.718 143.961 106.117C143.563 106.515 143.643 107.99 143.643 107.99L142.606 111.856C142.606 111.856 141.65 112.733 141.65 113.131C141.65 113.53 140.893 114.646 140.893 114.646C140.893 114.646 139.737 116.559 140.893 116.28Z" fill="#434175"/>
<path opacity="0.1" d="M181.703 119.149C181.703 119.149 179.192 119.986 178.515 121.181C177.837 122.377 181.703 119.149 181.703 119.149Z" fill="black"/>
<path opacity="0.1" d="M180.428 116.519C180.348 116.638 176.989 120.009 177.2 120.823C177.41 121.637 180.428 116.519 180.428 116.519Z" fill="black"/>
<path opacity="0.1" d="M161.975 118.91C161.975 118.91 158.229 120.676 157.91 121.447C157.592 122.218 161.975 118.91 161.975 118.91Z" fill="black"/>
<path opacity="0.1" d="M161.736 121.182C161.736 121.182 158.355 122.616 157.894 122.975C157.432 123.334 161.736 121.182 161.736 121.182Z" fill="black"/>
<path opacity="0.1" d="M160.182 124.25C160.182 124.25 158.685 125.366 157.859 124.489C157.034 123.613 160.182 124.25 160.182 124.25Z" fill="black"/>
<path opacity="0.1" d="M165.802 95.1567C165.722 95.2763 160.74 104.243 159.425 104.921C158.11 105.599 165.802 95.1567 165.802 95.1567Z" fill="black"/>
<path opacity="0.1" d="M165.562 98.5444C165.562 98.7437 160.7 109.146 159.903 109.265C159.106 109.385 165.562 98.5444 165.562 98.5444Z" fill="black"/>
<path opacity="0.1" d="M147.07 105.24C147.07 105.24 144.722 110.254 143.802 110.54C142.882 110.826 147.07 105.24 147.07 105.24Z" fill="black"/>
<path opacity="0.1" d="M146.671 103.008C146.671 103.008 145.862 104.761 145.37 104.761C144.878 104.761 146.671 103.008 146.671 103.008Z" fill="black"/>
<path opacity="0.1" d="M169.309 69.0138C169.31 69.7451 169.193 70.4717 168.965 71.1663C168.907 71.3455 168.841 71.5218 168.765 71.6944C168.411 71.6407 168.078 71.4943 167.799 71.2699C167.503 71.0694 167.256 70.8052 167.075 70.4966C166.939 70.1679 166.822 69.8319 166.723 69.4902C166.564 69.1045 166.304 68.7683 165.972 68.5164C165.639 68.2644 165.246 68.1059 164.831 68.0572C165.06 68.4478 164.696 68.984 164.247 69.0537C163.799 69.1215 163.362 68.8544 163.054 68.5216C162.745 68.1888 162.521 67.7842 162.214 67.4514C161.906 67.1185 161.469 66.8515 161.021 66.9192C160.624 66.979 160.317 67.282 159.984 67.5072C159.654 67.7324 159.189 67.8838 158.868 67.6427C158.689 67.5091 158.601 67.282 158.43 67.1365C157.989 66.7678 157.304 67.1484 156.979 67.6247C156.479 68.3621 156.174 68.8086 155.524 69.1414C155.52 69.0995 155.52 69.0557 155.52 69.0138C155.52 67.1853 156.246 65.4316 157.539 64.1386C158.832 62.8455 160.586 62.1191 162.415 62.1191C164.243 62.1191 165.997 62.8455 167.29 64.1386C168.583 65.4316 169.309 67.1853 169.309 69.0138Z" fill="black"/>
<path d="M156.98 67.4254C157.304 66.9487 157.989 66.5676 158.431 66.9381C158.602 67.0819 158.69 67.3093 158.868 67.444C159.189 67.6853 159.654 67.5339 159.985 67.3079C160.316 67.0819 160.624 66.7803 161.02 66.72C161.469 66.6517 161.906 66.9191 162.214 67.2522C162.522 67.5853 162.745 67.9894 163.053 68.3224C163.362 68.6554 163.799 68.9225 164.247 68.8539C164.696 68.7853 165.061 68.2486 164.831 67.8579C165.245 67.9067 165.639 68.0653 165.971 68.3172C166.304 68.5691 166.563 68.9052 166.722 69.2908C166.821 69.6324 166.939 69.9683 167.075 70.297C167.255 70.6056 167.503 70.8696 167.799 71.0696C168.165 71.3377 168.608 71.5638 169.055 71.486C169.501 71.4083 169.88 70.8964 169.672 70.4932C169.815 70.7101 170.121 70.408 170.168 70.1526C170.269 69.5924 170.237 69.0163 170.075 68.4705C169.855 67.7297 169.393 66.9951 169.571 66.243C169.712 65.6476 170.221 65.22 170.53 64.6918C171.077 63.7555 170.932 62.4941 170.266 61.6379C169.92 61.2182 169.48 60.8857 168.982 60.6673C168.483 60.4489 167.941 60.3507 167.398 60.3805C167.098 60.4147 166.796 60.4204 166.496 60.3973C165.995 60.323 165.572 60.0009 165.173 59.6896L161.835 57.0838C161.464 56.7564 161.036 56.4989 160.573 56.3236C160.102 56.1773 159.536 56.2277 159.187 56.577C158.562 57.2021 158.959 58.2778 158.708 59.1253C158.491 59.8594 157.791 60.3569 157.067 60.6049C156.342 60.8529 155.567 60.9073 154.823 61.0868C154.601 61.1234 154.394 61.2201 154.223 61.3664C154.03 61.6045 153.936 61.9082 153.962 62.2137C153.957 62.9635 154.135 63.7032 154.48 64.3689C154.867 65.1123 155.479 65.8765 155.263 66.6859C155.148 67.1143 154.818 67.4443 154.527 67.779C153.896 68.5046 153.683 69.5767 154.87 69.2022C156.013 68.8414 156.334 68.3739 156.98 67.4254Z" fill="#434175"/>
<g opacity="0.1">
<path opacity="0.1" d="M170.168 69.3672C170.122 69.6226 169.816 69.9246 169.673 69.7078C169.88 70.1109 169.502 70.6228 169.056 70.7006C168.609 70.7783 168.166 70.5522 167.8 70.2842C167.504 70.0841 167.256 69.8201 167.076 69.5116C166.94 69.1829 166.822 68.8469 166.722 68.5053C166.563 68.1197 166.304 67.7836 165.972 67.5317C165.639 67.2798 165.246 67.1213 164.832 67.0724C165.062 67.4632 164.697 67.9998 164.248 68.0684C163.8 68.1371 163.362 67.87 163.054 67.537C162.746 67.2039 162.523 66.7998 162.215 66.4667C161.907 66.1336 161.47 65.8663 161.021 65.9345C160.625 65.9949 160.317 66.2964 159.986 66.5224C159.654 66.7485 159.189 66.8999 158.869 66.6585C158.69 66.5239 158.603 66.2965 158.432 66.1526C157.99 65.7821 157.305 66.1632 156.98 66.6399C156.335 67.5884 156.014 68.0559 154.871 68.4167C154.496 68.5351 154.261 68.5084 154.134 68.3942C153.883 68.9704 153.998 69.4779 154.871 69.2025C156.014 68.8417 156.335 68.3742 156.98 67.4256C157.305 66.949 157.99 66.5678 158.432 66.9384C158.603 67.0822 158.69 67.3096 158.869 67.4443C159.189 67.6856 159.654 67.5342 159.986 67.3082C160.317 67.0822 160.625 66.7806 161.021 66.7203C161.47 66.652 161.907 66.9194 162.215 67.2525C162.523 67.5856 162.746 67.9897 163.054 68.3227C163.362 68.6557 163.8 68.9228 164.248 68.8542C164.697 68.7856 165.062 68.2489 164.832 67.8582C165.246 67.907 165.639 68.0656 165.972 68.3175C166.304 68.5694 166.563 68.9055 166.722 69.291C166.822 69.6327 166.94 69.9686 167.076 70.2973C167.256 70.6058 167.504 70.8699 167.8 71.0699C168.166 71.338 168.609 71.564 169.056 71.4863C169.502 71.4086 169.88 70.8967 169.673 70.4935C169.816 70.7104 170.122 70.4083 170.168 70.1529C170.23 69.8089 170.243 69.4578 170.204 69.1104C170.195 69.1963 170.184 69.2821 170.168 69.3672Z" fill="black"/>
<path opacity="0.1" d="M155.253 65.9305C155.256 65.9202 155.261 65.9106 155.263 65.9002C155.48 65.0908 154.867 64.3266 154.481 63.5832C154.21 63.0589 154.042 62.4875 153.986 61.8999C153.971 62.0038 153.963 62.1087 153.963 62.2137C153.958 62.9635 154.136 63.7032 154.481 64.3689C154.745 64.8771 155.115 65.395 155.253 65.9305Z" fill="black"/>
<path opacity="0.1" d="M170.531 63.9061C170.222 64.4343 169.713 64.8619 169.572 65.4573C169.517 65.7092 169.52 65.9701 169.579 66.221C169.727 65.6373 170.226 65.2133 170.531 64.6919C170.818 64.1812 170.926 63.5887 170.838 63.0093C170.794 63.3253 170.69 63.6298 170.531 63.9061Z" fill="black"/>
</g>
<path opacity="0.1" d="M146.031 99.9489V99.9497C146.084 100.17 146.125 100.392 146.153 100.617C146.153 100.617 149.302 107.99 149.7 108.428C149.823 108.563 150.286 109.226 150.867 110.08C151.077 110.388 151.303 110.722 151.534 111.065C152.739 112.854 154.084 114.885 154.084 114.885L157.034 117.475C157.034 117.475 163.449 117.988 165.488 115.906C165.241 115.734 165.084 115.642 165.084 115.642L164.207 114.96C163.755 114.197 162.023 113.453 160.271 112.869C158.656 112.881 157.335 113.011 157.335 113.011L156.915 111.905L156.476 110.751L154.247 104.881C154.247 104.881 152.809 97.4684 152.331 97.1097C151.853 96.751 151.972 95.6351 151.972 95.6351C151.972 95.6351 152.849 92.4866 152.53 92.0482C152.211 91.6098 153.048 88.3816 153.048 88.3816C152.965 88.0665 152.836 87.7652 152.666 87.4873L146.512 99.1821C146.512 99.1821 146.308 99.5145 146.031 99.9489Z" fill="black"/>
<path d="M153.128 88.1422C153.128 88.1422 152.291 91.3704 152.61 91.8088C152.929 92.2472 152.052 95.3957 152.052 95.3957C152.052 95.3957 151.932 96.5116 152.41 96.8703C152.889 97.229 154.327 104.642 154.327 104.642L157.414 112.772C157.414 112.772 167.077 111.816 166.08 114.845C165.084 117.873 157.113 117.236 157.113 117.236L154.164 114.645C154.164 114.645 150.179 108.627 149.78 108.189C149.382 107.75 146.233 100.377 146.233 100.377C146.233 100.377 146.074 98.9029 145.396 98.1456C144.719 97.3884 145.237 96.1076 145.237 96.1076C145.237 96.1076 144.4 86.4684 145.277 85.3126C146.153 84.1568 152.211 84.6749 153.128 88.1422Z" fill="#EE8E9E"/>
<path opacity="0.1" d="M148.186 82.0846L145.675 83.5991C145.675 83.5991 144.958 86.0302 144.4 86.349C144.4 86.349 149.421 83.5592 153.208 89.9757C153.208 89.9757 153.088 89.1388 153.606 88.7402C154.124 88.3417 154.005 86.628 154.005 86.628C154.143 86.3572 154.262 86.0776 154.363 85.791C154.722 84.9142 152.849 79.8926 148.186 82.0846Z" fill="black"/>
<path d="M148.106 81.9254L145.595 83.4399C145.595 83.4399 144.878 85.871 144.32 86.1898C144.32 86.1898 149.342 83.4 153.128 89.8165C153.128 89.8165 153.008 88.9796 153.526 88.5811C154.045 88.1825 153.925 86.4688 153.925 86.4688C154.063 86.198 154.183 85.9184 154.284 85.6318C154.642 84.7551 152.769 79.7334 148.106 81.9254Z" fill="#434175"/>
<path d="M125.727 151.721C129.861 151.721 133.212 148.164 133.212 143.776C133.212 139.388 129.861 135.831 125.727 135.831C121.593 135.831 118.242 139.388 118.242 143.776C118.242 148.164 121.593 151.721 125.727 151.721Z" fill="#FBD56F"/>
<path opacity="0.1" d="M125.727 151.721C129.861 151.721 133.212 148.164 133.212 143.776C133.212 139.388 129.861 135.831 125.727 135.831C121.593 135.831 118.242 139.388 118.242 143.776C118.242 148.164 121.593 151.721 125.727 151.721Z" fill="black"/>
<path d="M127.019 151.72C131.153 151.72 134.504 148.242 134.504 143.952C134.504 139.662 131.153 136.184 127.019 136.184C122.885 136.184 119.534 139.662 119.534 143.952C119.534 148.242 122.885 151.72 127.019 151.72Z" fill="#FBD56F"/>
<path d="M18.5579 148.142C23.6635 148.142 27.8024 147.442 27.8024 146.579C27.8024 145.716 23.6635 145.016 18.5579 145.016C13.4523 145.016 9.31332 145.716 9.31332 146.579C9.31332 147.442 13.4523 148.142 18.5579 148.142Z" fill="#1894EC"/>
<path d="M22.3805 144.022C22.7764 143.654 23.1477 143.22 23.2618 142.692C23.3759 142.164 23.1507 141.53 22.6459 141.337C22.0803 141.121 21.4759 141.513 21.0176 141.909C20.5594 142.305 20.0342 142.757 19.4344 142.673C19.7429 142.393 19.9737 142.038 20.1044 141.643C20.235 141.248 20.261 140.825 20.1798 140.417C20.1535 140.248 20.0818 140.09 19.9725 139.959C19.6585 139.623 19.0893 139.767 18.7133 140.032C17.5177 140.873 17.1841 142.497 17.1776 143.959C17.057 143.431 17.1586 142.882 17.1556 142.341C17.1526 141.8 17.0044 141.201 16.5481 140.91C16.2639 140.757 15.9443 140.682 15.6217 140.692C15.0842 140.673 14.4856 140.726 14.1186 141.12C13.6625 141.608 13.7808 142.427 14.1776 142.965C14.5743 143.503 15.1778 143.84 15.7333 144.211C16.1789 144.477 16.5589 144.839 16.845 145.272C16.8787 145.332 16.9063 145.395 16.9275 145.461H20.2968C21.0531 145.078 21.7541 144.594 22.3805 144.022Z" fill="#1894EC"/>
<path d="M102.159 136.388C102.571 136.952 102.908 137.567 103.161 138.218C103.228 138.386 103.293 138.563 103.355 138.748C104.351 141.725 102.773 145.294 102.322 144.909C101.871 144.524 100.465 143.81 100.193 144.814C99.9212 145.817 98.917 146.843 98.917 146.843C97.0874 148.684 95.4313 146.695 94.3443 144.641C93.9891 143.963 93.6733 143.266 93.3985 142.551C93.1572 141.921 93.0186 141.485 93.0186 141.485L100.639 134.992C100.639 134.992 101.376 135.33 102.159 136.388Z" fill="#1894EC"/>
<path d="M90.1485 140.54C90.5603 141.104 90.8971 141.719 91.1504 142.37C91.2174 142.538 91.2829 142.715 91.3449 142.9C92.3409 145.877 90.7628 149.446 90.3116 149.061C89.8604 148.676 88.4545 147.962 88.1826 148.965C87.9108 149.969 86.9066 150.995 86.9066 150.995C85.077 152.836 83.4209 150.847 82.3339 148.793C81.9787 148.115 81.6629 147.417 81.3881 146.703C81.1467 146.072 81.0081 145.636 81.0081 145.636L88.6286 139.144C88.6286 139.144 89.3653 139.482 90.1485 140.54Z" fill="#1894EC"/>
<path d="M66.0328 146.275C65.99 146.972 65.8568 147.661 65.6365 148.324C65.5807 148.496 65.5183 148.674 65.4477 148.856C64.3148 151.783 60.822 153.524 60.7203 152.94C60.6187 152.355 59.9922 150.908 59.1422 151.508C58.2923 152.107 56.8644 152.256 56.8644 152.256C54.2814 152.505 54.2753 149.917 54.7494 147.642C54.9086 146.894 55.1107 146.155 55.3549 145.43C55.5717 144.79 55.7433 144.366 55.7433 144.366L65.7538 144.23C65.7538 144.23 66.1051 144.961 66.0328 146.275Z" fill="#1894EC"/>
<path d="M53.0986 143.013C53.0558 143.71 52.9226 144.399 52.7024 145.061C52.6465 145.234 52.5842 145.411 52.5136 145.594C51.3807 148.521 47.8878 150.262 47.7862 149.678C47.6845 149.093 47.058 147.646 46.2081 148.245C45.3582 148.845 43.9302 148.994 43.9302 148.994C41.3473 149.243 41.3411 146.655 41.8153 144.38C41.9744 143.631 42.1766 142.893 42.4208 142.168C42.6376 141.528 42.8091 141.104 42.8091 141.104L52.8197 140.968C52.8197 140.968 53.171 141.699 53.0986 143.013Z" fill="#1894EC"/>
<path opacity="0.2" d="M102.159 136.388C102.571 136.952 102.908 137.567 103.161 138.218C103.228 138.386 103.293 138.563 103.355 138.748C104.351 141.725 102.773 145.294 102.322 144.909C101.871 144.524 100.465 143.81 100.193 144.814C99.9212 145.817 98.917 146.843 98.917 146.843C97.0874 148.684 95.4313 146.695 94.3443 144.641C93.9891 143.963 93.6733 143.266 93.3985 142.551C93.1572 141.921 93.0186 141.485 93.0186 141.485L100.639 134.992C100.639 134.992 101.376 135.33 102.159 136.388Z" fill="black"/>
<path opacity="0.2" d="M90.1485 140.54C90.5603 141.104 90.8971 141.719 91.1504 142.37C91.2174 142.538 91.2829 142.715 91.3449 142.9C92.3409 145.877 90.7628 149.446 90.3116 149.061C89.8604 148.676 88.4545 147.962 88.1826 148.965C87.9108 149.969 86.9066 150.995 86.9066 150.995C85.077 152.836 83.4209 150.847 82.3339 148.793C81.9787 148.115 81.6629 147.417 81.3881 146.703C81.1467 146.072 81.0081 145.636 81.0081 145.636L88.6286 139.144C88.6286 139.144 89.3653 139.482 90.1485 140.54Z" fill="black"/>
<path opacity="0.2" d="M66.0328 146.275C65.99 146.972 65.8568 147.661 65.6365 148.324C65.5807 148.496 65.5183 148.674 65.4477 148.856C64.3148 151.783 60.822 153.524 60.7203 152.94C60.6187 152.355 59.9922 150.908 59.1422 151.508C58.2923 152.107 56.8644 152.256 56.8644 152.256C54.2814 152.505 54.2753 149.917 54.7494 147.642C54.9086 146.894 55.1107 146.155 55.3549 145.43C55.5717 144.79 55.7433 144.366 55.7433 144.366L65.7538 144.23C65.7538 144.23 66.1051 144.961 66.0328 146.275Z" fill="black"/>
<path opacity="0.2" d="M53.0986 143.013C53.0558 143.71 52.9226 144.399 52.7024 145.061C52.6465 145.234 52.5842 145.411 52.5136 145.594C51.3807 148.521 47.8878 150.262 47.7862 149.678C47.6845 149.093 47.058 147.646 46.2081 148.245C45.3582 148.845 43.9302 148.994 43.9302 148.994C41.3473 149.243 41.3411 146.655 41.8153 144.38C41.9744 143.631 42.1766 142.893 42.4208 142.168C42.6376 141.528 42.8091 141.104 42.8091 141.104L52.8197 140.968C52.8197 140.968 53.171 141.699 53.0986 143.013Z" fill="black"/>
<path d="M122.486 99.1411C122.486 125.879 113.441 147.554 71.7012 147.554C43.6534 147.554 21.9541 140.585 20.9162 99.1411C20.2467 72.4119 43.6534 50.7285 71.7012 50.7285C99.749 50.7285 122.486 72.4036 122.486 99.1411Z" fill="#1894EC"/>
<path opacity="0.2" d="M62.1744 51.5737H62.1803C62.1789 51.5745 62.1774 51.575 62.1759 51.5752L62.1744 51.5737Z" fill="black"/>
<path opacity="0.2" d="M62.2737 51.5577C62.4027 51.5369 62.6578 51.5013 63.0285 51.4731L62.2025 51.571C62.2144 51.568 62.2292 51.5651 62.247 51.5621C62.2559 51.5606 62.2633 51.5591 62.2737 51.5577Z" fill="black"/>
<path opacity="0.2" d="M99.7998 71.3395L96.0929 72.674C94.2032 70.1398 92.1699 67.716 90.0031 65.4143C87.6381 62.8918 85.0577 60.5803 82.2912 58.5061C72.8 51.4718 65.4587 51.2924 63.0344 51.4733L68.6067 50.8179C73.8731 51.724 78.9378 53.5548 83.5664 56.2256C86.8046 58.0923 89.8205 60.3203 92.5564 62.8669C97.4081 67.3701 99.7998 71.3395 99.7998 71.3395Z" fill="black"/>
<path opacity="0.2" d="M66.2891 73.8599C66.2891 73.8599 61.3959 57.5494 65.5477 53.1011C65.5477 53.1011 72.0719 50.8769 76.965 63.4805L66.2891 73.8599Z" fill="black"/>
<path d="M91.0662 58.6259C91.0662 58.6259 104.042 47.5989 109.783 49.6167C109.783 49.6167 114.438 54.7001 104.857 64.2396L91.0662 58.6259Z" fill="#1894EC"/>
<path opacity="0.2" d="M91.0662 58.6259C91.0662 58.6259 104.042 47.5989 109.783 49.6167C109.783 49.6167 114.438 54.7001 104.857 64.2396L91.0662 58.6259Z" fill="black"/>
<path d="M131.531 111.448C131.531 125.82 121.218 137.174 111.514 137.174C101.81 137.174 96.3894 125.82 96.3894 111.448C96.3894 97.0763 104.272 85.9871 113.96 85.4255C129.307 84.5358 131.531 97.0762 131.531 111.448Z" fill="#1894EC"/>
<path opacity="0.2" d="M131.531 111.448C131.531 125.82 121.218 137.174 111.514 137.174C101.81 137.174 96.3894 125.82 96.3894 111.448C96.3894 97.0763 104.272 85.9871 113.96 85.4255C129.307 84.5358 131.531 97.0762 131.531 111.448Z" fill="black"/>
<path d="M110.921 117.75C112.722 117.75 114.183 115.892 114.183 113.599C114.183 111.306 112.722 109.447 110.921 109.447C109.119 109.447 107.658 111.306 107.658 113.599C107.658 115.892 109.119 117.75 110.921 117.75Z" fill="#1894EC"/>
<path d="M122.486 114.191C124.288 114.191 125.748 112.332 125.748 110.039C125.748 107.747 124.288 105.888 122.486 105.888C120.685 105.888 119.224 107.747 119.224 110.039C119.224 112.332 120.685 114.191 122.486 114.191Z" fill="#1894EC"/>
<path d="M93.1896 60.189C93.1918 61.119 92.9749 62.0364 92.5564 62.8669C92.004 63.9705 91.1079 64.8645 90.0031 65.4143C87.6381 62.8918 85.0577 60.5803 82.2912 58.5061C82.5376 57.659 82.9737 56.8791 83.5663 56.2256C84.0773 55.6559 84.7022 55.1999 85.4005 54.887C86.0988 54.5741 86.855 54.4113 87.6202 54.4092C90.6955 54.4092 93.1896 56.9966 93.1896 60.189Z" fill="#FAD46F"/>
<defs>
<linearGradient id="paint0_linear" x1="168.205" y1="155.86" x2="168.205" y2="55.4062" gradientUnits="userSpaceOnUse">
<stop stop-color="#808080" stop-opacity="0.25"/>
<stop offset="0.53514" stop-color="#808080" stop-opacity="0.12"/>
<stop offset="1" stop-color="#808080" stop-opacity="0.1"/>
</linearGradient>
</defs>
</svg>
