<svg width="211" height="160" viewBox="0 0 211 160" fill="none" xmlns="http://www.w3.org/2000/svg">
<path opacity="0.1" d="M120.168 25.3064C106.96 24.8472 94.3804 20.5839 82.3659 15.9186C70.3515 11.2532 58.4554 6.08578 45.5634 3.61228C37.2715 2.02246 27.7897 1.79797 21.108 6.24292C14.6794 10.5287 12.6018 17.9063 11.4834 24.7595C10.6446 29.9146 10.1507 35.3412 12.4528 40.1678C14.0508 43.5189 16.8896 46.3353 18.8529 49.5435C25.6815 60.711 20.8549 74.4907 13.4569 85.3868C9.98746 90.5032 5.95884 95.3869 3.27921 100.828C0.599585 106.269 -0.639204 112.512 1.70368 118.067C4.0282 123.577 9.56501 127.708 15.563 130.616C27.7428 136.534 42.094 138.214 56.0962 139.171C87.0803 141.292 118.232 140.373 149.297 139.455C160.795 139.114 172.343 138.769 183.655 136.992C189.935 136.006 196.42 134.438 200.98 130.665C206.767 125.863 208.202 117.732 204.325 111.71C197.818 101.609 179.834 99.1012 175.281 88.2623C172.777 82.2949 175.349 75.6499 178.986 70.1152C186.79 58.2456 199.869 47.8312 200.559 34.2637C201.033 24.9452 194.745 15.6124 185.022 11.2022C174.83 6.5817 160.7 7.16334 153.185 14.8124C145.434 22.6799 131.826 25.7146 120.168 25.3064Z" fill="#316099"/>
<path opacity="0.1" d="M118.787 153.916C160.601 153.916 194.498 151.396 194.498 148.288C194.498 145.179 160.601 142.659 118.787 142.659C76.9727 142.659 43.0756 145.179 43.0756 148.288C43.0756 151.396 76.9727 153.916 118.787 153.916Z" fill="#1894EC"/>
<path d="M60.2452 130.057C60.2452 130.057 64.531 129.371 67.1024 132.402C67.1024 132.402 65.2167 133.887 61.1595 131.83L60.2452 130.057Z" fill="#1894EC"/>
<path d="M59.784 130.001C59.784 130.001 57.0513 133.373 58.3921 137.114C58.3921 137.114 60.6207 136.22 60.8636 131.677L59.784 130.001Z" fill="#1894EC"/>
<path d="M57.335 124.457C57.335 124.457 59.0493 121.314 65.9065 125.714C65.9065 125.714 64.9922 127.828 61.9636 127.657C58.935 127.485 58.1309 126.124 57.335 124.457Z" fill="#1894EC"/>
<path d="M56.8881 124.23C56.8881 124.23 53.3309 123.822 52.986 131.967C52.986 131.967 55.2411 132.434 56.8432 129.859C58.4452 127.283 57.784 125.838 56.8881 124.23Z" fill="#1894EC"/>
<path d="M54.8166 117.736C54.8166 117.736 56.8166 112.193 64.0738 116.136C64.0738 116.136 62.4167 121.222 55.5595 119.622L54.8166 117.736Z" fill="#1894EC"/>
<path d="M52.5859 109.45C52.5859 109.45 56.3594 103.848 63.0452 109.042C63.0452 109.042 60.7023 114.299 53.1574 111.442L52.5859 109.45Z" fill="#1894EC"/>
<path d="M51.7859 101.563C51.7859 101.563 56.188 96.4197 62.8167 101.563C62.8167 101.563 58.6452 106.077 51.7859 102.877V101.563Z" fill="#1894EC"/>
<path d="M51.1002 93.9055C51.1002 93.9055 55.5594 88.5339 61.9024 93.6197C61.9024 93.6197 56.8737 98.3626 51.1002 95.1626V93.9055Z" fill="#1894EC"/>
<path d="M51.5002 87.1053C51.5002 87.1053 56.1942 80.1889 62.131 84.8767C62.131 84.8767 57.1023 90.8197 51.5002 88.4196V87.1053Z" fill="#1894EC"/>
<path d="M52.5859 79.1601C52.5859 79.1601 57.5595 72.3028 63.331 77.56C63.331 77.56 57.4452 83.505 52.5859 80.4172V79.1601Z" fill="#1894EC"/>
<path d="M54.2451 72.0602C54.2451 72.0602 60.1309 65.6173 65.2657 68.1826C65.2657 68.1826 59.1309 75.0256 53.988 73.7684L54.2451 72.0602Z" fill="#1894EC"/>
<path d="M56.3023 65.3313C56.3023 65.3313 63.1024 57.4454 67.0453 60.074C67.0453 60.074 62.0412 66.1966 55.8207 66.8088L56.3023 65.3313Z" fill="#1894EC"/>
<path d="M59.2717 57.525C59.2717 57.525 65.2167 51.08 69.5596 52.6801C69.5596 52.6801 64.4738 59.3659 58.4738 59.5373L59.2717 57.525Z" fill="#1894EC"/>
<path d="M61.9595 50.2232C61.9595 50.2232 68.531 44.0497 71.3882 45.1354C71.3882 45.1354 66.6453 51.9947 61.6738 51.5947L61.9595 50.2232Z" fill="#1894EC"/>
<path d="M64.5881 43.4699C64.5881 43.4699 70.2453 36.0983 73.3311 36.6698C73.3311 36.6698 69.9025 43.2413 64.5881 44.2209V43.4699Z" fill="#1894EC"/>
<path d="M67.4412 34.3879C67.4412 34.3879 72.4413 28.7348 75.1413 28.7491C75.1413 28.7491 71.1943 36.3002 67.2351 36.2308L67.4412 34.3879Z" fill="#1894EC"/>
<path d="M69.131 28.3351L73.9597 16.5615C73.9597 16.5615 74.2025 27.2045 68.5168 30.5188L69.131 28.3351Z" fill="#1894EC"/>
<path d="M71.0923 15.3514C71.0923 15.3514 71.8923 5.52267 71.378 4.72266C71.378 4.72266 74.8311 12.886 71.0576 19.6943L71.0923 15.3514Z" fill="#1894EC"/>
<path d="M54.6288 117.604C54.6288 117.604 49.6206 114.499 46.3777 122.093C46.3777 122.093 50.8349 125.051 55.2166 119.54L54.6288 117.604Z" fill="#1894EC"/>
<path d="M52.437 109.134C52.437 109.134 46.294 106.332 43.3123 114.26C43.3123 114.26 48.0593 117.526 52.9961 111.138L52.437 109.134Z" fill="#1894EC"/>
<path d="M51.5002 102.042C51.5002 102.042 47.1002 96.8992 40.4797 102.042C40.4797 102.042 44.6512 106.556 51.5002 103.356V102.042Z" fill="#1894EC"/>
<path d="M50.9512 93.9055C50.9512 93.9055 46.494 88.5339 40.149 93.6197C40.149 93.6197 45.1797 98.3626 50.9512 95.1626V93.9055Z" fill="#1894EC"/>
<path d="M51.5002 87.3013C51.5002 87.3013 48.3736 79.5461 41.5776 82.8869C41.5776 82.8869 45.2512 89.7543 51.2247 88.5849L51.5002 87.3013Z" fill="#1894EC"/>
<path d="M52.9798 79.1212C52.9798 79.1212 49.8737 71.2415 42.9797 74.8966C42.9797 74.8966 47.2002 82.1192 52.6737 80.3396L52.9798 79.1212Z" fill="#1894EC"/>
<path d="M54.9064 72.1008C54.9064 72.1008 53.6819 63.462 47.9675 62.6885C47.9675 62.6885 49.1777 71.7988 54.135 73.658L54.9064 72.1008Z" fill="#1894EC"/>
<path d="M56.4472 65.3457C56.4472 65.3457 55.9697 54.9374 51.2451 54.5762C51.2451 54.5762 51.4043 62.4763 55.9146 66.8212L56.4472 65.3457Z" fill="#1894EC"/>
<path d="M59.7616 57.2271C59.7616 57.2271 58.3513 48.5719 53.8431 47.5127C53.8431 47.5127 54.4023 55.8965 59.3166 59.3496L59.7616 57.2271Z" fill="#1894EC"/>
<path d="M62.4942 50.2843C62.4942 50.2843 62.4452 41.2699 59.6921 39.9434C59.6921 39.9434 57.9819 48.1067 61.6962 51.4353L62.4942 50.2843Z" fill="#1894EC"/>
<path d="M64.7983 43.3781C64.7983 43.3781 64.4126 34.0943 61.5595 32.7861C61.5595 32.7861 60.5819 40.1332 64.3697 43.9863L64.7983 43.3781Z" fill="#1894EC"/>
<path d="M67.8392 35.1272C67.8392 35.1272 67.8208 27.5761 65.7861 25.8066C65.7861 25.8066 63.7595 34.0782 66.7759 36.6476L67.8392 35.1272Z" fill="#1894EC"/>
<path d="M68.8902 27.9597L66.9106 15.3901C66.9106 15.3901 64.2187 25.6882 68.9861 30.225L68.8902 27.9597Z" fill="#1894EC"/>
<path d="M69.278 15.4716C69.278 15.4716 64.1922 7.02253 64.2963 6.08374C64.2963 6.08374 64.8371 14.939 71.2351 19.3492L69.278 15.4716Z" fill="#1894EC"/>
<path d="M69.8739 12.9757C69.8739 12.9757 65.0738 0.975523 62.9024 0C62.9024 0 69.7596 3.48576 70.2739 12.6287L69.8739 12.9757Z" fill="#1894EC"/>
<path d="M67.2086 36.3024L66.882 36.2004C70.9331 22.9921 71.9433 14.5675 69.727 12.4572L69.9637 12.2083C72.3127 14.4369 71.3596 22.7676 67.2086 36.3024Z" fill="#444053"/>
<path d="M56.0554 67.2234L55.5697 67.052C55.9982 65.8417 56.4635 64.6131 56.9493 63.4029C61.1779 52.8579 64.7759 43.0619 67.0841 35.5332L67.5065 35.3291C65.1943 42.8578 61.6595 53.0416 57.4268 63.5948C56.9431 64.7989 56.4819 66.0193 56.0554 67.2234Z" fill="#444053"/>
<path d="M66.2759 139.944C66.2106 139.871 59.6432 132.479 55.0676 119.854C52.3843 112.465 50.8895 104.697 50.639 96.8399C50.3267 87.0173 52.3859 76.0478 55.9186 66.0864L56.3023 66.5354C48.3757 88.8949 51.5247 108.056 55.7023 119.593C60.2309 132.102 66.7228 139.414 66.7861 139.487L66.2759 139.944Z" fill="#444053"/>
<path d="M37.6613 138.332C37.6613 138.332 29.8959 137.865 30.8122 143.306C30.8122 143.306 30.6306 144.267 31.502 144.704C31.502 144.704 31.5143 144.296 32.298 144.436C32.5763 144.483 32.8592 144.497 33.1408 144.477C33.522 144.452 33.8845 144.303 34.1735 144.053C34.1735 144.053 36.3551 143.151 37.2041 139.583C37.2041 139.583 37.8327 138.806 37.8062 138.606L36.496 139.165C36.496 139.165 36.9449 140.11 36.5919 140.896C36.5919 140.896 36.549 139.2 36.298 139.238C36.247 139.238 35.6164 139.567 35.6164 139.567C35.6164 139.567 36.3878 141.214 35.8062 142.41C35.8062 142.41 36.0266 140.381 35.3776 139.685L34.4551 140.224C34.4551 140.224 35.3551 141.924 34.7449 143.312C34.7449 143.312 34.9 141.183 34.2612 140.355L33.4245 141.008C33.4245 141.008 34.2694 142.683 33.7551 143.834C33.7551 143.834 33.6878 141.357 33.2429 141.169C33.2429 141.169 32.5122 141.814 32.4 142.079C32.4 142.079 32.9796 143.304 32.6204 143.938C32.6204 143.938 32.4 142.287 32.2122 142.279C32.2122 142.279 31.4837 143.373 31.4081 144.116C31.4434 143.423 31.6594 142.752 32.0347 142.169C31.6148 142.249 31.2274 142.449 30.9204 142.747C30.9204 142.747 31.0326 141.973 32.2143 141.906C32.2143 141.906 32.8265 141.075 32.9776 141.024C32.9776 141.024 31.802 140.926 31.0898 141.243C31.0898 141.243 31.7163 140.514 33.1939 140.834L34.0102 140.161C34.0102 140.161 32.4633 139.957 31.8061 140.183C31.8061 140.183 32.5612 139.538 34.2327 140.008L35.1306 139.471C35.1306 139.471 33.8123 139.187 33.0245 139.289C33.0245 139.289 33.8551 138.843 35.3939 139.326L36.0368 139.038C36.0368 139.038 35.0694 138.849 34.7878 138.818C34.5061 138.787 34.4878 138.71 34.4878 138.71C35.1004 138.608 35.7294 138.679 36.3041 138.914C36.3041 138.914 37.6837 138.418 37.6613 138.332Z" fill="#1894EC"/>
<path d="M15.0896 140.857C15.0896 140.857 7.33435 140.389 8.24253 145.83C8.24253 145.83 8.05885 146.791 8.93029 147.228C8.93029 147.228 8.94458 146.82 9.72826 146.961C10.0065 147.009 10.2896 147.022 10.5711 147.002C10.9518 146.977 11.3138 146.827 11.6018 146.577C11.6018 146.577 13.7855 145.675 14.6344 142.108C14.6344 142.108 15.261 141.33 15.2467 141.13L13.9365 141.689C13.9365 141.689 14.3855 142.634 14.0324 143.42C14.0324 143.42 13.9895 141.724 13.7385 141.763C13.6875 141.763 13.0569 142.091 13.0569 142.091C13.0569 142.091 13.8283 143.738 13.2467 144.934C13.2467 144.934 13.4671 142.906 12.8161 142.21L11.8936 142.749C11.8936 142.749 12.7936 144.449 12.1834 145.836C12.1834 145.836 12.3405 143.708 11.6997 142.879L10.865 143.532C10.865 143.532 11.7099 145.208 11.1956 146.359C11.1956 146.359 11.1283 143.881 10.6834 143.694C10.6834 143.694 9.95275 144.338 9.84051 144.604C9.84051 144.604 10.4201 145.828 10.0609 146.463C10.0609 146.463 9.84051 144.812 9.65275 144.804C9.65275 144.804 8.92621 145.898 8.84866 146.64C8.88512 145.948 9.10179 145.277 9.47724 144.694C9.0568 144.773 8.66879 144.974 8.3609 145.271C8.3609 145.271 8.47518 144.498 9.65683 144.43C9.65683 144.43 10.2691 143.6 10.4201 143.551C10.4201 143.551 9.24458 143.451 8.53233 143.767C8.53233 143.767 9.15886 143.038 10.6364 143.359L11.4528 142.685C11.4528 142.685 9.90581 142.481 9.24866 142.708C9.24866 142.708 10.0038 142.063 11.6752 142.532L12.5732 141.996C12.5732 141.996 11.2528 141.712 10.467 141.814C10.467 141.814 11.2977 141.367 12.8365 141.851L13.4793 141.563C13.4793 141.563 12.512 141.373 12.2283 141.342C11.9446 141.312 11.9303 141.234 11.9303 141.234C12.543 141.134 13.1716 141.204 13.7467 141.438C13.7467 141.438 15.1059 140.942 15.0896 140.857Z" fill="#1894EC"/>
<path d="M27.6693 146.783C27.6693 146.783 19.9141 146.316 20.8202 151.757C20.8202 151.757 20.6386 152.718 21.51 153.155C21.51 153.155 21.5243 152.747 22.306 152.888C22.585 152.935 22.8686 152.948 23.1509 152.928C23.5314 152.902 23.8931 152.753 24.1815 152.504C24.1815 152.504 26.3632 151.602 27.2122 148.035C27.2122 148.035 27.8407 147.257 27.8244 147.057L26.5142 147.616C26.5142 147.616 26.9611 148.561 26.6101 149.347C26.6101 149.347 26.5673 147.651 26.3142 147.69C26.2632 147.69 25.6346 148.018 25.6346 148.018C25.6346 148.018 26.404 149.663 25.8223 150.861C25.8223 150.861 26.0428 148.832 25.3938 148.137L24.4713 148.675C24.4713 148.675 25.3713 150.375 24.7611 151.763C24.7611 151.763 24.9183 149.635 24.2774 148.806L23.4407 149.459C23.4407 149.459 24.2876 151.135 23.7713 152.286C23.7713 152.286 23.7039 149.808 23.2611 149.62C23.2611 149.62 22.5284 150.265 22.4182 150.53C22.4182 150.53 22.9978 151.755 22.6366 152.39C22.6366 152.39 22.4162 150.739 22.2284 150.73C22.2284 150.73 21.4998 151.824 21.4243 152.567C21.4596 151.875 21.6756 151.203 22.0509 150.62C21.631 150.7 21.2436 150.901 20.9366 151.198C20.9366 151.198 21.0488 150.424 22.2325 150.357C22.2325 150.357 22.8325 149.526 22.9937 149.475C22.9937 149.475 21.8182 149.377 21.106 149.694C21.106 149.694 21.7345 148.965 23.2101 149.296L24.0264 148.622C24.0264 148.622 22.4794 148.418 21.8223 148.645C21.8223 148.645 22.5794 148 24.2489 148.469L25.1489 147.932C25.1489 147.932 23.8366 147.655 23.0488 147.757C23.0488 147.757 23.8774 147.31 25.4183 147.794L26.0591 147.506C26.0591 147.506 25.0938 147.316 24.8101 147.286C24.5264 147.255 24.5121 147.177 24.5121 147.177C25.1248 147.075 25.7537 147.146 26.3285 147.381C26.3285 147.381 27.6918 146.869 27.6693 146.783Z" fill="#1894EC"/>
<path opacity="0.1" d="M21.6162 154.655C24.6515 154.655 27.1122 154.239 27.1122 153.726C27.1122 153.214 24.6515 152.798 21.6162 152.798C18.5808 152.798 16.1202 153.214 16.1202 153.726C16.1202 154.239 18.5808 154.655 21.6162 154.655Z" fill="#1894EC"/>
<path opacity="0.1" d="M195.941 154.655C198.976 154.655 201.437 154.239 201.437 153.726C201.437 153.214 198.976 152.798 195.941 152.798C192.905 152.798 190.445 153.214 190.445 153.726C190.445 154.239 192.905 154.655 195.941 154.655Z" fill="#1894EC"/>
<path opacity="0.1" d="M143.31 160C146.345 160 148.806 159.584 148.806 159.072C148.806 158.559 146.345 158.143 143.31 158.143C140.274 158.143 137.814 158.559 137.814 159.072C137.814 159.584 140.274 160 143.31 160Z" fill="#1894EC"/>
<path opacity="0.1" d="M204.633 146.606C207.668 146.606 210.129 146.19 210.129 145.678C210.129 145.165 207.668 144.749 204.633 144.749C201.597 144.749 199.137 145.165 199.137 145.678C199.137 146.19 201.597 146.606 204.633 146.606Z" fill="#1894EC"/>
<path opacity="0.1" d="M32.3122 146.026C35.3475 146.026 37.8082 145.61 37.8082 145.098C37.8082 144.585 35.3475 144.169 32.3122 144.169C29.2768 144.169 26.8162 144.585 26.8162 145.098C26.8162 145.61 29.2768 146.026 32.3122 146.026Z" fill="#1894EC"/>
<path opacity="0.1" d="M9.73438 148.633C12.7697 148.633 15.2304 148.217 15.2304 147.704C15.2304 147.191 12.7697 146.775 9.73438 146.775C6.69903 146.775 4.23839 147.191 4.23839 147.704C4.23839 148.217 6.69903 148.633 9.73438 148.633Z" fill="#1894EC"/>
<path d="M148.277 16.2778H64.2453C63.1407 16.2778 62.2452 17.1733 62.2452 18.2779V145.173C62.2452 146.278 63.1407 147.173 64.2453 147.173H148.277C149.382 147.173 150.277 146.278 150.277 145.173V18.2779C150.277 17.1733 149.382 16.2778 148.277 16.2778Z" fill="#3A3768"/>
<path opacity="0.1" d="M137.348 27.5288H76.2638C72.9715 27.5288 70.3025 30.1978 70.3025 33.4901V47.3005C70.3025 50.5928 72.9715 53.2618 76.2638 53.2618H137.348C140.641 53.2618 143.31 50.5928 143.31 47.3005V33.4901C143.31 30.1978 140.641 27.5288 137.348 27.5288Z" fill="black"/>
<path d="M140.591 28.0308H72.8535C71.7039 28.0308 70.7719 28.9628 70.7719 30.1124V50.8372C70.7719 51.9868 71.7039 52.9188 72.8535 52.9188H140.591C141.741 52.9188 142.673 51.9868 142.673 50.8372V30.1124C142.673 28.9628 141.741 28.0308 140.591 28.0308Z" fill="#E6E8EC"/>
<path opacity="0.1" d="M85.1619 63.9805H75.0474C73.8313 63.9805 72.8454 64.9664 72.8454 66.1825V77.9092C72.8454 79.1254 73.8313 80.1113 75.0474 80.1113H85.1619C86.378 80.1113 87.3639 79.1254 87.3639 77.9092V66.1825C87.3639 64.9664 86.378 63.9805 85.1619 63.9805Z" fill="black"/>
<path opacity="0.1" d="M102.907 63.9805H92.7926C91.5764 63.9805 90.5905 64.9664 90.5905 66.1825V77.9092C90.5905 79.1254 91.5764 80.1113 92.7926 80.1113H102.907C104.123 80.1113 105.109 79.1254 105.109 77.9092V66.1825C105.109 64.9664 104.123 63.9805 102.907 63.9805Z" fill="black"/>
<path opacity="0.1" d="M120.652 63.9805H110.538C109.322 63.9805 108.336 64.9664 108.336 66.1825V77.9092C108.336 79.1254 109.322 80.1113 110.538 80.1113H120.652C121.868 80.1113 122.854 79.1254 122.854 77.9092V66.1825C122.854 64.9664 121.868 63.9805 120.652 63.9805Z" fill="black"/>
<path opacity="0.1" d="M134.714 64.3232H131.967C128.716 64.3232 126.081 66.9584 126.081 70.209V74.5683C126.081 77.8189 128.716 80.4541 131.967 80.4541H134.714C137.964 80.4541 140.599 77.8189 140.599 74.5683V70.209C140.599 66.9584 137.964 64.3232 134.714 64.3232Z" fill="black"/>
<path d="M138.397 63.9805H128.283C127.067 63.9805 126.081 64.9664 126.081 66.1825V77.9092C126.081 79.1254 127.067 80.1113 128.283 80.1113H138.397C139.613 80.1113 140.599 79.1254 140.599 77.9092V66.1825C140.599 64.9664 139.613 63.9805 138.397 63.9805Z" fill="#1894EC"/>
<path opacity="0.1" d="M85.1619 81.7256H75.0474C73.8313 81.7256 72.8454 82.7115 72.8454 83.9277V95.6543C72.8454 96.8705 73.8313 97.8564 75.0474 97.8564H85.1619C86.378 97.8564 87.3639 96.8705 87.3639 95.6543V83.9277C87.3639 82.7115 86.378 81.7256 85.1619 81.7256Z" fill="black"/>
<path opacity="0.1" d="M102.907 81.7256H92.7926C91.5764 81.7256 90.5905 82.7115 90.5905 83.9277V95.6543C90.5905 96.8705 91.5764 97.8564 92.7926 97.8564H102.907C104.123 97.8564 105.109 96.8705 105.109 95.6543V83.9277C105.109 82.7115 104.123 81.7256 102.907 81.7256Z" fill="black"/>
<path opacity="0.1" d="M120.652 81.7256H110.538C109.322 81.7256 108.336 82.7115 108.336 83.9277V95.6543C108.336 96.8705 109.322 97.8564 110.538 97.8564H120.652C121.868 97.8564 122.854 96.8705 122.854 95.6543V83.9277C122.854 82.7115 121.868 81.7256 120.652 81.7256Z" fill="black"/>
<path opacity="0.1" d="M85.1619 101.313H75.0474C73.8313 101.313 72.8454 102.299 72.8454 103.516V115.242C72.8454 116.458 73.8313 117.444 75.0474 117.444H85.1619C86.378 117.444 87.3639 116.458 87.3639 115.242V103.516C87.3639 102.299 86.378 101.313 85.1619 101.313Z" fill="black"/>
<path opacity="0.1" d="M102.907 101.313H92.7926C91.5764 101.313 90.5905 102.299 90.5905 103.516V115.242C90.5905 116.458 91.5764 117.444 92.7926 117.444H102.907C104.123 117.444 105.109 116.458 105.109 115.242V103.516C105.109 102.299 104.123 101.313 102.907 101.313Z" fill="black"/>
<path opacity="0.1" d="M120.652 101.313H110.538C109.322 101.313 108.336 102.299 108.336 103.516V115.242C108.336 116.458 109.322 117.444 110.538 117.444H120.652C121.868 117.444 122.854 116.458 122.854 115.242V103.516C122.854 102.299 121.868 101.313 120.652 101.313Z" fill="black"/>
<path opacity="0.1" d="M120.652 120.901H110.538C109.322 120.901 108.336 121.887 108.336 123.103V134.83C108.336 136.046 109.322 137.032 110.538 137.032H120.652C121.868 137.032 122.854 136.046 122.854 134.83V123.103C122.854 121.887 121.868 120.901 120.652 120.901Z" fill="black"/>
<path opacity="0.1" d="M134.714 82.0684H131.967C128.716 82.0684 126.081 84.7035 126.081 87.9542V92.3134C126.081 95.564 128.716 98.1992 131.967 98.1992H134.714C137.964 98.1992 140.599 95.564 140.599 92.3134V87.9542C140.599 84.7035 137.964 82.0684 134.714 82.0684Z" fill="black"/>
<path d="M138.293 81.7256H128.387C127.113 81.7256 126.081 82.7581 126.081 84.0317V95.5503C126.081 96.8239 127.113 97.8564 128.387 97.8564H138.293C139.567 97.8564 140.599 96.8239 140.599 95.5503V84.0317C140.599 82.7581 139.567 81.7256 138.293 81.7256Z" fill="#1894EC"/>
<path opacity="0.2" d="M138.293 81.7256H128.387C127.113 81.7256 126.081 82.7581 126.081 84.0317V95.5503C126.081 96.8239 127.113 97.8564 128.387 97.8564H138.293C139.567 97.8564 140.599 96.8239 140.599 95.5503V84.0317C140.599 82.7581 139.567 81.7256 138.293 81.7256Z" fill="black"/>
<path opacity="0.1" d="M103.06 120.901H74.8944C73.7627 120.901 72.8454 121.819 72.8454 122.95V134.983C72.8454 136.115 73.7627 137.032 74.8944 137.032H103.06C104.192 137.032 105.109 136.115 105.109 134.983V122.95C105.109 121.819 104.192 120.901 103.06 120.901Z" fill="black"/>
<path opacity="0.1" d="M138.218 101.313H127.077C125.762 101.313 124.697 102.379 124.697 103.693V134.655C124.697 135.969 125.762 137.034 127.077 137.034H138.218C139.532 137.034 140.597 135.969 140.597 134.655V103.693C140.597 102.379 139.532 101.313 138.218 101.313Z" fill="black"/>
<path d="M139.444 48.5723H133.089V49.26H139.444V48.5723Z" fill="#1894EC"/>
<path d="M130.14 48.5723H123.785V49.26H130.14V48.5723Z" fill="#1894EC"/>
<path d="M120.834 48.5723H114.479V49.26H120.834V48.5723Z" fill="#1894EC"/>
<path d="M111.53 48.5723H105.174V49.26H111.53V48.5723Z" fill="#1894EC"/>
<path d="M180.028 96.8505C180.683 94.6464 180.028 92.4422 180.028 92.4422V90.3626C180.028 90.3626 180.777 86.2973 177.434 83.6891L175.218 81.7339C175.218 81.7339 173.975 80.6666 173.614 80.5992C173.547 80.5847 173.479 80.5745 173.41 80.5686L173.345 80.5298C173.154 80.2041 172.992 79.8627 172.859 79.5094C173.002 79.528 173.148 79.5134 173.285 79.4666C173.422 79.4199 173.546 79.3424 173.649 79.24C173.729 79.1479 173.792 79.0421 173.834 78.9278C173.963 78.64 173.985 78.291 174.094 77.9849C174.188 77.7367 174.327 77.5073 174.502 77.3074C174.479 77.3441 174.455 77.3788 174.434 77.4176C174.749 77.0257 175.159 76.691 175.455 76.2788C175.514 76.197 175.567 76.1118 175.616 76.0237C175.604 76.042 175.588 76.0584 175.573 76.0767C175.981 75.4216 176.106 74.6277 176.224 73.8624C176.281 73.602 176.285 73.3327 176.236 73.0706C176.179 72.8966 176.105 72.7285 176.016 72.5685C175.534 71.5746 175.543 70.3236 174.773 69.5297C174.194 68.9358 173.316 68.7542 172.49 68.6521C171.663 68.5501 170.794 68.4909 170.083 68.0583C169.885 67.908 169.666 67.7876 169.432 67.7011C169.315 67.6602 169.187 67.6614 169.07 67.7046C168.954 67.7478 168.856 67.8303 168.794 67.9379C168.779 68.0016 168.749 68.0609 168.708 68.1113C168.671 68.1323 168.63 68.1445 168.587 68.147C168.545 68.1495 168.502 68.1422 168.463 68.1256L167.363 67.8317L167.375 67.8868H167.347L167.387 68.0603C167.409 68.0565 167.431 68.0603 167.45 68.0711C167.469 68.082 167.484 68.099 167.491 68.1195L167.314 68.393C166.974 68.3867 166.637 68.3176 166.322 68.1889C166.32 68.2065 166.32 68.2243 166.322 68.2419H166.306C166.285 68.5521 166.638 68.7542 166.747 69.046C166.79 69.1737 166.79 69.3122 166.747 69.4399C166.702 69.5584 166.633 69.6656 166.542 69.7542C166.153 70.1399 165.653 70.0644 165.204 70.3073C165.165 70.3238 165.13 70.3487 165.102 70.38C165.074 70.4114 165.053 70.4486 165.04 70.4889C165.023 70.5191 165.018 70.555 165.026 70.5889C165.044 70.6358 165.076 70.6758 165.118 70.7032C165.249 70.8089 165.392 70.898 165.545 70.9685C165.5 71.0093 165.457 71.0501 165.416 71.093C164.846 71.6721 164.429 72.3834 164.201 73.1632C163.973 73.943 163.942 74.7672 164.11 75.562C164.279 76.3568 164.641 77.0975 165.166 77.718C165.69 78.3384 166.36 78.8193 167.116 79.1176C167.132 79.2033 167.145 79.2911 167.157 79.3829C167.157 79.3931 167.157 79.3992 167.157 79.4094L167.169 79.5278L165.687 80.1584C165.464 80.1567 165.245 80.0915 165.058 79.9705C164.87 79.8494 164.72 79.6775 164.626 79.4747C164.281 78.7625 163.063 79.4747 163.063 79.4747C163.063 79.4747 159.346 79.1972 157.961 79.8829C157.961 79.8829 155.742 78.9523 155.43 78.889C155.118 78.8257 154.651 78.5788 154.432 78.6421C154.214 78.7053 153.932 78.2339 153.775 78.2686C153.618 78.3033 153.557 77.9584 153.057 77.8339C152.557 77.7094 152.369 77.8665 151.808 77.3074C151.246 76.7482 146.683 74.5441 146.683 74.5441L144.634 72.8583L142.448 71.1195L142.41 71.191C142.395 71.1399 142.381 71.0869 142.367 71.0297C142.149 70.1635 141.877 69.3121 141.55 68.4807C141.41 68.144 141.346 67.7195 141.156 67.944C141.04 68.0787 140.842 67.7827 140.544 67.5827C140.481 67.5391 140.409 67.5101 140.333 67.4978C140.257 67.4856 140.18 67.4904 140.106 67.5119C140.032 67.5334 139.964 67.5711 139.907 67.6221C139.85 67.6732 139.805 67.7365 139.775 67.8072C138.073 70.4767 137.463 70.6644 138.448 71.6461C139.328 72.5175 139.912 73.2787 140.628 73.5196L140.714 73.5461C140.698 73.5502 140.682 73.5502 140.667 73.5461L144.822 78.5135C144.822 78.5135 147.82 81.1217 149.883 81.9584C151.946 82.7952 151.787 83.0462 151.787 83.0462C151.787 83.0462 158.036 86.2116 159.004 86.1503C159.971 86.0891 159.785 92.6382 159.379 93.7014C158.973 94.7647 158.318 102.393 158.318 102.393C158.318 102.393 157.691 104.008 158.349 105.124C158.349 105.124 158.493 107.263 158.363 107.777C157.793 108.655 156.981 110.145 156.848 111.677C156.848 111.759 156.832 111.834 156.824 111.914C156.782 111.962 156.733 112.003 156.677 112.034L156.816 111.994C156.757 112.632 156.62 113.262 156.408 113.867C156.077 114.717 155.902 115.62 155.891 116.532V121.463L155.483 124.524C155.483 124.524 154.983 126.841 155.483 127.381C155.694 127.651 155.792 127.992 155.757 128.332C155.736 128.728 155.848 129.119 156.075 129.443C156.162 129.538 156.225 129.651 156.261 129.775C156.296 129.898 156.303 130.029 156.279 130.155C156.114 130.692 156.524 136.404 156.524 136.404C156.524 136.404 156.404 137.978 156.238 138.061C156.073 138.145 156.524 139.882 156.524 139.882C156.524 139.882 154.836 141.29 155.267 142.035L155.697 142.696L155.583 142.808L155.514 142.88C155.384 142.805 155.232 142.776 155.083 142.798C154.553 143.341 153.985 143.846 153.385 144.31C152.624 144.859 150.552 145.655 150.552 145.655L148.92 145.788H148.889C148.889 145.788 148.108 145.714 148.546 146.925C148.985 148.135 152.908 147.763 152.908 147.763L155.197 147.402C155.197 147.402 159.279 147.423 160.449 147.163C160.936 147.055 161.061 146.794 161.02 146.531L161.008 146.518C160.952 146.267 160.837 146.033 160.673 145.835C160.665 145.822 160.655 145.809 160.644 145.798L160.718 144.961C162.451 143.963 160.228 142 160.228 142C160.228 142 160.989 140.345 161.379 139.808C161.769 139.271 161.769 131.363 161.769 131.363C161.769 131.363 161.973 128.506 161.436 127.845C161.427 127.629 161.476 127.416 161.579 127.226C161.682 127.037 161.834 126.879 162.02 126.769C162.406 126.506 163.571 122.879 164.485 119.869L165.061 123.416C165.061 123.416 164.936 125.114 165.31 125.61C165.38 125.703 165.43 125.811 165.457 125.924C165.483 126.038 165.486 126.156 165.465 126.271C165.376 126.747 165.405 127.237 165.549 127.7C165.592 127.898 165.699 128.077 165.853 128.21C166.185 128.375 166.206 128.965 166.33 129.09C166.455 129.214 167.226 128.914 167.267 129.369C167.29 129.769 167.29 130.17 167.267 130.569L167.518 137.937C167.518 137.937 167.11 138.549 167.018 140.182C166.983 140.878 166.853 141.273 166.718 141.5C166.643 141.622 166.609 141.764 166.62 141.906C166.631 142.048 166.687 142.183 166.779 142.292L166.851 142.376L166.542 142.612C166.419 142.708 166.332 142.845 166.297 142.997C166.262 143.15 166.281 143.311 166.351 143.451C166.251 143.538 166.18 143.652 166.146 143.779C166.112 143.906 166.117 144.041 166.161 144.165C166.173 144.206 166.191 144.245 166.214 144.282C165.98 144.318 165.763 144.426 165.591 144.59C165.284 145.013 164.913 145.386 164.491 145.696C163.88 146.164 163.295 146.666 162.738 147.198C162.476 147.555 162.124 147.837 161.718 148.014C161.618 148.055 161.515 148.086 161.41 148.106C160.593 148.274 160.849 149.127 161.514 149.267C162.179 149.408 164.387 150.084 166.106 149.69C166.106 149.69 166.616 149.894 167.365 149.514C168.114 149.135 169.785 148.669 169.785 148.669C169.785 148.669 170.722 148.669 170.849 148.298C170.882 148.18 170.899 148.058 170.902 147.935L170.928 147.908L170.904 147.886C170.906 147.608 170.885 147.33 170.841 147.055C170.816 146.912 170.789 146.786 170.765 146.684C170.685 146.374 170.536 145.971 170.473 145.802C170.484 145.789 170.493 145.774 170.502 145.759C170.859 145.147 170.265 143.694 170.265 143.694C170.46 143.384 170.697 143.104 170.969 142.859C171.302 142.61 172.177 136.153 172.177 136.153C172.177 136.153 172.134 134.498 172.585 133.753C173.036 133.008 171.961 128.498 171.961 128.498C171.961 128.498 171.502 127.463 171.669 127.09C171.836 126.716 171.502 125.351 171.502 125.351V123.718C171.501 123.524 171.468 123.331 171.406 123.147C171.277 122.763 171.087 122.026 171.294 121.498C171.585 120.753 172.251 116.159 172.251 116.159C172.251 116.159 171.73 114.132 172.494 112.518C172.553 112.389 172.621 112.264 172.698 112.145C173.263 111.257 173.094 109.679 172.814 108.408C172.773 108.204 172.726 108.02 172.679 107.842C172.661 107.765 172.641 107.691 172.62 107.618L172.71 107.581C172.71 107.581 172.71 107.461 172.738 107.255C173.047 107.194 173.339 107.07 173.597 106.891C173.856 106.713 174.075 106.483 174.241 106.216C174.241 106.216 176.147 104.073 177.832 103.173C179.518 102.273 179.645 100.969 179.645 100.969C179.396 100.534 180.092 98.7648 180.092 98.7648L180.028 96.8505ZM174.53 99.7076L172.726 101.8V101.787C172.257 101.134 173.163 99.675 173.163 99.675L174.663 96.328C174.651 96.7566 174.598 97.1443 174.459 97.3137C174.051 97.8729 175.21 98.8056 175.21 98.8056C174.592 98.8076 174.53 99.7076 174.53 99.7076Z" fill="url(#paint0_linear)"/>
<path d="M142.767 72.2807L141.781 74.193C141.469 74.1663 141.161 74.1019 140.865 74.0011C140.395 73.8608 139.96 73.6223 139.588 73.3014C139.217 72.9806 138.918 72.5847 138.712 72.1399C137.832 70.197 139.287 68.9419 139.965 68.5705C140.642 68.199 141.273 67.7766 141.781 68.995C142.1 69.8216 142.366 70.6675 142.579 71.5276C142.697 71.9746 142.767 72.2807 142.767 72.2807Z" fill="#CC818C"/>
<path d="M174.071 82.2276L172.498 84.5705C172.498 84.5705 165.063 88.1175 166.483 83.9582C167.108 82.1215 167.181 80.7806 167.069 79.852C167.069 79.8418 167.069 79.8357 167.069 79.8255C166.922 78.6643 166.485 78.1602 166.485 78.1602C166.485 78.1602 173.732 74.4499 172.653 76.9867C172.432 77.5139 172.345 78.0872 172.398 78.6561C172.487 79.4756 172.753 80.2659 173.177 80.9725C173.432 81.4197 173.732 81.8402 174.071 82.2276Z" fill="#CC818C"/>
<path d="M171.808 128.638C171.808 128.638 172.877 133.128 172.42 133.861C171.963 134.593 172.012 136.246 172.012 136.246C172.012 136.246 171.149 142.663 170.82 142.908C170.55 143.146 170.315 143.421 170.12 143.724C170.12 143.724 170.708 145.177 170.355 145.777C170.3 145.869 170.218 145.94 170.12 145.981C169.569 146.214 167.532 145.181 166.373 144.553C166.28 144.502 166.2 144.429 166.141 144.34C166.082 144.252 166.045 144.151 166.033 144.045C166.021 143.939 166.036 143.832 166.074 143.733C166.113 143.634 166.175 143.545 166.255 143.475C166.185 143.336 166.166 143.177 166.2 143.025C166.234 142.873 166.32 142.738 166.442 142.642L166.749 142.406L166.677 142.322C166.586 142.214 166.53 142.079 166.519 141.938C166.508 141.797 166.542 141.655 166.616 141.534C166.749 141.312 166.877 140.922 166.912 140.226C166.996 138.622 167.406 138.006 167.406 138.006L167.159 130.683C167.182 130.286 167.182 129.888 167.159 129.491C167.118 129.04 166.357 129.338 166.234 129.214C166.112 129.089 166.089 128.506 165.761 128.34C165.609 128.207 165.505 128.029 165.463 127.832C165.318 127.37 165.289 126.879 165.379 126.404C165.4 126.289 165.398 126.172 165.371 126.059C165.345 125.946 165.296 125.839 165.226 125.746C164.857 125.252 164.979 123.569 164.979 123.569L164.412 120.042C163.508 123.034 162.359 126.638 161.977 126.899C161.794 127.009 161.644 127.166 161.543 127.354C161.441 127.542 161.393 127.754 161.402 127.967C161.936 128.626 161.73 131.465 161.73 131.465C161.73 131.465 161.73 139.318 161.344 139.855C160.959 140.391 160.212 142.042 160.212 142.042C160.212 142.042 162.416 144.004 160.681 144.994H160.663C158.893 145.981 155.234 143.226 155.234 143.226L155.616 142.845L155.728 142.732L155.295 142.087C154.871 141.347 156.536 139.949 156.536 139.949C156.536 139.949 156.091 138.22 156.255 138.138C156.418 138.057 156.536 136.493 156.536 136.493C156.536 136.493 156.128 130.818 156.295 130.283C156.318 130.157 156.311 130.028 156.276 129.905C156.24 129.783 156.177 129.67 156.091 129.575C155.867 129.253 155.756 128.865 155.777 128.473C155.813 128.135 155.715 127.796 155.506 127.528C155.012 126.993 155.506 124.691 155.506 124.691L155.914 121.646V116.812C155.919 115.878 156.094 114.954 156.43 114.083C156.679 113.377 156.831 112.64 156.879 111.893C157.014 110.334 157.853 108.82 158.416 107.956C158.714 107.499 158.936 107.226 158.936 107.226L172.096 106.711C172.096 106.711 172.3 107.297 172.52 108.111C172.565 108.289 172.61 108.477 172.653 108.673C172.928 109.938 173.094 111.505 172.536 112.387C172.461 112.507 172.393 112.631 172.332 112.758C171.579 114.363 172.094 116.377 172.094 116.377C172.094 116.377 171.436 120.94 171.149 121.683C170.945 122.208 171.132 122.94 171.261 123.316C171.321 123.5 171.352 123.692 171.353 123.885V125.512C171.353 125.512 171.683 126.869 171.518 127.24C171.353 127.612 171.808 128.638 171.808 128.638Z" fill="#444053"/>
<path opacity="0.1" d="M172.414 112.518C172.338 112.636 172.27 112.759 172.21 112.887L171.469 112.846C171.541 112.464 171.036 108.887 171.036 108.887L172.528 108.803C172.804 110.067 172.971 111.634 172.414 112.518Z" fill="black"/>
<path d="M172.536 112.393C172.461 112.513 172.393 112.637 172.332 112.764L171.592 112.722C171.663 112.342 171.159 108.762 171.159 108.762L172.651 108.679C172.928 109.944 173.094 111.511 172.536 112.393Z" fill="#444053"/>
<path opacity="0.05" d="M172.536 112.393C172.461 112.513 172.393 112.637 172.332 112.764L171.592 112.722C171.663 112.342 171.159 108.762 171.159 108.762L172.651 108.679C172.928 109.944 173.094 111.511 172.536 112.393Z" fill="black"/>
<path opacity="0.1" d="M170.357 145.785C170.302 145.877 170.22 145.948 170.122 145.989C169.571 146.222 167.534 145.189 166.375 144.561C166.23 144.481 166.121 144.35 166.067 144.194C166.728 144.073 167.161 144.806 167.161 144.806C167.271 144.737 167.394 144.69 167.522 144.669C167.651 144.649 167.782 144.654 167.909 144.684C168.035 144.715 168.154 144.77 168.259 144.848C168.363 144.925 168.452 145.022 168.518 145.134C169.083 145.967 170.296 145.616 170.296 145.616L170.357 145.785Z" fill="black"/>
<path d="M170.698 148.306C170.575 148.677 169.649 148.677 169.649 148.677C169.649 148.677 167.994 149.151 167.253 149.52C166.512 149.89 166.01 149.696 166.01 149.696C164.314 150.086 162.132 149.408 161.475 149.273C160.818 149.139 160.561 148.288 161.373 148.122C161.477 148.101 161.579 148.07 161.677 148.028C162.084 147.852 162.436 147.571 162.698 147.212C163.247 146.684 163.826 146.186 164.43 145.72C164.846 145.411 165.212 145.04 165.516 144.62C166.483 143.767 167.171 144.939 167.171 144.939C167.281 144.87 167.404 144.823 167.533 144.803C167.661 144.782 167.793 144.787 167.919 144.818C168.046 144.849 168.165 144.904 168.269 144.982C168.374 145.06 168.462 145.157 168.528 145.269C169.094 146.102 170.306 145.749 170.306 145.749C170.306 145.749 170.524 146.306 170.626 146.706C170.651 146.808 170.677 146.935 170.702 147.077C170.757 147.492 170.791 148.028 170.698 148.306Z" fill="#FF748F"/>
<path d="M167.869 145.706C167.931 145.706 167.981 145.656 167.981 145.594C167.981 145.532 167.931 145.481 167.869 145.481C167.807 145.481 167.757 145.532 167.757 145.594C167.757 145.656 167.807 145.706 167.869 145.706Z" fill="#575988"/>
<path d="M166.904 146.61C166.966 146.61 167.016 146.559 167.016 146.497C167.016 146.436 166.966 146.385 166.904 146.385C166.842 146.385 166.791 146.436 166.791 146.497C166.791 146.559 166.842 146.61 166.904 146.61Z" fill="#575988"/>
<path d="M165.922 147.422C165.984 147.422 166.034 147.372 166.034 147.31C166.034 147.248 165.984 147.198 165.922 147.198C165.86 147.198 165.81 147.248 165.81 147.31C165.81 147.372 165.86 147.422 165.922 147.422Z" fill="#575988"/>
<path d="M166.43 147.059C166.492 147.059 166.542 147.009 166.542 146.947C166.542 146.885 166.492 146.834 166.43 146.834C166.368 146.834 166.318 146.885 166.318 146.947C166.318 147.009 166.368 147.059 166.43 147.059Z" fill="#575988"/>
<path d="M167.408 146.13C167.47 146.13 167.52 146.08 167.52 146.018C167.52 145.956 167.47 145.906 167.408 145.906C167.346 145.906 167.296 145.956 167.296 146.018C167.296 146.08 167.346 146.13 167.408 146.13Z" fill="#575988"/>
<path d="M170.698 148.306C170.575 148.677 169.649 148.677 169.649 148.677C169.649 148.677 167.994 149.151 167.253 149.52C166.512 149.89 166.01 149.696 166.01 149.696C164.314 150.086 162.132 149.408 161.475 149.273C160.818 149.139 160.561 148.288 161.373 148.122C161.477 148.101 161.579 148.069 161.677 148.028C162.394 148.275 163.144 148.418 163.902 148.451C165.577 148.522 166.904 148.451 166.904 148.451L168.6 147.906C168.921 147.711 169.277 147.582 169.649 147.526C170.024 147.45 170.379 147.295 170.691 147.073C170.757 147.492 170.791 148.028 170.698 148.306Z" fill="#DCE6F2"/>
<path opacity="0.5" d="M166.477 149.369C166.383 149.37 166.288 149.361 166.196 149.343L166.22 149.222C166.567 149.275 166.922 149.226 167.24 149.079C167.392 149.02 167.543 148.949 167.689 148.875C167.836 148.802 168.043 148.71 168.226 148.643L168.394 148.586C168.485 148.553 168.579 148.522 168.669 148.484C168.72 148.463 168.771 148.439 168.82 148.414C168.941 148.351 169.068 148.303 169.2 148.269C169.267 148.257 169.335 148.248 169.404 148.243C169.467 148.239 169.529 148.231 169.592 148.22C169.715 148.189 169.835 148.145 169.949 148.088C170.07 148.025 170.199 147.977 170.332 147.945L170.422 147.93C170.519 147.928 170.612 147.894 170.687 147.833L170.779 147.916C170.686 147.998 170.567 148.047 170.443 148.053L170.357 148.067C170.233 148.098 170.113 148.142 170 148.2C169.877 148.261 169.749 148.308 169.616 148.341C169.549 148.354 169.48 148.362 169.412 148.365C169.348 148.37 169.284 148.378 169.22 148.39C169.097 148.421 168.979 148.467 168.867 148.526L168.712 148.598C168.618 148.637 168.52 148.669 168.426 148.702L168.263 148.759C168.083 148.824 167.908 148.908 167.736 148.988C167.565 149.067 167.434 149.131 167.279 149.192C167.025 149.3 166.753 149.36 166.477 149.369Z" fill="#575988"/>
<path opacity="0.1" d="M166.873 128.936C166.873 128.936 167.726 127.712 169.187 127.712C170.649 127.712 171.273 127.546 171.273 127.546C171.273 127.546 170.338 128.101 169.691 128.173C169.045 128.244 166.873 128.936 166.873 128.936Z" fill="black"/>
<path opacity="0.1" d="M167.367 129.224C167.367 129.224 168.138 128.69 168.579 128.669C169.02 128.649 169.396 128.608 169.396 128.608C169.189 128.753 168.96 128.864 168.718 128.936C168.357 129.039 167.367 129.224 167.367 129.224Z" fill="black"/>
<path opacity="0.1" d="M167.54 129.593C167.54 129.593 168.702 129.685 168.712 130.001L167.54 129.593Z" fill="black"/>
<path opacity="0.1" d="M156.71 112.246C156.771 112.257 157.81 111.167 157.881 110.736C157.938 110.464 158.1 110.224 158.332 110.071C158.332 110.071 159.002 110.338 158.406 111.159C157.81 111.979 156.71 112.246 156.71 112.246Z" fill="black"/>
<path opacity="0.1" d="M172.643 76.9828C172.406 77.542 172.198 77.5951 172.234 78.1277C171.959 78.4196 171.642 78.6692 171.294 78.8685C170.559 79.3053 169.759 80.1604 168.845 80.1604C168.232 80.1608 167.625 80.0459 167.055 79.8216C166.908 78.6604 166.471 78.1563 166.471 78.1563C166.471 78.1563 173.72 74.446 172.643 76.9828Z" fill="black"/>
<path d="M173.753 75.0093C173.753 75.9781 173.466 76.9251 172.927 77.7305C172.389 78.536 171.624 79.1638 170.729 79.5345C169.834 79.9052 168.849 80.0022 167.899 79.8133C166.949 79.6243 166.076 79.1578 165.391 78.4728C164.706 77.7878 164.24 76.915 164.051 75.9649C163.862 75.0148 163.959 74.03 164.33 73.135C164.7 72.24 165.328 71.475 166.134 70.9368C166.939 70.3986 167.886 70.1113 168.855 70.1113C170.154 70.1113 171.4 70.6274 172.318 71.5459C173.237 72.4645 173.753 73.7103 173.753 75.0093Z" fill="#CC818C"/>
<path opacity="0.1" d="M174.071 82.2276L172.498 84.5705C172.498 84.5705 165.063 88.1175 166.483 83.9582C167.108 82.1215 167.181 80.7806 167.069 79.8521H167.081C167.169 80.1598 167.219 80.4771 167.23 80.797C167.253 81.4378 167.269 82.248 168.863 82.5154C171.516 82.9603 172.932 81.3031 173.181 80.9786C173.436 81.4235 173.734 81.8419 174.071 82.2276Z" fill="black"/>
<path opacity="0.1" d="M142.767 72.2804L141.781 74.1927C141.469 74.166 141.161 74.1016 140.865 74.0009L140.779 73.8988C141.187 74.0539 142.536 71.4927 142.536 71.4927L142.579 71.5274C142.697 71.9743 142.767 72.2804 142.767 72.2804Z" fill="black"/>
<path opacity="0.1" d="M172.52 108.118C169.345 109.497 158.361 108.322 158.361 108.322C158.394 108.205 158.412 108.084 158.416 107.963C158.714 107.506 158.936 107.232 158.936 107.232L172.096 106.718C172.096 106.718 172.31 107.304 172.52 108.118Z" fill="black"/>
<path d="M167.073 79.9665L165.608 80.593C165.387 80.5912 165.171 80.5262 164.985 80.4059C164.8 80.2855 164.653 80.1146 164.561 79.9134C164.22 79.2053 163.018 79.9134 163.018 79.9134C163.018 79.9134 159.344 79.6359 157.989 80.3216C157.989 80.3216 155.799 79.3951 155.491 79.3338C155.183 79.2726 154.72 79.0257 154.504 79.0869C154.287 79.1481 154.012 78.6787 153.857 78.7175C153.702 78.7563 153.64 78.4093 153.146 78.2848C152.653 78.1603 152.469 78.3155 151.922 77.7603C151.375 77.2052 146.863 75.0154 146.863 75.0154L144.822 73.3501L142.663 71.6235C142.663 71.6235 141.305 74.1828 140.903 74.0276L145.005 78.9644C145.005 78.9644 147.967 81.5543 150.004 82.3869C152.04 83.2196 151.885 83.4665 151.885 83.4665C151.885 83.4665 158.055 86.6135 159.01 86.5523C159.965 86.4911 159.785 92.9911 159.377 94.0401C158.969 95.0891 158.33 102.677 158.33 102.677C158.33 102.677 157.718 104.281 158.361 105.391C158.361 105.391 158.514 107.675 158.361 108.075C158.361 108.075 169.412 109.257 172.549 107.859C172.549 107.859 173.012 102.738 172.549 102.091C172.085 101.444 172.981 100.001 172.981 100.001L174.955 95.5912L179.767 90.7483C179.767 90.7483 180.506 86.7074 177.206 84.1176L175.016 82.1726C175.016 82.1726 173.792 81.1134 173.432 81.0461C173.073 80.9788 173.206 81.0461 173.206 81.0461C173.206 81.0461 171.777 83.1298 168.847 82.6359C167.259 82.3686 167.242 81.5584 167.214 80.9196C167.206 80.5974 167.158 80.2773 167.073 79.9665Z" fill="#67647E"/>
<path opacity="0.1" d="M173.104 96.5708C173.104 96.5708 166.316 96.8484 164.961 98.981C164.961 98.981 166.72 98.1463 168.291 98.3933C169.863 98.6402 173.104 96.5708 173.104 96.5708Z" fill="black"/>
<path opacity="0.1" d="M165.608 104.003C165.608 104.003 168.816 104.22 169.496 103.54C170.175 102.86 170.177 102.46 170.177 102.46L165.608 104.003Z" fill="black"/>
<path opacity="0.1" d="M173.753 90.0298C173.753 90.0298 171.036 93.238 174.338 94.6258L173.753 90.0298Z" fill="black"/>
<path opacity="0.1" d="M157.681 83.8315C157.681 83.8315 158.669 85.8459 159.163 85.9785L157.681 83.8315Z" fill="black"/>
<path opacity="0.1" d="M154.35 82.9663C154.35 82.9663 156.818 85.1888 157.281 85.4031C157.281 85.4031 154.72 82.9663 154.35 82.9663Z" fill="black"/>
<path opacity="0.1" d="M164.189 80.8398C164.189 80.8398 161.814 84.3868 163.357 86.5542C163.357 86.546 162.493 83.9848 164.189 80.8398Z" fill="black"/>
<path d="M170.177 107.705L169.451 108.389L169.349 108.483L168.508 109.279C168.449 109.324 168.389 109.369 168.328 109.41C164.906 111.859 164.22 108.136 164.22 108.136C164.22 108.136 162.71 109.124 162.493 108.322C162.277 107.52 166.01 106.379 166.575 106.44C166.625 106.445 166.675 106.445 166.724 106.44C166.994 106.395 167.254 106.303 167.491 106.169L167.657 106.081C167.847 105.974 168.031 105.857 168.21 105.732L170.177 107.705Z" fill="#CC818C"/>
<path opacity="0.1" d="M173.867 75.0093C173.869 75.8588 173.65 76.6942 173.231 77.4335C172.812 78.1727 172.209 78.7903 171.479 79.2257C171.411 79.1111 171.351 78.9917 171.3 78.8685C171.124 78.4604 171.016 78.0196 170.838 77.6093C170.644 77.1615 170.367 76.7544 170.022 76.4093C169.964 76.341 169.888 76.2889 169.804 76.2583C169.724 76.2474 169.644 76.2528 169.566 76.2742C169.489 76.2956 169.417 76.3325 169.355 76.3828C169.147 76.5235 168.915 76.6252 168.671 76.6828C168.549 76.7108 168.422 76.7068 168.301 76.671C168.181 76.6353 168.072 76.569 167.985 76.4787C167.793 76.2501 167.82 75.9154 167.875 75.6236C167.996 74.9848 168.196 74.3562 168.198 73.7073C168.2 73.0583 167.951 72.3603 167.381 72.0378C166.883 71.7542 166.265 71.8338 165.712 71.6746C165.626 71.6521 165.542 71.6235 165.461 71.5889C166.141 70.891 167.013 70.4117 167.967 70.2124C168.921 70.0131 169.913 70.1029 170.815 70.4701C171.718 70.8373 172.49 71.4654 173.034 72.274C173.577 73.0826 173.868 74.0349 173.867 75.0093Z" fill="black"/>
<path d="M165.126 70.8051C165.038 70.8521 164.94 70.9378 164.967 71.0358C164.984 71.0825 165.015 71.1225 165.057 71.15C165.285 71.3345 165.549 71.4699 165.832 71.548C166.385 71.699 167.006 71.6276 167.504 71.9113C168.067 72.2317 168.32 72.9317 168.32 73.5807C168.32 74.2297 168.116 74.8583 168 75.495C167.945 75.7889 167.916 76.1236 168.108 76.3521C168.195 76.4419 168.304 76.5078 168.424 76.5436C168.544 76.5793 168.671 76.5837 168.794 76.5562C169.038 76.4997 169.27 76.3987 169.477 76.2583C169.54 76.2077 169.612 76.1704 169.69 76.1487C169.767 76.1269 169.848 76.1211 169.928 76.1317C170.012 76.1637 170.087 76.2155 170.147 76.2828C170.492 76.6284 170.769 77.0363 170.963 77.4848C171.143 77.893 171.249 78.3318 171.424 78.744C171.577 79.1644 171.864 79.523 172.241 79.7644C172.632 79.9808 173.175 79.9685 173.477 79.6338C173.779 79.2991 173.755 78.8399 173.898 78.4379C174.143 77.7379 174.826 77.2991 175.255 76.695C175.734 76.0154 175.867 75.1623 175.998 74.3399C176.056 74.0809 176.06 73.8128 176.01 73.5521C175.954 73.3796 175.882 73.2128 175.794 73.0541C175.316 72.0664 175.326 70.8235 174.569 70.0357C173.998 69.4439 173.13 69.2643 172.314 69.1623C171.498 69.0602 170.64 69.0031 169.94 68.5725C169.744 68.4241 169.528 68.3045 169.298 68.2174C169.181 68.1764 169.054 68.1776 168.938 68.2209C168.823 68.2642 168.726 68.3467 168.665 68.4541C168.651 68.5169 168.622 68.5755 168.581 68.6255C168.545 68.6466 168.504 68.6589 168.462 68.6614C168.419 68.6639 168.377 68.6565 168.338 68.6398L167.253 68.348L167.377 68.8949C166.983 68.9115 166.589 68.8418 166.224 68.6908C166.204 69.001 166.553 69.201 166.661 69.4908C166.7 69.6226 166.701 69.7627 166.665 69.8953C166.629 70.0279 166.557 70.1479 166.457 70.2419C166.063 70.6378 165.571 70.5623 165.126 70.8051Z" fill="#585268"/>
<path opacity="0.1" d="M160.726 144.504L160.681 144.996H160.663C158.893 145.983 155.234 143.228 155.234 143.228L155.616 142.847C155.678 142.916 155.726 142.998 155.754 143.087C155.783 143.176 155.793 143.27 155.783 143.363L156.53 143.404L157.424 144.369C157.424 144.369 159.842 144.649 160.497 144.494L160.726 144.504Z" fill="black"/>
<path d="M160.416 147.185C159.265 147.442 155.234 147.424 155.234 147.424L152.973 147.781C152.973 147.781 149.095 148.153 148.665 146.949C148.234 145.744 149.003 145.82 149.003 145.82H149.034L150.648 145.689C150.648 145.689 152.689 144.897 153.446 144.353C154.039 143.891 154.599 143.389 155.122 142.851C155.122 142.851 155.795 142.72 155.783 143.499L156.53 143.54L157.424 144.508C157.424 144.508 159.842 144.787 160.497 144.63H160.726L160.622 145.824L160.651 145.859C160.806 146.046 161.444 146.957 160.416 147.185Z" fill="#FF748F"/>
<path d="M156.242 144.306C156.304 144.306 156.355 144.256 156.355 144.194C156.355 144.132 156.304 144.082 156.242 144.082C156.18 144.082 156.13 144.132 156.13 144.194C156.13 144.256 156.18 144.306 156.242 144.306Z" fill="#575988"/>
<path d="M153.342 145.563C153.404 145.563 153.455 145.513 153.455 145.451C153.455 145.389 153.404 145.338 153.342 145.338C153.28 145.338 153.23 145.389 153.23 145.451C153.23 145.513 153.28 145.563 153.342 145.563Z" fill="#575988"/>
<path d="M151.848 146.016C151.91 146.016 151.961 145.966 151.961 145.904C151.961 145.842 151.91 145.792 151.848 145.792C151.786 145.792 151.736 145.842 151.736 145.904C151.736 145.966 151.786 146.016 151.848 146.016Z" fill="#575988"/>
<path d="M154.104 145.322C154.166 145.322 154.216 145.272 154.216 145.21C154.216 145.148 154.166 145.098 154.104 145.098C154.042 145.098 153.991 145.148 153.991 145.21C153.991 145.272 154.042 145.322 154.104 145.322Z" fill="#575988"/>
<path d="M152.593 145.789C152.655 145.789 152.706 145.739 152.706 145.677C152.706 145.615 152.655 145.565 152.593 145.565C152.531 145.565 152.481 145.615 152.481 145.677C152.481 145.739 152.531 145.789 152.593 145.789Z" fill="#575988"/>
<path d="M154.873 144.965C154.935 144.965 154.985 144.915 154.985 144.853C154.985 144.791 154.935 144.741 154.873 144.741C154.811 144.741 154.761 144.791 154.761 144.853C154.761 144.915 154.811 144.965 154.873 144.965Z" fill="#575988"/>
<path d="M155.634 144.635C155.696 144.635 155.746 144.584 155.746 144.522C155.746 144.46 155.696 144.41 155.634 144.41C155.572 144.41 155.522 144.46 155.522 144.522C155.522 144.584 155.572 144.635 155.634 144.635Z" fill="#575988"/>
<path d="M160.416 147.186C159.265 147.443 155.234 147.424 155.234 147.424L152.973 147.782C152.973 147.782 149.095 148.153 148.665 146.949C148.234 145.745 149.003 145.82 149.003 145.82H149.034C149.281 146.141 149.777 146.504 150.75 146.522L153.538 146.635L156.426 146.43C156.426 146.43 159.132 146.351 159.573 146.257C159.943 146.157 160.304 146.025 160.651 145.861C160.806 146.047 161.444 146.957 160.416 147.186Z" fill="#DCE6F2"/>
<path opacity="0.5" d="M153.191 147.51C153.037 147.512 152.883 147.493 152.734 147.453L152.767 147.335C153.147 147.416 153.542 147.399 153.914 147.284C154.05 147.247 154.185 147.208 154.322 147.167C154.569 147.089 154.82 147.026 155.075 146.977C155.486 146.924 155.902 146.912 156.316 146.941H156.404C157.64 147.006 158.88 146.95 160.106 146.775C160.397 146.755 160.674 146.644 160.897 146.457L160.985 146.545C160.743 146.75 160.443 146.874 160.126 146.898C158.892 147.074 157.644 147.129 156.399 147.063H156.31C155.901 147.035 155.491 147.047 155.085 147.1C154.836 147.146 154.59 147.208 154.348 147.286C154.212 147.326 154.075 147.367 153.94 147.402C153.696 147.468 153.444 147.505 153.191 147.51Z" fill="#575988"/>
<path opacity="0.1" d="M170.177 107.706L169.451 108.389L167.647 106.079C167.837 105.972 168.021 105.855 168.2 105.73L170.177 107.706Z" fill="black"/>
<path d="M178.357 88.7769L179.785 90.7504V92.8177C179.785 92.8177 180.432 95.0075 179.785 97.1974L179.855 99.1096C179.855 99.1096 179.167 100.867 179.414 101.299C179.414 101.299 179.292 102.595 177.626 103.489C175.961 104.383 174.071 106.502 174.071 106.502C174.071 106.502 173.361 107.859 171.449 107.551L169.628 108.322L167.532 105.638L170.369 104.095C170.369 104.095 171.357 102.771 171.943 102.832L174.349 100.024C174.349 100.024 174.41 99.13 175.026 99.13C175.026 99.13 173.885 98.2055 174.285 97.6504C174.685 97.0953 174.349 94.6259 174.349 94.6259L178.357 88.7769Z" fill="#67647E"/>
<path opacity="0.1" d="M175.704 97.7726C175.704 97.7726 178.943 97.7114 179.343 98.5441C179.743 99.3767 176.681 97.3094 175.704 97.7726Z" fill="black"/>
<path opacity="0.1" d="M169.363 108.322C169.363 108.376 169.359 108.43 169.349 108.483C169.311 108.731 169.189 108.959 169.004 109.128C168.818 109.297 168.579 109.396 168.328 109.409H168.271C167.982 109.409 167.705 109.295 167.5 109.09C167.296 108.886 167.181 108.609 167.181 108.32C167.182 108.199 167.202 108.08 167.243 107.967C166.728 107.558 166.7 106.807 166.714 106.436C166.984 106.391 167.243 106.299 167.481 106.165C167.616 106.55 167.796 106.918 168.018 107.26C168.101 107.241 168.186 107.231 168.271 107.23C168.414 107.23 168.556 107.258 168.689 107.313C168.821 107.368 168.942 107.448 169.043 107.55C169.145 107.651 169.225 107.771 169.28 107.904C169.335 108.036 169.363 108.178 169.363 108.322Z" fill="black"/>
<path d="M167.579 105.92C167.579 105.92 166.849 106.085 166.849 106.218C166.849 106.351 166.683 107.555 167.485 108.055C168.287 108.555 168.206 107.365 168.206 107.365C168.206 107.365 167.516 106.308 167.579 105.92Z" fill="#575988"/>
<path d="M168.394 109.412C168.995 109.412 169.483 108.924 169.483 108.322C169.483 107.72 168.995 107.232 168.394 107.232C167.792 107.232 167.304 107.72 167.304 108.322C167.304 108.924 167.792 109.412 168.394 109.412Z" fill="#E4AAB4"/>
<path d="M168.393 109.257C168.91 109.257 169.328 108.838 169.328 108.322C169.328 107.806 168.91 107.387 168.393 107.387C167.877 107.387 167.459 107.806 167.459 108.322C167.459 108.838 167.877 109.257 168.393 109.257Z" fill="#DCE6F2"/>
<path opacity="0.1" d="M164.149 108.744C164.149 108.744 166.453 110.654 169.412 109.442V110.369C169.412 110.369 167.438 111.726 165.651 110.903C163.863 110.081 164.149 108.744 164.149 108.744Z" fill="black"/>
<path opacity="0.1" d="M164.149 108.497C164.149 108.497 166.453 110.409 169.412 109.195V110.122C169.412 110.122 167.438 111.479 165.651 110.656C163.863 109.834 164.149 108.497 164.149 108.497Z" fill="black"/>
<path d="M164.149 108.497C164.149 108.497 166.453 110.409 169.412 109.195V110.122C169.412 110.122 167.438 111.479 165.651 110.656C163.863 109.834 164.149 108.497 164.149 108.497Z" fill="#444053"/>
<path opacity="0.05" d="M164.21 108.497C164.21 108.497 166.514 110.409 169.475 109.195V110.122C169.475 110.122 167.502 111.479 165.712 110.656C163.922 109.834 164.21 108.497 164.21 108.497Z" fill="black"/>
<path opacity="0.1" d="M156.91 142.847C156.91 142.847 159.995 143.414 160.446 143.536C160.897 143.659 160.324 143.875 160.324 143.875C160.324 143.875 157.508 143.371 156.91 142.847Z" fill="black"/>
<path opacity="0.1" d="M156.838 141.212C156.889 141.212 158.936 140.637 159.377 139.651L156.838 141.212Z" fill="black"/>
<path opacity="0.1" d="M159.824 129.41C159.824 129.41 160.653 130.5 161.187 130.469C161.722 130.438 160.31 129.369 159.824 129.41Z" fill="black"/>
<path opacity="0.1" d="M160.283 131.226C160.283 131.226 160.632 131.995 161.147 131.749L160.283 131.226Z" fill="black"/>
<path opacity="0.05" d="M162.234 114.287L164.422 120.056C164.422 120.056 164.73 116.344 164.079 115.234C163.894 114.916 163.622 114.658 163.295 114.491C162.968 114.323 162.6 114.252 162.234 114.287Z" fill="black"/>
<g opacity="0.1">
<path opacity="0.1" d="M167.61 68.5721L167.592 68.4884L167.241 68.3945L167.279 68.566C167.389 68.5741 167.5 68.5762 167.61 68.5721Z" fill="black"/>
<path opacity="0.1" d="M166.645 69.9637L166.681 69.9311C166.782 69.8373 166.854 69.7173 166.89 69.5846C166.926 69.4519 166.925 69.3118 166.885 69.18C166.843 69.0777 166.784 68.9832 166.71 68.9004C166.537 68.8664 166.368 68.8165 166.204 68.7515C166.183 69.0596 166.53 69.2596 166.638 69.5494C166.689 69.6826 166.691 69.8291 166.645 69.9637Z" fill="black"/>
<path opacity="0.1" d="M172.479 79.4475C172.099 79.2077 171.808 78.849 171.653 78.4271C171.479 78.0189 171.371 77.5781 171.194 77.1699C171 76.7214 170.723 76.3135 170.377 75.9679C170.318 75.9 170.243 75.848 170.159 75.8169C170.08 75.8064 169.999 75.812 169.922 75.8334C169.845 75.8548 169.773 75.8915 169.71 75.9413C169.502 76.0821 169.27 76.1838 169.026 76.2414C168.904 76.269 168.777 76.2647 168.657 76.229C168.537 76.1932 168.428 76.1272 168.341 76.0373C168.149 75.8087 168.175 75.472 168.23 75.1801C168.351 74.5434 168.551 73.9128 168.553 73.2658C168.555 72.6189 168.306 71.9168 167.736 71.5964C167.238 71.3127 166.62 71.3923 166.067 71.2331C165.783 71.1551 165.519 71.0196 165.289 70.8352C165.275 70.8233 165.261 70.8103 165.249 70.7964C165.202 70.8142 165.157 70.8353 165.114 70.8597C165.024 70.9066 164.928 70.9923 164.953 71.0903C164.971 71.1367 165.003 71.1765 165.045 71.2046C165.273 71.3894 165.537 71.5249 165.82 71.6025C166.373 71.7535 166.992 71.6821 167.489 71.9658C168.053 72.2862 168.306 72.9862 168.306 73.6352C168.306 74.2842 168.102 74.9128 167.983 75.5495C167.928 75.8434 167.902 76.1781 168.094 76.4067C168.181 76.4966 168.29 76.5626 168.41 76.5984C168.53 76.6341 168.657 76.6384 168.779 76.6107C169.024 76.5543 169.255 76.4533 169.463 76.3128C169.525 76.2623 169.597 76.225 169.674 76.2032C169.752 76.1815 169.832 76.1757 169.912 76.1863C169.996 76.2177 170.071 76.2696 170.13 76.3373C170.475 76.6836 170.752 77.0913 170.947 77.5393C171.126 77.9475 171.232 78.3863 171.408 78.7985C171.561 79.2189 171.848 79.5775 172.224 79.8189C172.614 80.0353 173.159 80.023 173.449 79.6883C173.529 79.5975 173.591 79.4922 173.632 79.3781C173.468 79.5008 173.271 79.5727 173.066 79.585C172.861 79.5974 172.657 79.5496 172.479 79.4475Z" fill="black"/>
<path opacity="0.1" d="M174.243 77.8783C174.551 77.4885 174.957 77.1559 175.247 76.7477C175.304 76.6661 175.357 76.5803 175.406 76.4946C175.032 76.9701 174.52 77.3477 174.243 77.8783Z" fill="black"/>
</g>
<defs>
<linearGradient id="paint0_linear" x1="159.149" y1="149.814" x2="159.149" y2="67.4909" gradientUnits="userSpaceOnUse">
<stop stop-color="#808080" stop-opacity="0.25"/>
<stop offset="0.54" stop-color="#808080" stop-opacity="0.12"/>
<stop offset="1" stop-color="#808080" stop-opacity="0.1"/>
</linearGradient>
</defs>
</svg>
