<svg width="228" height="160" viewBox="0 0 228 160" fill="none" xmlns="http://www.w3.org/2000/svg">
<path opacity="0.1" d="M140.387 19.4048C130.615 26.2462 117.94 25.8046 106.833 22.2444C95.7258 18.6843 85.5229 12.3457 74.7009 7.84115C65.681 4.07905 56.1777 1.60186 46.469 0.4821C32.6764 -1.0962 17.2737 0.826494 7.66446 11.8915C-3.03712 24.2073 -2.21522 46.426 9.35474 57.7403C15.2432 63.4915 22.953 66.3142 29.6761 70.804C36.3992 75.2938 42.6279 82.7458 42.0553 91.4085C41.525 99.4373 35.3618 105.59 28.9831 109.454C24.0538 112.44 17.9836 115.7 17.3899 121.884C16.8152 127.868 21.9198 132.556 26.7942 135.223C42.6955 143.923 62.29 143.839 78.1364 135.011C83.7861 131.853 88.9753 127.661 94.9018 125.214C110.463 118.766 127.611 125.258 144.089 127.631C158.09 129.637 172.36 128.599 185.923 124.587C194.083 122.176 202.275 118.491 208.007 111.626C212.142 106.676 214.717 100.413 217.134 94.2249C219.712 87.6286 222.19 80.9851 224.569 74.2944C225.996 70.28 227.401 66.1853 227.77 61.8878C228.438 54.102 225.624 46.4049 221.791 39.8339C212.691 24.2199 197.364 13.25 180.766 10.4632C164.167 7.67635 146.607 13.119 133.734 25.0292" fill="#316099"/>
<g opacity="0.1">
<path opacity="0.1" d="M114.361 21.8473L113.556 68.5413C113.556 68.5413 142.697 68.5413 167.491 76.5912L167.973 29.4198C167.973 29.4198 128.207 19.9141 114.361 21.8473Z" fill="black"/>
</g>
<path d="M113.727 21.0021L112.922 67.696C112.922 67.696 142.063 67.696 166.857 75.746L167.339 28.5746C167.339 28.5746 127.573 19.0689 113.727 21.0021Z" fill="#F7F7FD"/>
<g opacity="0.1">
<path opacity="0.1" d="M99.7318 23.1848L100.537 69.8787C100.537 69.8787 71.3964 69.8787 46.6043 77.9286L46.1204 30.7572C46.1204 30.7572 85.8863 21.2621 99.7318 23.1848Z" fill="black"/>
</g>
<path d="M100.366 22.1281L101.171 68.8221C101.171 68.8221 72.0303 68.8221 47.2381 76.872L46.7543 29.7006C46.7543 29.7006 86.5202 20.2054 100.366 22.1281Z" fill="#F7F7FD"/>
<g opacity="0.2">
<path opacity="0.2" d="M87.2766 27.5754L87.7097 52.6147C87.7097 52.6147 72.0747 52.6147 58.7848 56.9313L58.525 31.6342C58.525 31.6342 79.852 26.5443 87.2766 27.5754Z" fill="#1894EC"/>
</g>
<g opacity="0.1">
<path opacity="0.1" d="M185.148 39.0225V85.2283C185.148 85.2283 194.656 84.1001 214.612 108.734L216.382 62.5279C216.382 62.5279 195.613 40.1486 185.148 39.0225Z" fill="black"/>
</g>
<path d="M184.725 38.3887V84.5945C184.725 84.5945 194.233 83.4663 214.189 108.1L215.96 61.8941C215.96 61.8941 195.19 39.5148 184.725 38.3887Z" fill="#F7F7FD"/>
<g opacity="0.1">
<path opacity="0.1" d="M31.4699 39.2339V85.4398C31.4699 85.4398 21.9705 84.3115 2.01892 108.945L0.237793 62.7393C0.237793 62.7393 21.005 40.36 31.4699 39.2339Z" fill="black"/>
</g>
<path d="M32.1038 38.3887V84.5945C32.1038 84.5945 22.6045 83.4663 2.65284 108.1L0.871704 61.8941C0.871704 61.8941 21.6389 39.5148 32.1038 38.3887Z" fill="#F7F7FD"/>
<g opacity="0.2">
<path opacity="0.2" d="M121.513 30.7148L141.254 34.2454V37.121L121.513 33.3306V30.7148Z" fill="#1894EC"/>
</g>
<path d="M83.4819 58.499L63.7437 62.0296V64.9052L83.4819 61.1147V58.499Z" fill="white"/>
<path d="M121.775 36.0752L157.854 43.5272V46.4028L121.775 38.6909V36.0752Z" fill="white"/>
<path d="M121.775 41.4355L157.854 48.8854V51.7631L121.775 44.0491V41.4355Z" fill="white"/>
<g opacity="0.2">
<path opacity="0.2" d="M193.139 53.3096V55.8471L200.878 62.1349L201.241 59.9587L193.139 53.3096Z" fill="#1894EC"/>
</g>
<path d="M193.139 77.8188V80.3564L200.878 86.6442L201.241 84.468L193.139 77.8188Z" fill="white"/>
<path d="M193.261 57.6621L193.139 60.2018L207.77 73.9839L207.529 71.0829L193.261 57.6621Z" fill="white"/>
<path d="M193.139 62.3779V64.795L207.77 78.8222V75.6783L193.139 62.3779Z" fill="white"/>
<g opacity="0.2">
<path opacity="0.2" d="M23.5679 53.8589L23.6883 56.3985L9.05896 70.1806L9.29983 67.2797L23.5679 53.8589Z" fill="#1894EC"/>
</g>
<g opacity="0.2">
<path opacity="0.2" d="M23.6883 58.5747V60.9918L9.05896 75.019V71.8751L23.6883 58.5747Z" fill="#1894EC"/>
</g>
<path opacity="0.1" d="M43.3611 133.562C50.0124 133.562 55.4043 132.592 55.4043 131.394C55.4043 130.197 50.0124 129.227 43.3611 129.227C36.7098 129.227 31.3179 130.197 31.3179 131.394C31.3179 132.592 36.7098 133.562 43.3611 133.562Z" fill="#1894EC"/>
<path d="M14.7995 119.476C14.7995 119.476 15.9595 120.993 14.2629 123.279C12.5662 125.565 11.1675 127.504 11.7274 128.933C11.7274 128.933 14.2861 124.677 16.3757 124.618C18.4653 124.559 17.092 122.045 14.7995 119.476Z" fill="#1894EC"/>
<path opacity="0.1" d="M14.7996 119.476C14.9013 119.622 14.981 119.782 15.0363 119.951C17.0688 122.338 18.1527 124.568 16.1983 124.625C14.3792 124.675 12.1839 127.931 11.6726 128.753C11.6895 128.814 11.7106 128.878 11.7339 128.939C11.7339 128.939 14.2925 124.684 16.3821 124.625C18.4718 124.565 17.0921 122.045 14.7996 119.476Z" fill="black"/>
<path d="M16.9568 121.411C16.9568 121.945 16.8977 122.379 16.8237 122.379C16.7498 122.379 16.6885 121.945 16.6885 121.411C16.6885 120.876 16.7645 121.128 16.8385 121.128C16.9124 121.128 16.9568 120.874 16.9568 121.411Z" fill="#FFD037"/>
<path d="M17.6984 122.045C17.2293 122.301 16.8194 122.455 16.7835 122.391C16.7476 122.328 17.1004 122.066 17.5695 121.81C18.0386 121.555 17.8526 121.741 17.8885 121.81C17.9245 121.88 18.1674 121.791 17.6984 122.045Z" fill="#FFD037"/>
<path d="M8.66807 119.476C8.66807 119.476 7.51234 120.988 9.20262 123.285C10.8929 125.582 12.2979 127.511 11.738 128.939C11.738 128.939 9.17938 124.684 7.08977 124.625C5.00017 124.565 6.37774 122.045 8.66807 119.476Z" fill="#1894EC"/>
<path opacity="0.1" d="M8.6682 119.476C8.56748 119.622 8.48782 119.782 8.43157 119.951C6.39901 122.338 5.31511 124.568 7.2695 124.625C9.09077 124.675 11.2839 127.931 11.7952 128.753C11.7786 128.816 11.7582 128.878 11.7339 128.939C11.7339 128.939 9.17529 124.684 7.08568 124.625C4.99608 124.565 6.37788 122.045 8.6682 119.476Z" fill="black"/>
<path d="M6.51099 121.411C6.51099 121.945 6.57015 122.379 6.6441 122.379C6.71804 122.379 6.77932 121.945 6.77932 121.411C6.77932 120.876 6.70325 121.128 6.62931 121.128C6.55536 121.128 6.51099 120.874 6.51099 121.411Z" fill="#FFD037"/>
<path d="M5.7714 122.045C6.24045 122.301 6.64823 122.455 6.68415 122.391C6.72007 122.328 6.36722 122.066 5.89817 121.81C5.42912 121.555 5.61505 121.741 5.57913 121.81C5.54321 121.88 5.30235 121.791 5.7714 122.045Z" fill="#FFD037"/>
<path d="M6.87854 128.741C6.87854 128.741 10.1239 128.641 11.1042 127.944C12.0846 127.247 16.0948 126.417 16.3378 127.534C16.5807 128.652 21.2142 133.089 17.5505 133.119C13.8869 133.148 9.03787 132.548 8.06173 131.952C7.0856 131.356 6.87854 128.741 6.87854 128.741Z" fill="#A8A8A8"/>
<path opacity="0.2" d="M17.6161 132.73C13.9524 132.759 9.10345 132.159 8.12732 131.563C7.3836 131.111 7.0878 129.486 6.98849 128.736H6.88074C6.88074 128.736 7.09202 131.354 8.06182 131.948C9.03162 132.542 13.8869 133.144 17.5506 133.114C18.607 133.114 18.9747 132.73 18.9535 132.172C18.8078 132.512 18.4042 132.723 17.6161 132.73Z" fill="black"/>
<path opacity="0.1" d="M127.007 102.856C137.975 102.856 146.867 101.333 146.867 99.4544C146.867 97.5757 137.975 96.0527 127.007 96.0527C116.038 96.0527 107.146 97.5757 107.146 99.4544C107.146 101.333 116.038 102.856 127.007 102.856Z" fill="#1894EC"/>
<path d="M123.001 53.544C122.904 53.7507 122.833 53.9686 122.789 54.1927C122.777 54.249 122.764 54.3082 122.751 54.3702C122.624 55.0167 122.54 55.8301 122.496 56.3034C122.474 56.5401 122.464 56.6922 122.464 56.6922C122.464 56.6922 117.881 56.3858 118.676 55.6167C118.88 55.4044 119.026 55.1422 119.098 54.8561C119.121 54.7737 119.14 54.6913 119.157 54.6068C119.195 54.415 119.22 54.2209 119.231 54.0258C119.231 53.9772 119.231 53.9286 119.231 53.8779C119.242 53.561 119.227 53.2438 119.187 52.9292C119.187 52.9292 120.676 52.9292 121.8 53.0496C122.557 53.1363 123.146 53.2863 123.001 53.544Z" fill="#D38884"/>
<path d="M115.056 75.3511C113.495 75.3004 114.646 72.0487 114.826 71.6114C115.006 71.174 114.56 70.1028 114.56 70.1028C114.56 70.1028 114.032 67.0054 114.032 66.8025C114.005 66.3803 113.945 65.9607 113.854 65.5475C113.799 65.1257 113.873 64.6971 114.065 64.3178C114.245 64.0368 114.217 62.9107 114.217 62.9107V61.4528L114.566 60.9922L115.456 61.8373L115.703 62.0697L116.138 63.7009L115.984 66.0377L115.901 68.3132L116.44 71.4613C116.44 71.4613 116.628 75.4039 115.056 75.3511Z" fill="#D38884"/>
<path opacity="0.1" d="M115.551 62.2238L114.22 61.6703V61.4547L114.566 60.9941L115.458 61.8351L115.551 62.2238Z" fill="black"/>
<path d="M114.938 58.894C114.767 59.3143 114.643 59.7522 114.568 60.1998C114.5 60.6292 114.383 61.0495 114.22 61.4527L115.699 62.0675L114.938 58.894Z" fill="#4C4981"/>
<path opacity="0.05" d="M114.938 58.894C114.767 59.3143 114.643 59.7522 114.568 60.1998C114.5 60.6292 114.383 61.0495 114.22 61.4527L115.699 62.0675L114.938 58.894Z" fill="black"/>
<path d="M126.719 91.2182L126.597 91.4802C126.597 91.4802 126.464 92.3486 126.464 92.3697C126.464 92.3908 126.079 92.9697 126.079 92.9697L125.114 93.181L124.704 93.1303C124.682 92.8916 124.645 92.6545 124.594 92.4204C124.579 92.3549 124.564 92.2873 124.545 92.2197C124.401 91.678 124.173 91.162 123.871 90.69C123.871 90.69 123.155 88.9236 122.899 88.6933C122.644 88.463 121.67 86.1326 121.773 85.5705C121.828 85.2621 121.784 84.2268 121.733 83.3647C121.691 82.6611 121.644 82.0695 121.644 82.0695L124.076 80.6328L124.359 81.0786L124.528 81.3427C124.528 81.3427 124.528 81.3934 124.518 81.478V81.5096C124.49 81.869 124.419 82.2236 124.306 82.5661C124.306 82.5661 124.125 83.8718 124.306 84.1021C124.488 84.3324 125.067 87.4108 125.196 88.8349C125.196 88.8793 125.196 88.9236 125.196 88.9638C125.247 89.6188 125.652 90.2019 126.06 90.6287C126.085 90.6583 126.113 90.6857 126.14 90.7132C126.322 90.8946 126.515 91.0634 126.719 91.2182Z" fill="#D38884"/>
<path opacity="0.1" d="M124.704 93.1263L125.114 93.177L126.079 92.9658C126.079 92.9658 126.464 92.3847 126.464 92.3657C126.464 92.3467 126.597 91.4762 126.597 91.4762L126.719 91.2142L126.734 91.1825C126.498 91.019 126.276 90.8359 126.071 90.6353C126.047 90.6142 126.024 90.593 126.003 90.5698C125.982 90.5466 126.14 91.4149 125.405 91.7931C125.048 91.977 124.754 92.1185 124.549 92.2157L124.704 93.1263Z" fill="black"/>
<path d="M126.888 91.3411L126.751 91.6348C126.751 91.6348 126.618 92.5031 126.618 92.5243C126.618 92.5454 126.233 93.1243 126.233 93.1243L125.268 93.3356L124.712 93.2701C124.712 93.1581 124.693 92.9997 124.666 92.8074C124.649 92.6912 124.625 92.5623 124.594 92.4229C124.805 92.3278 125.133 92.1714 125.553 91.9538C126.29 91.5756 126.151 90.7305 126.151 90.7305C126.31 90.8894 126.479 91.039 126.656 91.1784C126.757 91.2502 126.84 91.3073 126.888 91.3411Z" fill="#CEDDF9"/>
<path opacity="0.1" d="M126.888 91.3409L126.751 91.6346C126.751 91.6346 126.618 92.503 126.618 92.5241C126.618 92.5452 126.233 93.1242 126.233 93.1242L125.268 93.3354L124.712 93.2699C124.712 93.158 124.693 92.9995 124.666 92.8072C124.784 92.8126 124.901 92.8289 125.016 92.8558C125.016 92.8558 126.335 93.1368 126.398 92.0931C126.436 91.5015 126.559 91.2691 126.656 91.1782C126.757 91.2501 126.84 91.3071 126.888 91.3409Z" fill="black"/>
<path d="M126.791 91.2714C126.791 91.2714 126.464 91.1996 126.398 92.2412C126.333 93.2829 125.016 93.004 125.016 93.004C125.016 93.004 124.37 92.8434 124.363 93.1117C124.385 93.3599 124.443 93.6034 124.537 93.8343C124.537 93.8343 124.575 94.4555 124.697 94.6034C124.82 94.7513 124.742 95.3006 124.742 95.3006C124.742 95.3006 124.792 95.7105 125.811 95.3006C125.811 95.3006 126.719 95.1126 127.474 93.9822C127.499 93.9442 127.385 93.828 128.044 93.5914C128.703 93.3547 130.579 91.8377 130.444 91.0961C130.43 90.9733 130.379 90.8575 130.3 90.7629C130.22 90.6683 130.115 90.599 129.996 90.5636C129.898 90.5373 129.795 90.5309 129.694 90.5447C129.592 90.5584 129.495 90.5922 129.407 90.6439C129.229 90.7403 129.045 90.825 128.855 90.8975C128.604 90.9991 128.339 91.0625 128.069 91.0855C127.862 91.1032 127.658 91.1421 127.459 91.2017C127.247 91.2845 127.016 91.3086 126.791 91.2714Z" fill="#CC8294"/>
<path d="M119.328 84.1001C119.183 84.2205 119.058 84.3631 118.957 84.5227C118.585 85.091 118.361 85.8854 118.111 86.2277C117.786 86.6714 117.689 87.5335 117.689 87.5335C117.602 88.0997 116.402 91.1253 116.077 91.662C115.751 92.1986 115.299 93.6586 115.299 93.6586C115.023 94.0051 115.039 94.5207 115.067 94.7657C115.067 94.808 115.067 94.8418 115.08 94.865C115.092 94.8883 115.08 94.9052 115.08 94.9052V94.92L114.636 95.6743L113.224 95.4778L112.496 94.9834C112.555 94.8864 112.608 94.7855 112.654 94.6812C113.045 93.8107 113.322 92.2557 113.322 92.2557C113.322 92.2557 113.715 90.4809 113.685 90.0668C113.695 89.5017 113.734 88.9376 113.801 88.3765C113.801 88.3765 114.913 84.9854 115.268 84.436C115.416 84.219 115.507 83.9684 115.534 83.7071C115.541 83.6545 115.541 83.6012 115.534 83.5486L116.011 83.0732C116.011 83.0732 119.941 83.612 119.328 84.1001Z" fill="#D38884"/>
<path opacity="0.1" d="M115.094 94.7576C115.094 94.7576 115.094 94.7998 115.094 94.8696V94.9245L114.651 95.6788L113.239 95.4823L112.51 94.9879C112.57 94.8909 112.623 94.79 112.669 94.6857C113.024 94.5843 113.835 94.8717 113.835 94.8717C113.835 94.8717 114.712 95.0386 115.082 94.7702C115.082 94.7681 115.086 94.7618 115.094 94.7576Z" fill="black"/>
<path d="M114.75 96.771L113.317 97.1132L112.003 96.1413L112.071 95.5941C112.163 95.5379 112.244 95.4664 112.312 95.3828C112.408 95.2702 112.473 95.1349 112.502 94.9898C112.578 94.5863 113.827 95.0279 113.827 95.0279C113.827 95.0279 114.739 95.2011 115.094 94.9117C115.069 95.177 115.092 95.4446 115.162 95.7019C115.196 95.8272 115.27 95.9379 115.373 96.0167C115.739 96.2681 114.75 96.771 114.75 96.771Z" fill="#CEDDF9"/>
<path opacity="0.1" d="M114.75 96.771L113.317 97.1132L112.003 96.1413L112.071 95.5941C112.163 95.5379 112.244 95.4664 112.312 95.3828C112.407 95.3828 112.51 95.3828 112.599 95.3828C112.81 95.4039 113.339 96.3442 113.339 96.3442C114.636 96.4308 115.029 96.0061 115.162 95.6934C115.196 95.8187 115.27 95.9294 115.373 96.0082C115.739 96.2681 114.75 96.771 114.75 96.771Z" fill="black"/>
<path d="M113.339 96.5028C113.339 96.5028 112.819 95.5626 112.599 95.5436C112.413 95.5332 112.227 95.5332 112.041 95.5436C112.041 95.5436 111.467 96.9064 111.255 97.0226C111.044 97.1388 110.736 97.7917 110.736 97.7917C110.736 97.7917 112.257 99.2707 113.727 98.9812C114.197 98.988 114.658 99.1029 115.075 99.3171C115.756 99.6721 118.598 99.4038 118.944 98.7805C119.202 98.3114 119.305 97.9713 119.077 97.7241C119.009 97.6534 118.925 97.6001 118.832 97.5685C118.739 97.5369 118.64 97.5279 118.543 97.5424C118.186 97.591 117.383 97.5825 116.679 96.7183C116.679 96.7183 115.382 95.5309 115.276 95.5288C115.17 95.5267 115.363 96.6381 113.339 96.5028Z" fill="#CC8294"/>
<path opacity="0.1" d="M124.53 81.497L124.52 81.5096C124.431 81.6068 123.806 82.2935 123.616 82.3421C123.301 82.4608 122.994 82.5969 122.694 82.7499C122.694 82.7499 122.31 83.2633 122.003 83.2887C121.911 83.302 121.82 83.3261 121.733 83.3605C121.691 82.6569 121.644 82.0653 121.644 82.0653L124.076 80.6328L124.359 81.0786C124.423 81.2582 124.494 81.4251 124.518 81.478L124.53 81.497Z" fill="black"/>
<path d="M115.69 71.611C115.69 71.611 114.744 72.8449 115.69 74.4823C116.199 75.4028 116.857 76.2331 117.636 76.9396L120.86 83.6204C120.86 83.6204 121.705 83.1598 122.014 83.1344C122.322 83.1091 122.705 82.5978 122.705 82.5978C123.004 82.4439 123.311 82.3071 123.626 82.1879C123.837 82.1372 124.541 81.3427 124.541 81.3427C124.541 81.3427 124.188 80.5758 124.266 80.3708C124.344 80.1659 124.036 79.6525 124.036 79.6525C123.94 79.3958 123.869 79.1305 123.825 78.8601C123.825 78.6488 123.491 78.1692 123.491 78.1692C123.491 78.1692 123.159 77.6558 123.159 77.3748C123.159 77.0938 122.663 75.9846 122.663 75.9846L122.534 71.125L115.69 71.611Z" fill="#CEDDF9"/>
<path opacity="0.05" d="M124.53 81.3427C124.53 81.3427 123.82 82.135 123.615 82.1879C123.301 82.3071 122.993 82.4439 122.694 82.5978C122.694 82.5978 122.31 83.1091 122.003 83.1344C121.783 83.1803 121.569 83.2564 121.37 83.3605C121.095 83.4852 120.848 83.6204 120.848 83.6204L117.621 76.9396C117.339 76.6934 117.077 76.4249 116.837 76.1367C116.401 75.6218 116.012 75.068 115.675 74.4823C115.306 73.8884 115.174 73.1766 115.308 72.4899C115.368 72.1751 115.493 71.8764 115.675 71.6131L117.97 71.4504L122.54 71.125L122.578 72.5638L122.663 75.9846C122.663 75.9846 122.737 76.1557 122.83 76.3818C122.975 76.6961 123.082 77.0266 123.149 77.3664C123.149 77.6495 123.48 78.1608 123.48 78.1608C123.48 78.1608 123.814 78.6467 123.814 78.8517C123.859 79.1227 123.93 79.3887 124.025 79.6461C124.025 79.6461 124.334 80.1574 124.258 80.3603C124.182 80.5631 124.53 81.3427 124.53 81.3427Z" fill="black"/>
<path opacity="0.1" d="M119.329 84.1001C119.183 84.2205 119.058 84.3631 118.957 84.5226C117.564 84.6241 115.946 83.8888 115.525 83.6944C115.532 83.6418 115.532 83.5885 115.525 83.5359L116.003 83.0605C116.003 83.0605 119.941 83.612 119.329 84.1001Z" fill="black"/>
<path d="M123.436 73.126C123.436 73.126 123.225 73.8422 123.155 74.1486C123.085 74.455 122.925 75.9678 122.925 75.9678L122.836 76.3903L121.374 83.3627L121.055 84.8776C120.493 85.1861 119.086 84.3642 119.086 84.3642C117.446 84.5459 115.424 83.4958 115.424 83.4958C115.424 83.4958 115.756 82.4204 115.68 81.8837C115.604 81.3471 116.14 80.9097 116.14 80.9097C116.013 80.4238 116.472 78.2982 116.472 78.2982C116.472 78.2982 116.576 77.5059 116.96 77.301C117.345 77.096 116.909 76.7897 116.806 76.608C116.769 76.4516 116.782 76.2879 116.842 76.1389C116.875 76.0207 116.914 75.9043 116.96 75.7903C115.984 74.8142 115.834 73.2887 115.832 72.4414C115.829 72.2347 115.838 72.028 115.859 71.8224L117.972 71.4526L122.589 70.6455L123.06 72.0949L123.178 72.4583L123.436 73.126Z" fill="#CEDDF9"/>
<path opacity="0.1" d="M123.001 53.5442C122.904 53.7509 122.833 53.9687 122.789 54.1928C122.777 54.2492 122.764 54.3083 122.751 54.3703C122.306 54.6598 122.031 54.6619 121.46 54.6619C121.264 54.6619 121.154 54.2858 120.968 54.2393C120.968 54.2393 120.689 53.2336 120.611 54.0809C120.074 53.971 119.612 54.3893 119.231 54.0238C119.231 53.9752 119.231 53.9266 119.231 53.8759C119.242 53.559 119.227 53.2418 119.187 52.9272C119.187 52.9272 120.677 52.9272 121.801 53.0477C122.557 53.1364 123.146 53.2864 123.001 53.5442Z" fill="black"/>
<path d="M124.057 51.8199C124.056 52.2429 123.962 52.6605 123.78 53.0425C123.599 53.4245 123.334 53.7614 123.007 54.0288C122.679 54.2963 122.296 54.4876 121.885 54.589C121.475 54.6904 121.047 54.6994 120.632 54.6152C120.165 54.5189 119.729 54.3068 119.365 53.9984C119 53.6899 118.719 53.295 118.547 52.8498C118.375 52.4046 118.318 51.9234 118.38 51.4501C118.442 50.9769 118.622 50.5268 118.903 50.1412C119.184 49.7555 119.558 49.4465 119.989 49.2426C120.421 49.0387 120.897 48.9464 121.373 48.974C121.85 49.0017 122.312 49.1485 122.717 49.4009C123.122 49.6534 123.457 50.0035 123.692 50.4191C123.934 50.846 124.06 51.329 124.057 51.8199Z" fill="#D38884"/>
<path opacity="0.1" d="M122.496 56.3037C122.474 56.5404 122.464 56.6925 122.464 56.6925C122.464 56.6925 117.881 56.3861 118.676 55.6171C118.88 55.4048 119.026 55.1425 119.098 54.8564L121.086 55.1818C121.086 55.1818 121.648 55.6171 122.084 56.027C122.208 56.1377 122.346 56.2309 122.496 56.3037Z" fill="black"/>
<path opacity="0.1" d="M123.18 72.6044C122.979 72.6312 122.774 72.6161 122.578 72.5601C122.493 72.5331 122.412 72.497 122.335 72.4523C121.951 72.222 120.672 72.5051 120.672 72.5051C120.672 72.5051 117.19 72.7354 117.036 72.5051C116.949 72.372 116.335 72.391 115.832 72.4312C115.62 72.4481 115.441 72.4692 115.312 72.4819C115.372 72.1671 115.497 71.8684 115.68 71.6051L117.974 71.4424L122.591 70.6353L123.062 72.0847C123.092 72.2598 123.132 72.4333 123.18 72.6044Z" fill="black"/>
<path d="M121.08 55.3357L118.583 54.9258C118.539 55.0242 118.474 55.1118 118.392 55.1826C118.311 55.2534 118.215 55.3056 118.111 55.3357C117.78 55.4117 116.294 56.1808 115.629 57.102L114.963 58.0253C114.963 58.0253 114.425 58.6909 114.604 59.2275C114.784 59.7642 114.989 61.5834 114.989 61.5834L115.244 63.6054C115.244 63.6054 115.73 65.0653 115.578 65.7055C115.426 66.3457 115.654 69.0333 115.654 69.0333L115.143 72.361C115.143 72.361 116.882 72.1307 117.044 72.361C117.207 72.5913 120.681 72.361 120.681 72.361C120.681 72.361 121.948 72.0779 122.344 72.3082C122.602 72.4475 122.898 72.5015 123.189 72.4624C123.189 72.4624 122.882 71.406 123.06 70.825C123.237 70.2439 123.189 69.16 123.189 69.16C123.189 69.16 123.444 67.5986 123.315 67.3176C123.187 67.0366 123.599 66.0119 123.599 66.0119L124.955 58.8705C124.955 58.8705 124.79 57.5901 124.065 57.1548C123.341 56.7196 122.523 56.5907 122.088 56.1829C121.653 55.7751 121.08 55.3357 121.08 55.3357Z" fill="#4C4981"/>
<path d="M122.24 62.3758V63.2209L123.028 65.3465L123.313 67.3177C123.313 67.3177 123.827 68.7249 123.827 69.2193C123.827 69.7137 125.08 72.0611 125.08 72.0611C125.08 72.0611 125.422 72.8555 125.251 73.0076C125.08 73.1598 123.596 76.5403 125.462 76.4389C127.328 76.3375 126.742 72.8048 126.742 72.8048L126.487 71.2688C126.487 71.2688 126.128 67.4276 126.128 67.1466C126.128 67.1466 125.667 65.5091 125.616 65.15C125.566 64.7908 125.232 62.9737 125.232 62.9737L124.951 61.7969L122.24 62.3758Z" fill="#D38884"/>
<path opacity="0.1" d="M121.342 65.0381L118.559 66.6312L117.695 67.9369L118.847 66.7664L121.342 65.0381Z" fill="black"/>
<path opacity="0.1" d="M120.499 68.0889C120.499 68.0889 119.231 68.915 118.636 68.915C118.04 68.915 116.658 70.3348 116.658 70.3348C116.658 70.3348 118.617 69.0671 118.771 69.1073C118.925 69.1474 120.499 68.0889 120.499 68.0889Z" fill="black"/>
<path opacity="0.1" d="M117.254 68.5308C117.254 68.5308 116.064 69.6062 116.371 69.7224C116.677 69.8386 118.272 68.5308 118.272 68.5308H117.254Z" fill="black"/>
<path opacity="0.1" d="M122.515 64.6914C122.515 64.6914 121.593 65.9401 121.843 65.9211C122.092 65.9021 122.802 65.19 122.802 65.19L122.515 64.6914Z" fill="black"/>
<path opacity="0.1" d="M122.648 65.9214C122.648 65.9214 121.651 67.0539 121.689 67.3412C121.727 67.6286 122.648 65.9214 122.648 65.9214Z" fill="black"/>
<path opacity="0.1" d="M122.899 66.4873C122.899 66.4873 122.227 67.6874 122.515 67.9367C122.802 68.186 122.899 66.4873 122.899 66.4873Z" fill="black"/>
<path opacity="0.1" d="M122.029 63.4048C122.029 63.4048 121.528 64.2499 121.894 64.307C122.259 64.364 122.295 64.307 122.295 64.307L122.029 63.4048Z" fill="black"/>
<path opacity="0.1" d="M122.168 60.314C122.044 60.8305 121.872 61.3347 121.657 61.8204C121.577 61.5729 121.51 61.3211 121.458 61.0661C121.669 60.7922 121.907 60.5402 122.168 60.314Z" fill="black"/>
<path opacity="0.1" d="M123.692 50.4191C123.642 50.5271 123.577 50.6274 123.499 50.717C123.368 50.8351 123.252 50.9685 123.153 51.1143C123.075 51.3321 123.033 51.5611 123.028 51.7925C122.99 52.0207 122.846 52.2742 122.606 52.2805C122.487 52.2705 122.372 52.236 122.267 52.1791C122.215 52.152 122.157 52.1388 122.098 52.1406C122.039 52.1425 121.982 52.1594 121.932 52.1897C121.865 52.2575 121.826 52.3481 121.824 52.4432C121.795 52.6418 121.783 52.8427 121.79 53.0433C121.79 53.1236 121.79 53.2017 121.803 53.282C121.862 53.5345 121.846 53.7987 121.758 54.0427C121.648 54.2193 121.481 54.3533 121.285 54.423C121.072 54.5109 120.849 54.5733 120.622 54.6089C120.188 54.6621 119.75 54.6763 119.314 54.6512C119.273 54.6523 119.233 54.6458 119.195 54.6322C119.177 54.6247 119.16 54.614 119.145 54.6005C119.193 54.3604 119.219 54.1164 119.223 53.8715C118.93 53.5868 118.701 53.2423 118.552 52.8615C118.404 52.4806 118.339 52.0723 118.362 51.6642C118.385 51.2561 118.495 50.8577 118.686 50.496C118.876 50.1343 119.142 49.8177 119.466 49.5678C119.789 49.3179 120.163 49.1404 120.561 49.0474C120.959 48.9545 121.372 48.9481 121.773 49.0288C122.174 49.1096 122.552 49.2755 122.883 49.5154C123.214 49.7552 123.49 50.0635 123.692 50.4191Z" fill="black"/>
<path d="M122.5 48.0045C122.238 47.9771 121.991 48.1165 121.733 48.1735C121.203 48.2898 120.66 48.0489 120.115 48.051C119.646 48.0776 119.19 48.2137 118.783 48.4482C118.455 48.6036 118.155 48.8136 117.896 49.0694C117.636 49.3293 117.485 49.6783 117.473 50.0455C117.509 50.256 117.503 50.4715 117.454 50.6794C117.4 50.7842 117.334 50.8833 117.26 50.9752C117.193 51.0835 117.15 51.2051 117.134 51.3318C117.118 51.4584 117.13 51.5869 117.169 51.7083C117.278 51.949 117.426 52.1702 117.607 52.3633C117.957 52.8134 118.177 53.3521 118.492 53.8296C118.629 54.037 118.783 54.2327 118.952 54.4149C118.98 54.4472 119.014 54.4738 119.052 54.4931C119.089 54.5062 119.129 54.5119 119.168 54.51C119.836 54.529 120.527 54.5438 121.141 54.2818C121.338 54.2135 121.506 54.0791 121.615 53.9015C121.703 53.6578 121.719 53.3936 121.661 53.1409C121.633 52.8594 121.64 52.5756 121.68 52.2957C121.683 52.2013 121.721 52.1114 121.788 52.0443C121.838 52.013 121.896 51.9955 121.956 51.9937C122.015 51.9918 122.074 52.0056 122.126 52.0337C122.23 52.0887 122.344 52.1232 122.462 52.1351C122.692 52.1351 122.838 51.8731 122.884 51.645C122.859 51.4399 122.889 51.2318 122.972 51.0425C123.055 50.8533 123.188 50.6899 123.356 50.5695C123.514 50.3687 123.623 50.1333 123.673 49.8826C123.723 49.6319 123.714 49.3728 123.645 49.1264C123.493 48.6511 123.028 48.0573 122.5 48.0045Z" fill="#1E1637"/>
<path opacity="0.1" d="M125.24 60.1383C125.184 60.4882 125.184 60.8449 125.24 61.1948C125.215 61.4779 125.24 63.0393 125.24 63.0393C124.395 62.7815 122.246 63.2949 122.246 63.2949L121.991 62.528C121.845 62.3387 121.736 62.1237 121.67 61.8941C121.589 61.6459 121.523 61.3933 121.471 61.1377C121.359 60.6065 121.275 60.0698 121.219 59.5298C121.112 58.7164 122.322 57.8395 123.239 57.3536C124.156 56.8676 124.959 58.9403 124.959 58.9403C124.959 58.9403 125.342 59.7369 125.24 60.1383Z" fill="black"/>
<path d="M125.24 59.9925C125.184 60.3424 125.184 60.6991 125.24 61.049C125.215 61.33 125.24 62.8914 125.24 62.8914C124.395 62.6357 122.246 63.147 122.246 63.147L121.991 62.3801C121.844 62.1911 121.735 61.976 121.67 61.7462C121.589 61.4987 121.523 61.2468 121.471 60.9919C121.36 60.4606 121.276 59.924 121.219 59.384C121.112 58.5685 122.322 57.6938 123.239 57.2057C124.156 56.7176 124.959 58.7924 124.959 58.7924C124.959 58.7924 125.342 59.5826 125.24 59.9925Z" fill="#4C4981"/>
<path opacity="0.2" d="M123.616 49.1264C123.572 48.9812 123.508 48.8426 123.427 48.7144C123.44 48.7503 123.453 48.7841 123.463 48.82C123.532 49.0664 123.541 49.3254 123.491 49.5761C123.441 49.8269 123.332 50.0622 123.174 50.2631C123.006 50.3834 122.874 50.5468 122.791 50.7361C122.708 50.9254 122.677 51.1335 122.703 51.3385C122.667 51.5667 122.521 51.8181 122.28 51.8266C122.162 51.8166 122.047 51.782 121.942 51.7252C121.89 51.6981 121.832 51.6848 121.773 51.6867C121.714 51.6885 121.657 51.7054 121.606 51.7357C121.54 51.8036 121.501 51.8942 121.498 51.9893C121.458 52.2692 121.451 52.553 121.479 52.8344C121.503 53.0922 121.553 53.369 121.433 53.5972C121.322 53.7728 121.155 53.9065 120.96 53.9775C120.345 54.2395 119.654 54.2247 118.986 54.2057C118.947 54.2069 118.907 54.2004 118.87 54.1866C118.831 54.1687 118.797 54.1419 118.771 54.1085C118.6 53.9278 118.446 53.7319 118.31 53.5232C117.995 53.0457 117.776 52.509 117.425 52.0569C117.33 51.9343 117.214 51.8139 117.135 51.685V51.7104C117.243 51.9519 117.391 52.1733 117.573 52.3654C117.921 52.8154 118.143 53.3542 118.456 53.8317C118.593 54.0395 118.748 54.2353 118.919 54.4169C118.946 54.4492 118.979 54.4757 119.016 54.4951C119.053 54.5081 119.093 54.5138 119.132 54.512C119.8 54.531 120.493 54.5458 121.105 54.2838C121.302 54.2155 121.47 54.0812 121.579 53.9035C121.667 53.6598 121.684 53.3956 121.625 53.1429C121.599 52.8614 121.606 52.5778 121.644 52.2978C121.649 52.2037 121.687 52.1144 121.752 52.0463C121.802 52.015 121.86 51.9976 121.92 51.9957C121.979 51.9939 122.038 52.0077 122.09 52.0358C122.195 52.0908 122.309 52.1252 122.426 52.1372C122.658 52.1372 122.802 51.8752 122.849 51.647C122.852 51.4155 122.894 51.1863 122.973 50.9688C123.072 50.8225 123.188 50.6891 123.32 50.5716C123.479 50.3708 123.589 50.1354 123.64 49.8843C123.692 49.6332 123.683 49.3736 123.616 49.1264Z" fill="black"/>
<path d="M144.214 49.6821L142.388 53.5613C142.388 53.5613 142.12 54.2903 141.947 54.4255C141.773 54.5607 141.006 56.8637 141.006 56.8637L139.048 59.8809L138.915 60.0921L138.148 59.8809L137.609 57.8694L137.641 57.2863V57.2123C137.641 57.2123 138.849 55.9446 139.12 55.8495C139.12 55.8495 139.331 55.8749 139.732 54.8924C140.134 53.9099 140.501 53.6987 140.501 53.6987L140.713 52.9887L142.98 49.3779C142.98 49.3779 144.881 46.6544 145.399 47.863C145.917 49.0715 144.214 49.6821 144.214 49.6821Z" fill="#FFD2C6"/>
<path d="M136.633 77.2375C136.627 77.3033 136.606 77.3669 136.571 77.4234C136.36 77.7319 135.171 84.0092 135.171 84.0092C135.266 84.4317 134.997 85.2769 134.824 85.6614C134.651 86.0459 134.266 88.0405 134.266 88.0405C134.266 88.0405 134.171 92.3422 133.924 93.0141C133.677 93.686 134.002 95.127 134.002 95.127C133.979 95.7883 134.376 96.4897 134.613 96.8447L134.659 96.9123C134.735 97.0222 134.786 97.0856 134.786 97.0856C134.851 97.2138 134.943 97.3268 135.054 97.4173L135.109 97.4596C135.436 97.6777 135.801 97.8318 136.185 97.9138H136.223C136.375 97.9476 136.476 97.9624 136.476 97.9624L136.571 98.4822L135.555 98.6935L133.616 98.8266C133.616 98.8266 131.329 99.0019 131.849 97.9814C131.885 97.9133 131.916 97.8427 131.942 97.7701C131.962 97.7203 131.98 97.6696 131.995 97.618C132.308 96.6398 132.096 95.4502 132.096 95.4502L131.655 91.9767C130.926 88.7504 132.227 85.1607 132.227 85.1607C132.227 85.1607 132.115 84.8733 132.365 84.1444C132.614 83.4155 132.365 81.8203 132.365 81.8203C132.365 81.8203 132.232 79.7666 132.058 78.7503C131.99 78.3222 131.967 77.8881 131.989 77.4551C131.997 77.2018 132.02 76.9493 132.058 76.6987L136.434 76.1177C136.434 76.1177 136.685 76.8297 136.633 77.2375Z" fill="#FFD2C6"/>
<path opacity="0.1" d="M136.571 98.4864L135.555 98.6977L133.616 98.8308C133.616 98.8308 131.33 99.0062 131.849 97.9857C131.885 97.9176 131.916 97.847 131.942 97.7744C131.962 97.7246 131.98 97.6738 131.995 97.6223C132.391 97.6353 132.782 97.7139 133.153 97.8547C133.804 98.1061 134.294 97.4511 134.294 97.4511L134.611 96.8469L134.657 96.7603C134.733 96.8701 134.784 96.9335 134.784 96.9335C134.861 97.082 134.971 97.2101 135.107 97.3075L135.052 97.4195L134.746 98.066C134.746 98.066 135.139 98.1061 135.676 98.1928C135.78 98.2196 135.89 98.206 135.984 98.1546C136.078 98.1032 136.149 98.0179 136.183 97.916H136.221C136.373 97.9498 136.474 97.9646 136.474 97.9646L136.571 98.4864Z" fill="black"/>
<path d="M137.512 98.9639C137.436 99.3104 135.295 99.416 135.295 99.416C135.295 99.416 134.104 99.3019 133.77 99.5787C133.436 99.8555 132.454 99.79 132.416 99.79C132.377 99.79 131.86 99.771 131.657 98.8413C131.454 97.9116 131.921 97.7849 131.942 97.7701C132.356 97.7761 132.766 97.8555 133.153 98.0046C133.804 98.256 134.294 97.6011 134.294 97.6011L134.657 96.9102C134.733 97.02 134.784 97.0834 134.784 97.0834C134.861 97.2319 134.971 97.3601 135.107 97.4574L134.746 98.2159C134.746 98.2159 135.139 98.256 135.676 98.3406C135.74 98.3553 135.807 98.3555 135.871 98.3413C135.936 98.3271 135.996 98.2987 136.048 98.2583C136.1 98.2179 136.143 98.1664 136.173 98.1075C136.203 98.0487 136.219 97.9839 136.221 97.918C136.222 97.899 136.222 97.8799 136.221 97.8609C136.221 97.8609 136.555 97.9581 136.969 98.0722C137.155 98.1257 137.313 98.2471 137.414 98.4122C137.515 98.5773 137.549 98.7742 137.512 98.9639Z" fill="#626696"/>
<path d="M141.545 81.8142C141.494 82.1206 141.442 82.915 141.442 82.915C141.621 83.5806 141.161 85.161 141.161 85.161L140.93 86.0632C141.032 87.2147 140.296 90.0311 140.296 90.0311C140.296 90.0311 139.804 92.6426 139.548 93.7687C139.395 94.3948 139.442 95.053 139.682 95.6513L139.701 95.6977C139.701 95.7189 139.711 95.74 139.715 95.7611C139.723 95.7921 139.733 95.8225 139.745 95.852C139.802 96.007 139.887 96.1503 139.996 96.2746C140.038 96.3253 140.084 96.3726 140.134 96.4161C140.375 96.6295 140.65 96.7996 140.949 96.919L141.078 96.9697C141.212 97.0192 141.348 97.0615 141.486 97.0964H141.532L141.429 97.7007L140.072 97.3521L138.255 96.7626L137.374 96.2682C137.374 96.2682 137.374 96.2196 137.402 96.1266C137.403 96.1211 137.403 96.1153 137.402 96.1097C137.402 96.0696 137.419 96.0231 137.429 95.9682C137.569 95.1759 137.915 92.9595 137.742 91.3199C137.531 89.2979 138.376 86.5069 138.572 85.8434C138.694 85.463 138.747 85.0635 138.727 84.6644C138.393 84.1785 138.317 82.2326 138.317 82.2326C138.317 82.2326 137.702 80.9775 137.195 79.6464C137.026 79.212 136.903 78.7608 136.829 78.3005C136.769 77.9767 136.744 77.6473 136.755 77.3181C136.755 77.3181 140.877 73.5551 141.33 77.1976C141.344 77.3223 141.359 77.4385 141.374 77.5547C141.775 80.9036 141.594 81.5163 141.545 81.8142Z" fill="#FFD2C6"/>
<path opacity="0.1" d="M141.545 97.1132L141.442 97.7175L140.085 97.3688L138.268 96.7794L137.374 96.268C137.374 96.268 137.374 96.2195 137.402 96.1265C137.403 96.1209 137.403 96.1152 137.402 96.1096C137.402 96.0694 137.419 96.023 137.429 95.968H137.556C137.814 95.943 138.075 95.9784 138.317 96.0716C138.612 96.1814 139.001 96.3082 139.079 96.2554C139.217 96.1966 139.366 96.1706 139.515 96.1793L139.703 95.7567L139.732 95.6934C139.789 95.8487 139.874 95.992 139.984 96.1159C140.029 96.169 140.078 96.2191 140.129 96.2659V96.4117L140.119 96.623C140.322 96.7522 140.542 96.8532 140.772 96.923C140.831 96.9379 140.894 96.9379 140.953 96.923L141.082 96.9737C141.216 97.0233 141.352 97.0656 141.49 97.1005L141.545 97.1132Z" fill="black"/>
<path d="M140.865 98.4084C140.487 98.3007 139.574 98.1253 139.426 98.2605C139.278 98.3958 138.012 98.2605 138.012 98.2605C137.88 98.2585 137.75 98.2222 137.636 98.1552C137.521 98.0882 137.426 97.9927 137.36 97.8781C137.095 97.4682 137.309 96.1435 137.309 96.1435H137.402L137.558 96.1266C137.816 96.1016 138.076 96.1363 138.319 96.228C138.615 96.34 139.003 96.4667 139.082 96.4139C139.218 96.3538 139.368 96.327 139.517 96.3357L139.728 95.8604C139.785 96.0154 139.871 96.1586 139.979 96.2829C140.024 96.3358 140.073 96.3853 140.125 96.4308L140.106 96.7837C140.309 96.913 140.529 97.0146 140.759 97.0858C140.815 97.1069 140.876 97.1086 140.933 97.0906C140.99 97.0726 141.039 97.0359 141.072 96.9865C141.082 96.9698 141.089 96.9521 141.095 96.9337C141.266 97.0143 141.446 97.0739 141.632 97.1112C141.869 97.0864 142.108 97.1491 142.302 97.2876C142.497 97.4261 142.634 97.6308 142.688 97.8633C142.889 98.4528 141.243 98.5162 140.865 98.4084Z" fill="#626696"/>
<path opacity="0.1" d="M136.633 77.2375L136.398 77.3093C136.214 77.3653 136.025 77.4049 135.834 77.4276C134.621 77.5988 132.625 77.4952 131.991 77.4551C131.999 77.2018 132.022 76.9493 132.06 76.6987L136.436 76.1177C136.436 76.1177 136.686 76.8297 136.633 77.2375Z" fill="black"/>
<path d="M140.451 76.1748C140.451 76.1748 138.845 76.4241 137.537 76.7093C137.102 76.8044 136.692 76.9058 136.398 77.0009C136.214 77.0566 136.025 77.0969 135.834 77.1213C134.378 77.3326 131.792 77.1361 131.792 77.1361C131.082 74.8331 132.654 71.9322 132.654 71.9322C132.618 71.7019 132.982 70.9941 132.982 70.9941V70.9708L133.206 70.1489H139.175L139.249 70.5018L139.401 71.2201L140.339 75.6719L140.451 76.1748Z" fill="#626696"/>
<path opacity="0.1" d="M141.376 77.5716L141.34 77.5864L140.641 77.897C139.884 78.2456 137.622 78.3196 136.838 78.3196C136.778 77.9957 136.753 77.6663 136.764 77.3371C136.764 77.3371 140.886 73.5741 141.338 77.2167C141.346 77.3392 141.361 77.4639 141.376 77.5716Z" fill="black"/>
<path d="M141.486 77.2143L141.34 77.2798L140.641 77.5904C139.872 77.9453 137.535 78.0129 136.787 78.0129H136.591C136.246 78.0024 135.9 77.6791 135.9 77.5904C135.9 77.5439 135.864 77.3157 135.834 77.1213C135.807 76.965 135.786 76.8298 135.786 76.8298C134.983 76.4844 134.207 76.0827 133.461 75.6275C132.876 75.2282 133.024 72.3907 133.136 70.9645C133.176 70.4722 133.212 70.1489 133.212 70.1489L139.255 70.5018L140.1 70.5504L140.584 70.6581L140.713 70.6856C140.713 70.6856 141.061 73.221 141.232 73.4323C141.404 73.6436 141.292 74.3535 141.27 74.7592C141.27 74.9333 141.251 75.1068 141.213 75.2768C141.213 75.2768 141.463 75.9867 141.406 76.3839C141.38 76.6633 141.407 76.9451 141.486 77.2143Z" fill="#626696"/>
<path d="M135.016 56.1727C136.384 56.1727 137.493 55.0641 137.493 53.6965C137.493 52.3289 136.384 51.2202 135.016 51.2202C133.649 51.2202 132.54 52.3289 132.54 53.6965C132.54 55.0641 133.649 56.1727 135.016 56.1727Z" fill="#FFD2C6"/>
<path d="M133.808 54.7275C133.808 54.7275 133.979 57.0728 133.499 57.6116C132.951 58.1602 132.374 58.6793 131.771 59.1666L132.156 60.7597L134.325 61.009L136.861 58.3025L136.284 57.6031C136.284 57.6031 135.843 56.1051 136.206 55.3572C136.569 54.6092 133.808 54.7275 133.808 54.7275Z" fill="#FFD2C6"/>
<path opacity="0.1" d="M139.048 59.8804L138.915 60.0917L138.148 59.8804L137.609 57.869L137.641 57.2858L137.799 57.0576C137.799 57.0576 138.644 57.0766 138.608 57.8457C138.572 58.5176 138.957 59.6247 139.048 59.8804Z" fill="black"/>
<path opacity="0.1" d="M140.717 70.9941C140.717 70.9941 140.106 71.1293 139.407 71.2201C138.708 71.311 137.9 71.3596 137.569 71.1652C137.013 70.8356 134.002 70.9307 133.132 70.9645H132.984L133.208 70.1426H139.177L139.251 70.4954L140.096 70.544L140.58 70.6518C140.668 70.8588 140.717 70.9941 140.717 70.9941Z" fill="black"/>
<path d="M137.647 57.208C137.647 57.208 138.492 57.227 138.454 57.9961C138.416 58.7652 138.915 60.0878 138.915 60.0878L138.722 60.5294C138.722 60.5294 138.454 61.6048 138.665 61.8732C138.877 62.1415 139.644 62.1415 139.202 64.3494C139.202 64.3494 139.107 66.0017 139.337 66.5383C139.567 67.075 139.567 68.3617 139.912 68.9005C140.226 69.474 140.496 70.0709 140.719 70.6859C140.719 70.6859 138.224 71.2415 137.571 70.8591C136.918 70.4767 132.906 70.6668 132.906 70.6668C132.906 70.6668 132.925 69.995 132.906 69.9168C132.887 69.8333 132.886 69.7468 132.902 69.6628C132.919 69.5788 132.952 69.4991 133.001 69.4287C133.136 69.2449 133.347 68.9385 133.231 68.6702C133.115 68.4019 133.518 68.0047 133.307 67.5884C133.096 67.1722 132.84 67.0898 132.885 66.8616C132.896 66.7308 132.881 66.599 132.84 66.4741C132.8 66.3493 132.734 66.2339 132.648 66.1348C132.496 65.9425 131.458 63.9142 131.458 63.9142L131.285 62.9676C131.285 62.9676 129.95 61.9894 129.975 61.5288C130.001 61.0682 130.48 60.428 130.48 60.428L131.765 59.1603C131.765 59.1603 132.477 59.9272 133.168 59.6589C133.859 59.3906 135.344 58.1039 135.344 58.1039C135.344 58.1039 135.874 57.8165 135.912 57.6052C135.95 57.3939 136.278 57.5862 136.278 57.5862C136.278 57.5862 136.757 57.3221 136.852 57.4151C137.015 57.5 137.191 57.5578 137.372 57.5862L137.647 57.208Z" fill="#FFCDE5"/>
<path d="M130.389 61.2075L129.981 61.5287C129.672 62.1843 129.497 62.8957 129.468 63.6204C129.36 64.7101 129.187 65.7924 128.95 66.8615L128.143 68.3046C128.143 68.3046 126.819 71.0872 126.645 71.8267C126.472 72.5662 125.686 73.8149 125.686 73.8149C125.686 73.8149 123.018 76.213 124.879 76.6461C126.74 77.0792 126.8 74.7445 126.8 74.7445C126.8 74.7445 127.222 74.2649 127.304 73.9374C127.387 73.6099 129.736 69.4349 129.736 69.4349C129.736 69.4349 130.563 68.3109 130.389 67.7151C130.389 67.7151 131.465 65.1797 131.465 64.5458C131.445 64.0156 131.387 63.4874 131.291 62.9654L131.465 61.6407L130.389 61.2075Z" fill="#FFD2C6"/>
<path opacity="0.1" d="M135.919 66.5C135.919 66.5 134.038 67.4846 133.673 67.5374C133.307 67.5902 135.266 67.3261 135.266 67.3261L135.919 66.5Z" fill="black"/>
<path opacity="0.1" d="M137.452 67.2671C137.452 67.2671 134.957 68.1122 133.861 67.9601C133.861 67.9559 136.59 68.4778 137.452 67.2671Z" fill="black"/>
<path opacity="0.1" d="M137.609 67.5439C137.609 67.5439 135.361 68.9574 134.038 68.7271C134.038 68.7271 137.129 69.342 137.609 69.0145L136.227 68.6321C136.227 68.6321 137.761 67.8186 137.609 67.5439Z" fill="black"/>
<path opacity="0.1" d="M135.021 49.3377C134.697 49.2579 134.359 49.2486 134.031 49.3102C133.703 49.3718 133.392 49.5029 133.119 49.6947C132.735 49.9969 132.485 50.4596 132.046 50.6857C131.817 50.7831 131.583 50.8657 131.344 50.9329C130.924 51.105 130.573 51.4136 130.349 51.8091C130.124 52.2045 130.04 52.6639 130.108 53.1133C130.176 53.4936 130.353 53.8444 130.442 54.2205C130.598 54.8902 130.459 55.5917 130.29 56.2594C129.817 58.1106 129.099 59.8905 128.156 61.552C128.082 61.655 128.044 61.7801 128.05 61.907C128.074 61.9922 128.119 62.07 128.181 62.1331C129.069 63.1578 130.505 63.5107 131.868 63.5571C132.369 63.6066 132.873 63.5228 133.33 63.3142C133.613 63.1516 133.856 62.9287 134.042 62.6613C134.514 62.0162 134.748 61.2281 134.706 60.4301C134.67 59.7857 134.454 59.1349 134.617 58.5117C134.633 58.4246 134.673 58.3436 134.731 58.2771C134.877 58.1271 135.12 58.1673 135.327 58.1419C135.891 58.0764 136.255 57.4827 136.322 56.9186C136.39 56.3544 136.248 55.7882 136.244 55.2283C136.242 54.4786 136.476 53.7474 136.914 53.1387C137.102 52.8809 137.336 52.6274 137.404 52.3041C137.484 51.8984 137.25 51.6005 137.047 51.2815C136.732 50.7829 136.578 50.2018 136.098 49.8215C135.782 49.5784 135.413 49.4127 135.021 49.3377Z" fill="black"/>
<path d="M134.866 49.1831C134.544 49.1044 134.209 49.0956 133.883 49.1571C133.558 49.2187 133.249 49.3493 132.978 49.5401C132.593 49.8444 132.344 50.3071 131.902 50.5332C131.673 50.629 131.439 50.7108 131.201 50.7783C130.781 50.9502 130.431 51.2581 130.206 51.6527C129.982 52.0473 129.897 52.5057 129.965 52.9545C130.032 53.3348 130.21 53.6855 130.298 54.0616C130.455 54.7314 130.317 55.4329 130.146 56.1005C129.674 57.9482 128.957 59.7245 128.014 61.3826C127.939 61.4848 127.901 61.6105 127.909 61.7376C127.931 61.8232 127.975 61.9014 128.038 61.9637C128.925 62.9905 130.362 63.3412 131.725 63.3877C132.225 63.4371 132.729 63.3541 133.187 63.1469C133.469 62.9829 133.712 62.7594 133.899 62.4919C134.369 61.8464 134.603 61.0584 134.56 60.2607C134.522 59.6269 134.307 58.9655 134.469 58.3422C134.487 58.2558 134.526 58.1752 134.583 58.1077C134.731 57.9577 134.972 57.9979 135.181 57.9746C135.743 57.9091 136.107 57.3133 136.174 56.7513C136.242 56.1893 136.1 55.6209 136.098 55.061C136.095 54.3118 136.33 53.581 136.768 52.9735C136.954 52.7136 137.191 52.4601 137.258 52.1284C137.336 51.7227 137.102 51.4269 136.899 51.1057C136.584 50.6092 136.43 50.0261 135.95 49.6458C135.63 49.4093 135.259 49.2508 134.866 49.1831Z" fill="#985C7E"/>
<path opacity="0.1" d="M134.038 73.1875C134.038 73.1875 134.53 75.4926 135.35 76.118L134.038 73.1875Z" fill="black"/>
<g opacity="0.1">
<path opacity="0.1" d="M130.11 53.4744C130.085 53.3856 130.055 53.2948 130.024 53.2061C130.058 53.2969 130.079 53.3772 130.11 53.4744Z" fill="black"/>
<path opacity="0.1" d="M137.114 51.4756C137.123 51.5457 137.123 51.6167 137.114 51.6869C137.051 52.0101 136.812 52.2637 136.624 52.5214C136.187 53.1304 135.953 53.8615 135.955 54.6111C135.955 55.1794 136.098 55.7457 136.031 56.3013C135.963 56.857 135.608 57.4592 135.038 57.5226C134.826 57.5479 134.587 57.5078 134.442 57.6578C134.384 57.7251 134.344 57.8057 134.326 57.8923C134.163 58.5156 134.38 59.16 134.416 59.8108C134.456 60.609 134.218 61.3963 133.744 62.0398C133.559 62.3077 133.315 62.5308 133.032 62.6927C132.576 62.9014 132.072 62.9853 131.572 62.9357C130.239 62.8913 128.826 62.5469 127.93 61.5602C127.906 61.6191 127.899 61.6834 127.909 61.7461C127.93 61.8318 127.975 61.9099 128.038 61.9722C128.925 62.9991 130.362 63.3498 131.725 63.3963C132.225 63.4457 132.729 63.3626 133.187 63.1554C133.469 62.9915 133.712 62.7679 133.899 62.5004C134.369 61.8549 134.603 61.0669 134.56 60.2693C134.522 59.6354 134.306 58.9741 134.469 58.3508C134.487 58.2643 134.526 58.1837 134.583 58.1163C134.731 57.9663 134.972 58.0064 135.181 57.9832C135.743 57.9177 136.107 57.3218 136.174 56.7598C136.242 56.1978 136.1 55.6294 136.098 55.0695C136.095 54.3204 136.33 53.5895 136.768 52.982C136.954 52.7222 137.191 52.4686 137.258 52.1369C137.293 51.9063 137.242 51.6709 137.114 51.4756Z" fill="black"/>
</g>
<path opacity="0.1" d="M27.4239 106.116C29.8931 106.116 31.8947 105.914 31.8947 105.664C31.8947 105.414 29.8931 105.212 27.4239 105.212C24.9548 105.212 22.9531 105.414 22.9531 105.664C22.9531 105.914 24.9548 106.116 27.4239 106.116Z" fill="#1894EC"/>
<path d="M28.9874 98.189C28.9874 98.189 23.156 101.202 26.1689 104.739C26.2537 104.959 26.406 105.147 26.6041 105.276C26.8022 105.405 27.0359 105.467 27.2718 105.455C27.2718 105.455 27.107 105.157 27.7345 104.918C27.9582 104.832 28.1709 104.72 28.3684 104.585C28.6336 104.401 28.8317 104.136 28.9325 103.83C28.9325 103.83 30.1263 102.235 29.2008 99.2834C29.2008 99.2834 29.3213 98.4383 29.2156 98.3136L28.5078 99.2834C28.5078 99.2834 29.241 99.7757 29.3255 100.498C29.3255 100.498 28.5627 99.2855 28.3958 99.425C28.362 99.4524 28.0451 99.9553 28.0451 99.9553C28.0451 99.9553 29.3128 100.817 29.4079 101.935C29.4079 101.935 28.6937 100.369 27.9289 100.145L27.4936 100.934C27.4936 100.934 28.8797 101.779 29.036 103.046C29.036 103.046 28.231 101.436 27.4091 101.113L27.0859 101.946C27.0859 101.946 28.4212 102.791 28.5437 103.847C28.5437 103.847 27.426 102.081 27.0246 102.138C27.0246 102.138 26.7732 102.92 26.8133 103.16C26.8133 103.16 27.7599 103.794 27.7768 104.413C27.7768 104.413 26.9042 103.311 26.7689 103.384C26.7689 103.384 26.714 104.492 26.9802 105.075C26.7057 104.555 26.5723 103.972 26.5936 103.384C26.3233 103.623 26.1293 103.936 26.0358 104.285C26.0358 104.285 25.7844 103.674 26.6105 103.116C26.6105 103.116 26.6887 102.254 26.7837 102.148C26.7837 102.148 25.89 102.584 25.516 103.12C25.516 103.12 25.6555 102.322 26.8682 101.924L27.1767 101.079C27.1767 101.079 25.9639 101.593 25.5879 102.045C25.5879 102.045 25.8583 101.253 27.2781 100.872L27.7007 100.095C27.7007 100.095 26.6232 100.458 26.0971 100.872C26.0971 100.872 26.5048 100.19 27.8296 99.8771L28.1719 99.3891C28.1719 99.3891 27.388 99.6701 27.1704 99.7694C26.9528 99.8687 26.9084 99.8201 26.9084 99.8201C27.3078 99.4821 27.7937 99.2626 28.3113 99.1862C28.3113 99.1862 29.0403 98.2418 28.9874 98.189Z" fill="#1894EC"/>
<path d="M34.7322 103.551C35.3429 103.912 36.2979 104.147 37.5001 103.371L37.4874 105.085C37.574 106.262 39.0255 110.542 39.0255 110.542L40.0503 114.067C40.7853 116.555 41.1651 119.135 41.1785 121.73C41.1523 122.547 41.263 123.362 41.506 124.143C42.0512 125.622 41.2947 127.523 40.9609 128.227C40.3524 128.438 39.7249 128.597 39.2706 128.702C39.2189 128.714 39.1681 128.73 39.1185 128.749V128.738C39.1185 128.738 37.5804 129.349 36.8958 129.264C36.3866 129.201 36.0676 129.837 36.4732 130.304C36.1416 130.406 35.7952 130.452 35.4485 130.439C34.7639 130.354 34.4238 131.531 35.7042 131.867C36.9845 132.203 44.2527 131.867 44.2527 131.867C44.4574 131.765 44.6222 131.598 44.7212 131.391C44.8203 131.185 44.848 130.952 44.8 130.728C45.3578 130.707 45.7064 130.69 45.7064 130.69C45.7064 130.69 46.9889 130.103 45.7064 128.508L45.6388 128.561L45.3641 127.754V126.661C45.3641 126.661 46.9889 118.844 46.4755 117.931C45.962 117.018 45.7064 112.307 45.7064 112.307L45.8775 107.185C46.3402 106.228 46.579 104.73 46.6994 103.557C46.8735 102.997 46.9834 102.42 47.0269 101.835C47.0459 101.561 47.0628 101.271 47.0734 100.971C47.0802 100.314 46.9751 99.66 46.7628 99.0378C47.3408 98.176 47.9881 97.3627 48.6982 96.6059C48.9934 96.3315 49.2176 95.9895 49.3515 95.6094C49.4855 95.2292 49.5252 94.8222 49.4672 94.4234L49.0447 91.5689L48.0178 86.7094C48.1467 85.3571 47.8657 84.5796 47.553 84.1401C47.627 83.7049 47.6967 83.2675 47.7495 82.8302C47.9766 80.9254 47.8751 78.9959 47.4495 77.1255C47.3016 76.4726 47.0987 75.8028 46.6424 75.3084C46.1226 74.7485 45.2817 74.4062 45.0894 73.6731C45.0598 73.4873 45.0203 73.3032 44.9711 73.1216C44.7831 72.6399 44.1894 72.4666 43.6696 72.4033C42.7442 72.2913 41.4067 72.2047 40.5172 72.5681C39.8982 72.8237 39.0382 73.521 38.7023 74.271C38.4998 74.5834 38.4242 74.9612 38.491 75.3274C38.5234 75.4528 38.5732 75.573 38.6389 75.6845C38.5016 76.0442 38.4301 76.4257 38.4276 76.8107C38.431 77.4685 38.6323 78.1102 39.0054 78.6521C39.3785 79.1939 39.906 79.611 40.5193 79.8489C40.5383 79.9123 40.5574 79.9757 40.5743 80.0391C40.6128 80.189 40.6404 80.3415 40.6567 80.4955C40.6419 80.7934 40.6229 81.0913 40.6081 81.3871C40.6 81.4279 40.5894 81.4681 40.5764 81.5075C39.8405 81.8333 39.1232 82.1994 38.4276 82.6041C38.941 83.3584 38.3431 86.5488 38.3431 86.5488C37.0606 87.3052 35.7781 89.2363 37.1451 91.2499C38.5121 93.2634 37.7431 95.4227 37.7431 95.4227L37.5318 98.7061L37.4895 99.3611H37.5064L37.4895 99.6104H37.5254V99.8787C36.9233 100.09 36.0464 100.542 35.5246 101.358C35.2765 101.762 34.9752 102.132 34.6287 102.456C34.544 102.525 34.4775 102.613 34.4352 102.713C34.393 102.814 34.3762 102.923 34.3865 103.031C34.3967 103.14 34.4337 103.244 34.494 103.335C34.5543 103.425 34.6362 103.5 34.7322 103.551ZM45.0535 94.829C45.0022 94.2615 45.1074 93.6908 45.3578 93.1789C45.5585 93.1789 45.7613 93.1789 45.962 93.1789C45.9832 93.3205 46.0064 93.4557 46.036 93.5782C46.2092 94.3262 45.5162 94.679 45.0535 94.829Z" fill="url(#paint0_linear)"/>
<path d="M45.2224 127.369L45.552 128.356L44.4871 129.425L40.9502 130.247L38.4 130L38.5648 129.095C38.6133 128.901 38.7145 128.724 38.8573 128.583C39.0001 128.443 39.1789 128.344 39.374 128.299C40.4305 128.052 42.4208 127.492 42.8412 126.71L45.2224 127.369Z" fill="#DB8B8B"/>
<path opacity="0.1" d="M45.2224 127.369L45.552 128.356L44.4871 129.425L40.9502 130.247L38.4 130L38.5648 129.095C38.6133 128.901 38.7145 128.724 38.8573 128.583C39.0001 128.443 39.1789 128.344 39.374 128.299C40.4305 128.052 42.4208 127.492 42.8412 126.71L45.2224 127.369Z" fill="black"/>
<path d="M39.2178 129.755L39.7122 129.096L39.2178 128.335C39.2178 128.335 37.7388 128.931 37.0796 128.848C36.4203 128.766 36.0929 129.92 37.3268 130.247C38.5607 130.575 45.5521 130.247 45.5521 130.247C45.5521 130.247 46.786 129.672 45.5521 128.109L44.4872 128.931C44.4872 128.931 42.6765 129.92 41.7722 129.755H39.2178Z" fill="#2E3037"/>
<path d="M36.9972 131.153L39.5474 131.398L43.0843 130.576L44.1534 129.507L44.0668 129.245L43.9442 128.878L43.8259 128.521L41.4405 127.861C41.3195 128.059 41.1538 128.225 40.9567 128.347C40.1813 128.875 38.7889 129.258 37.9733 129.45L37.8698 129.48C37.7113 129.532 37.5667 129.619 37.4472 129.735C37.3039 129.875 37.2022 130.052 37.1535 130.247L36.9972 131.153Z" fill="#DB8B8B"/>
<path opacity="0.1" d="M36.9972 131.154L39.5474 131.399L43.0843 130.577L44.1534 129.508L44.0668 129.246L43.0843 130C43.0843 130 41.2757 130.989 40.3693 130.824H37.8212L38.3135 130.165L37.8698 129.48C37.7113 129.532 37.5667 129.619 37.4472 129.736C37.3039 129.876 37.2022 130.053 37.1535 130.247L36.9972 131.154Z" fill="black"/>
<path d="M37.8212 130.906L38.3135 130.247L37.8212 129.486C37.8212 129.486 36.3422 130.082 35.6809 130C35.0196 129.917 34.6942 131.071 35.9281 131.398C37.162 131.726 44.1534 131.398 44.1534 131.398C44.1534 131.398 45.3873 130.824 44.1534 129.26L43.0843 130.074C43.0843 130.074 41.2757 131.063 40.3693 130.898L37.8212 130.906Z" fill="#2E3037"/>
<path d="M39.877 83.1978C39.877 83.1978 43.8259 83.6077 43.2575 81.9639C43.0973 81.4969 43.0552 80.9975 43.135 80.5103C43.2382 79.9067 43.4773 79.3345 43.8343 78.8369L40.1326 79.4137C40.3536 79.7845 40.5221 80.1841 40.6334 80.6011C41.0665 82.3464 39.877 83.1978 39.877 83.1978Z" fill="#DB8B8B"/>
<path d="M46.6212 101.952C46.6212 101.952 46.5388 105.489 45.7169 107.217L45.5437 112.233C45.5437 112.233 45.7909 116.839 46.2832 117.745C46.7754 118.652 45.2141 126.3 45.2141 126.3V127.614C45.2141 127.614 42.5836 128.603 41.8335 127.452L42.5857 117.663L42.2624 104.086L46.6212 101.952Z" fill="#474463"/>
<path opacity="0.1" d="M46.6212 101.952C46.6212 101.952 46.5388 105.489 45.7169 107.217L45.5437 112.233C45.5437 112.233 45.7909 116.839 46.2832 117.745C46.7754 118.652 45.2141 126.3 45.2141 126.3V127.614C45.2141 127.614 42.5836 128.603 41.8335 127.452L42.5857 117.663L42.2624 104.086L46.6212 101.952Z" fill="black"/>
<path d="M48.2671 90.5991L48.7594 91.9154L49.1714 94.7128C49.2273 95.1024 49.1893 95.4996 49.0607 95.8715C48.932 96.2434 48.7165 96.5792 48.4319 96.851C47.4452 97.8377 46.1289 99.8956 46.1289 99.8956L44.5654 95.2115C44.5654 95.2115 46.1289 94.9643 45.8817 93.8952C45.6345 92.8261 45.7169 90.8505 45.7169 90.8505L48.2671 90.5991Z" fill="#FC6681"/>
<path opacity="0.05" d="M48.2671 90.5991L48.7594 91.9154L49.1714 94.7128C49.2273 95.1024 49.1893 95.4996 49.0607 95.8715C48.932 96.2434 48.7165 96.5792 48.4319 96.851C47.4452 97.8377 46.1289 99.8956 46.1289 99.8956L44.5654 95.2115C44.5654 95.2115 46.1289 94.9643 45.8817 93.8952C45.6345 92.8261 45.7169 90.8505 45.7169 90.8505L48.2671 90.5991Z" fill="black"/>
<path opacity="0.1" d="M40.9567 128.347C42.0131 130.008 43.6527 129.066 43.9442 128.878L43.8259 128.521L41.4405 127.861C41.3195 128.059 41.1538 128.225 40.9567 128.347Z" fill="black"/>
<path d="M37.6564 105.159C37.7388 106.311 39.1354 110.507 39.1354 110.507L40.1221 113.959C40.8301 116.4 41.1949 118.927 41.206 121.468C41.185 122.269 41.2942 123.067 41.5292 123.832C42.1884 125.641 40.8721 128.109 40.8721 128.109C42.0236 130.165 43.997 128.768 43.997 128.768V127.452C43.997 127.452 45.5605 120.296 45.1485 118.897C44.7365 117.498 44.5738 113.714 44.5738 113.714V106.887C45.888 105.572 46.6858 103.828 46.8219 101.973C46.843 101.705 46.8578 101.421 46.8684 101.128C46.936 99.2706 45.6662 97.0964 45.1781 96.3189C45.0598 96.133 44.9858 96.0273 44.9858 96.0273L37.7134 98.9093H37.6965V99.1903V99.8136L37.6564 105.159Z" fill="#474463"/>
<path opacity="0.1" d="M40.1241 79.4137C40.3451 79.7845 40.5137 80.1841 40.6249 80.6011C41.0266 80.7548 41.4551 80.826 41.8849 80.8104C42.3148 80.7948 42.737 80.6927 43.1265 80.5103C43.2297 79.9067 43.4689 79.3345 43.8259 78.8369L40.1241 79.4137Z" fill="black"/>
<path d="M41.768 80.648C43.5393 80.648 44.9753 79.212 44.9753 77.4407C44.9753 75.6694 43.5393 74.2334 41.768 74.2334C39.9966 74.2334 38.5607 75.6694 38.5607 77.4407C38.5607 79.212 39.9966 80.648 41.768 80.648Z" fill="#DB8B8B"/>
<path opacity="0.1" d="M37.6564 99.8134H37.6902C41.1405 100.521 45.4697 96.9272 45.4697 96.9272C45.354 96.7311 45.2537 96.5262 45.1697 96.3145C45.0513 96.1286 44.9774 96.0229 44.9774 96.0229L37.7134 98.9091L37.6944 99.1964L37.6564 99.8134Z" fill="black"/>
<path d="M38.5712 83.1154C38.5712 83.1154 43.1772 80.3179 44.6583 81.4695L46.7141 84.1021C46.7141 84.1021 48.0304 84.512 47.7832 87.1446L48.7699 91.9154L45.8119 92.657C45.8119 92.657 44.0646 94.3008 45.4697 96.6904C45.4697 96.6904 41.1109 100.31 37.6521 99.5702L37.8972 95.7037C37.8972 95.7037 38.6388 93.5655 37.3225 91.5921C36.0062 89.6187 37.2401 87.7256 38.474 86.984C38.4783 86.9713 39.0551 83.8549 38.5712 83.1154Z" fill="#FC6681"/>
<path d="M38.3134 99.896C38.3134 99.896 36.5872 100.223 35.7632 101.54C35.5267 101.936 35.2374 102.297 34.9033 102.615C34.8281 102.684 34.7699 102.769 34.7334 102.863C34.6968 102.958 34.6829 103.06 34.6928 103.161C34.7026 103.263 34.7359 103.36 34.7901 103.446C34.8443 103.532 34.9177 103.604 35.0047 103.657C35.6576 104.048 36.7225 104.291 38.0662 103.186C40.3692 101.293 38.3134 99.896 38.3134 99.896Z" fill="#DB8B8B"/>
<path opacity="0.1" d="M40.8637 84.6768C40.8637 84.6768 42.5096 84.512 42.9195 88.7906C43.3294 93.0691 43.9886 94.0558 43.9886 94.0558C43.9886 94.0558 44.4006 96.2764 43.4139 97.5927C42.4272 98.909 40.5341 101.704 40.5341 101.704C40.5341 101.704 38.4783 102.281 38.0663 100.225L40.6165 95.4545C40.6165 95.4545 41.0285 93.8107 40.0418 92.6592C39.0551 91.5077 38.3135 83.8549 40.8637 84.6768Z" fill="black"/>
<path d="M40.6989 84.4361C40.6989 84.4361 42.3448 84.2712 42.7547 88.5477C43.1646 92.8241 43.8259 93.8129 43.8259 93.8129C43.8259 93.8129 44.2358 96.0335 43.2491 97.3498C42.2624 98.6661 40.3693 101.461 40.3693 101.461C40.3693 101.461 38.3135 102.038 37.9015 99.9824L40.4517 95.2116C40.4517 95.2116 40.8637 93.5657 39.877 92.4142C38.8903 91.2627 38.1487 83.6078 40.6989 84.4361Z" fill="#FC6681"/>
<path opacity="0.1" d="M39.3423 87.5146C39.3423 87.5146 39.1775 90.0649 39.917 91.4636C40.6565 92.8623 40.6586 94.6709 39.917 95.6597" fill="black"/>
<path opacity="0.1" d="M38.9304 84.3899C38.9304 84.3899 39.5896 83.7328 41.4806 83.6504C43.3716 83.568 44.1956 82.9912 44.1956 82.9912" fill="black"/>
<path opacity="0.1" d="M43.5068 73.293C44.0055 73.3542 44.5781 73.5254 44.7577 73.9965C44.8052 74.1747 44.8433 74.3552 44.8717 74.5374C45.0577 75.2558 45.8669 75.5938 46.3655 76.1411C46.8071 76.6249 46.9994 77.282 47.1431 77.9201C47.5526 79.7535 47.6504 81.6427 47.4325 83.5086C47.2719 84.8735 46.9445 86.2172 46.8515 87.5864C46.7585 88.9555 46.9275 90.3986 47.6776 91.5501C47.9988 92.0445 48.4234 92.4797 48.6516 93.0291C48.1805 93.4115 47.5297 93.4664 46.9233 93.4876C46.219 93.5101 45.5148 93.5101 44.8105 93.4876C44.4376 93.5032 44.0667 93.4262 43.7308 93.2636C43.4932 93.1124 43.2983 92.9029 43.1646 92.6551C42.761 91.9684 42.6575 91.1444 42.6744 90.3457C42.6913 89.5471 42.8181 88.7569 42.8329 87.9603C42.8329 87.5251 42.8075 87.0645 42.5582 86.7095C42.3532 86.4722 42.1213 86.2595 41.8673 86.0757C40.9883 85.296 40.6862 84.0431 40.6566 82.8684C40.627 81.6936 40.8193 80.5147 40.72 79.342C40.682 78.8836 40.5087 78.3321 40.0587 78.2434C39.9167 78.2356 39.7754 78.2172 39.6361 78.1884C39.2727 78.049 39.3086 77.5377 39.2135 77.1637C39.0973 76.7411 38.7403 76.42 38.6388 75.9953C38.4022 75.0001 39.6678 73.8127 40.4982 73.4599C41.3285 73.107 42.6152 73.1831 43.5068 73.293Z" fill="black"/>
<path d="M43.5893 73.1284C44.0879 73.1918 44.6584 73.3629 44.8401 73.832C44.8879 74.0108 44.9259 74.192 44.9542 74.375C45.1401 75.0933 45.9494 75.4314 46.448 75.9765C46.8896 76.4603 47.0818 77.1174 47.2255 77.7555C47.635 79.5889 47.7329 81.4781 47.515 83.344C47.3544 84.7089 47.0269 86.0527 46.9339 87.4218C46.841 88.7909 47.01 90.234 47.7601 91.3855C48.0812 91.8799 48.5059 92.3151 48.7341 92.8645C48.2629 93.2469 47.6122 93.3018 47.0058 93.323C46.3015 93.3455 45.5937 93.3455 44.8824 93.323C44.5095 93.3386 44.1386 93.2616 43.8027 93.099C43.5657 92.948 43.3709 92.7394 43.2365 92.4926C42.8308 91.8038 42.7294 90.9798 42.7463 90.1812C42.7632 89.3825 42.89 88.5923 42.9048 87.7958C42.9048 87.3626 42.8794 86.8999 42.6301 86.545C42.4245 86.3082 42.1927 86.0956 41.9392 85.9111C41.0602 85.1315 40.756 83.8807 40.7264 82.7038C40.6968 81.5269 40.8912 80.3501 40.7919 79.1775C40.7539 78.719 40.5806 78.1675 40.1306 78.0788C39.9886 78.071 39.8473 78.0526 39.708 78.0238C39.3446 77.8844 39.3805 77.3731 39.2854 76.9991C39.1692 76.5765 38.8122 76.2554 38.7107 75.8307C38.4741 74.8377 39.7397 73.6481 40.5701 73.2953C41.4004 72.9424 42.6977 73.027 43.5893 73.1284Z" fill="#472727"/>
<path opacity="0.1" d="M203.204 147.048C206.005 147.048 208.275 146.736 208.275 146.351C208.275 145.966 206.005 145.654 203.204 145.654C200.404 145.654 198.134 145.966 198.134 146.351C198.134 146.736 200.404 147.048 203.204 147.048Z" fill="#1894EC"/>
<path opacity="0.1" d="M183.779 149.019C186.579 149.019 188.85 148.707 188.85 148.322C188.85 147.937 186.579 147.625 183.779 147.625C180.978 147.625 178.708 147.937 178.708 148.322C178.708 148.707 180.978 149.019 183.779 149.019Z" fill="#1894EC"/>
<path opacity="0.1" d="M160.899 146.353C163.699 146.353 165.97 146.041 165.97 145.656C165.97 145.271 163.699 144.958 160.899 144.958C158.098 144.958 155.828 145.271 155.828 145.656C155.828 146.041 158.098 146.353 160.899 146.353Z" fill="#1894EC"/>
<path opacity="0.1" d="M191.554 154.424C193.545 154.424 195.159 154.203 195.159 153.93C195.159 153.657 193.545 153.436 191.554 153.436C189.563 153.436 187.95 153.657 187.95 153.93C187.95 154.203 189.563 154.424 191.554 154.424Z" fill="#1894EC"/>
<path opacity="0.1" d="M171.393 153.928C173.384 153.928 174.998 153.706 174.998 153.433C174.998 153.16 173.384 152.939 171.393 152.939C169.403 152.939 167.789 153.16 167.789 153.433C167.789 153.706 169.403 153.928 171.393 153.928Z" fill="#1894EC"/>
<path d="M183.671 148.164C183.671 148.164 190.783 124.851 182.558 115.512C176.405 108.527 169.422 109.362 166.289 110.23C165.479 110.446 164.726 110.835 164.082 111.371C163.438 111.906 162.918 112.575 162.557 113.332C161.465 115.69 161.662 119.52 169.382 123.989C182.306 131.47 183.115 141.737 183.115 141.737L183.671 148.164Z" fill="#1894EC"/>
<path d="M183.958 148.35C183.958 148.35 175.63 131.405 173.341 131.777C172.255 131.952 171.755 133.021 171.526 134.101C171.246 135.489 171.404 136.931 171.981 138.225C173.16 140.932 176.329 146.081 183.958 148.35Z" fill="#1894EC"/>
<path d="M183.711 148.35C183.711 148.35 192.04 131.405 194.328 131.777C195.416 131.952 195.917 133.021 196.143 134.101C196.424 135.489 196.265 136.931 195.689 138.225C194.499 140.932 191.33 146.081 183.711 148.35Z" fill="#1894EC"/>
<path d="M169.409 152.307C169.182 152.122 169.017 151.872 168.936 151.591C168.899 151.45 168.912 151.3 168.972 151.168C169.033 151.035 169.137 150.927 169.268 150.862C169.572 150.746 169.902 150.957 170.142 151.171C170.383 151.384 170.671 151.627 170.988 151.583C170.822 151.432 170.698 151.241 170.628 151.028C170.557 150.815 170.543 150.588 170.586 150.368C170.601 150.277 170.64 150.193 170.698 150.123C170.867 149.941 171.174 150.019 171.376 150.161C172.01 150.613 172.198 151.487 172.203 152.273C172.234 151.984 172.234 151.692 172.203 151.403C172.19 151.258 172.214 151.112 172.271 150.978C172.328 150.844 172.417 150.726 172.53 150.634C172.683 150.551 172.855 150.51 173.029 150.516C173.172 150.495 173.318 150.505 173.458 150.545C173.597 150.584 173.727 150.653 173.838 150.746C174.083 151.008 174.02 151.449 173.806 151.739C173.566 152.01 173.28 152.237 172.961 152.409C172.722 152.552 172.518 152.747 172.363 152.979C172.346 153.012 172.331 153.046 172.319 153.081H170.508C170.109 152.873 169.739 152.613 169.409 152.307Z" fill="#1894EC"/>
<path d="M201.149 145.483C200.922 145.298 200.756 145.048 200.675 144.766C200.639 144.626 200.651 144.477 200.711 144.345C200.771 144.212 200.875 144.105 201.005 144.04C201.309 143.921 201.639 144.133 201.882 144.346C202.125 144.559 202.41 144.802 202.727 144.769C202.561 144.618 202.437 144.427 202.367 144.214C202.296 144.001 202.282 143.774 202.325 143.554C202.34 143.463 202.379 143.379 202.437 143.309C202.606 143.127 202.913 143.205 203.116 143.347C203.749 143.799 203.937 144.674 203.942 145.46C203.973 145.17 203.973 144.878 203.942 144.589C203.929 144.444 203.953 144.298 204.01 144.164C204.067 144.03 204.156 143.912 204.269 143.82C204.422 143.737 204.594 143.696 204.768 143.702C204.911 143.681 205.057 143.691 205.196 143.731C205.335 143.77 205.464 143.839 205.575 143.932C205.822 144.194 205.757 144.635 205.543 144.925C205.303 145.196 205.017 145.423 204.698 145.595C204.459 145.738 204.255 145.933 204.1 146.165C204.083 146.198 204.068 146.232 204.056 146.267H202.245C201.846 146.056 201.477 145.792 201.149 145.483Z" fill="#1894EC"/>
<path d="M190.572 152.307C190.344 152.122 190.178 151.873 190.096 151.591C190.059 151.45 190.072 151.3 190.132 151.168C190.193 151.035 190.297 150.927 190.428 150.862C190.732 150.746 191.062 150.957 191.305 151.171C191.548 151.384 191.833 151.627 192.15 151.583C191.984 151.432 191.859 151.241 191.789 151.028C191.718 150.815 191.704 150.588 191.748 150.368C191.762 150.277 191.801 150.192 191.86 150.123C192.029 149.941 192.334 150.019 192.537 150.161C193.17 150.613 193.361 151.487 193.363 152.273C193.399 151.985 193.403 151.693 193.375 151.403C193.363 151.258 193.386 151.112 193.442 150.978C193.499 150.844 193.588 150.726 193.701 150.634C193.854 150.551 194.026 150.511 194.199 150.516C194.343 150.495 194.489 150.505 194.628 150.545C194.768 150.584 194.897 150.653 195.009 150.746C195.254 151.008 195.19 151.449 194.977 151.739C194.736 152.01 194.45 152.236 194.132 152.409C193.892 152.551 193.687 152.746 193.534 152.979C193.516 153.011 193.501 153.045 193.489 153.081H191.677C191.275 152.874 190.903 152.614 190.572 152.307Z" fill="#1894EC"/>
<path d="M160.571 138.512C160.571 138.512 159.891 139.4 160.884 140.741C161.877 142.083 162.697 143.215 162.363 144.052C162.363 144.052 160.865 141.561 159.646 141.517C158.427 141.472 159.23 140.004 160.571 138.512Z" fill="#1894EC"/>
<path opacity="0.1" d="M160.571 138.512C160.511 138.598 160.464 138.692 160.432 138.791C159.242 140.188 158.608 141.493 159.751 141.525C160.818 141.557 162.097 143.463 162.401 143.942C162.392 143.98 162.38 144.017 162.365 144.052C162.365 144.052 160.867 141.561 159.648 141.517C158.429 141.472 159.23 140.004 160.571 138.512Z" fill="black"/>
<path d="M159.308 139.645C159.308 139.958 159.344 140.211 159.386 140.211C159.428 140.211 159.464 139.958 159.464 139.645C159.464 139.332 159.422 139.48 159.378 139.48C159.333 139.48 159.308 139.332 159.308 139.645Z" fill="#FFD037"/>
<path d="M158.875 140.019C159.149 140.167 159.388 140.257 159.409 140.219C159.43 140.181 159.225 140.029 158.951 139.879C158.676 139.729 158.784 139.839 158.763 139.879C158.742 139.919 158.6 139.869 158.875 140.019Z" fill="#FFD037"/>
<path d="M164.161 138.512C164.161 138.512 164.839 139.4 163.846 140.741C162.853 142.083 162.036 143.215 162.367 144.052C162.367 144.052 163.865 141.561 165.087 141.517C166.308 141.472 165.503 140.004 164.161 138.512Z" fill="#1894EC"/>
<path opacity="0.1" d="M164.161 138.512C164.22 138.598 164.266 138.692 164.298 138.791C165.49 140.188 166.124 141.493 164.979 141.525C163.922 141.557 162.636 143.463 162.329 143.942C162.329 143.98 162.352 144.016 162.365 144.052C162.365 144.052 163.863 141.561 165.084 141.517C166.306 141.472 165.503 140.004 164.161 138.512Z" fill="black"/>
<path d="M165.422 139.645C165.422 139.958 165.389 140.211 165.344 140.211C165.3 140.211 165.266 139.958 165.266 139.645C165.266 139.332 165.31 139.48 165.353 139.48C165.395 139.48 165.422 139.332 165.422 139.645Z" fill="#FFD037"/>
<path d="M165.858 140.019C165.583 140.167 165.342 140.257 165.323 140.219C165.304 140.181 165.507 140.029 165.782 139.879C166.056 139.729 165.949 139.839 165.97 139.879C165.991 139.919 166.132 139.869 165.858 140.019Z" fill="#FFD037"/>
<path d="M165.207 143.936C165.207 143.936 163.305 143.877 162.735 143.469C162.164 143.061 159.813 142.575 159.671 143.23C159.53 143.885 156.815 146.482 158.961 146.499C161.108 146.516 163.943 146.165 164.516 145.817C165.089 145.468 165.207 143.936 165.207 143.936Z" fill="#A8A8A8"/>
<path opacity="0.2" d="M158.921 146.271C161.068 146.288 163.905 145.937 164.478 145.588C164.911 145.324 165.086 144.374 165.144 143.934H165.207C165.207 143.934 165.086 145.466 164.516 145.815C163.946 146.163 161.106 146.514 158.961 146.497C158.342 146.497 158.127 146.271 158.139 145.946C158.226 146.144 158.461 146.267 158.921 146.271Z" fill="black"/>
<path opacity="0.1" d="M35.4759 150.27C39.5274 150.27 42.8118 149.785 42.8118 149.186C42.8118 148.588 39.5274 148.103 35.4759 148.103C31.4245 148.103 28.1401 148.588 28.1401 149.186C28.1401 149.785 31.4245 150.27 35.4759 150.27Z" fill="#1894EC"/>
<path opacity="0.1" d="M53.2386 160C57.2901 160 60.5744 159.515 60.5744 158.916C60.5744 158.317 57.2901 157.832 53.2386 157.832C49.1872 157.832 45.9028 158.317 45.9028 158.916C45.9028 159.515 49.1872 160 53.2386 160Z" fill="#1894EC"/>
<path opacity="0.1" d="M131.604 134.107C134.287 134.107 136.462 133.864 136.462 133.564C136.462 133.264 134.287 133.021 131.604 133.021C128.921 133.021 126.747 133.264 126.747 133.564C126.747 133.864 128.921 134.107 131.604 134.107Z" fill="#1894EC"/>
<path opacity="0.1" d="M108.897 149.73C111.58 149.73 113.755 149.486 113.755 149.187C113.755 148.887 111.58 148.644 108.897 148.644C106.215 148.644 104.04 148.887 104.04 149.187C104.04 149.486 106.215 149.73 108.897 149.73Z" fill="#1894EC"/>
<path opacity="0.1" d="M98.6607 159.459C101.343 159.459 103.518 159.216 103.518 158.916C103.518 158.616 101.343 158.373 98.6607 158.373C95.978 158.373 93.8032 158.616 93.8032 158.916C93.8032 159.216 95.978 159.459 98.6607 159.459Z" fill="#1894EC"/>
<defs>
<linearGradient id="paint0_linear" x1="41.9455" y1="132.015" x2="41.9455" y2="72.2976" gradientUnits="userSpaceOnUse">
<stop stop-color="#808080" stop-opacity="0.25"/>
<stop offset="0.54" stop-color="#808080" stop-opacity="0.12"/>
<stop offset="1" stop-color="#808080" stop-opacity="0.1"/>
</linearGradient>
</defs>
</svg>
