<svg width="51" height="50" viewBox="0 0 51 50" fill="none" xmlns="http://www.w3.org/2000/svg">
<g clip-path="url(#clip0)">
<rect x="0.53772" y="0.00292969" width="50" height="49.9888" rx="4" fill="#44BFC7"/>
<g clip-path="url(#clip1)">
<path d="M34.0324 23.6334L26.1377 10.3559C25.9941 10.1406 25.7788 9.99707 25.5276 9.99707C25.2764 9.99707 25.0252 10.1406 24.9176 10.3559L17.0228 23.6334C16.9152 23.8487 16.8793 24.0641 16.9869 24.2794L20.5037 32.3535C18.7453 32.7124 17.4534 34.2554 17.4534 36.1215C17.4534 38.2387 19.1759 39.9971 21.329 39.9971H29.7621C31.8793 39.9971 33.6377 38.2746 33.6377 36.1215C33.6377 34.2554 32.3099 32.7124 30.5874 32.3535L34.14 24.3153C34.1759 24.0999 34.14 23.8487 34.0324 23.6334ZM25.5276 21.0138C26.4965 21.0138 27.286 21.8033 27.286 22.7722C27.286 23.7411 26.4965 24.5306 25.5276 24.5306C24.5587 24.5306 23.7692 23.7411 23.7692 22.7722C23.7692 21.8033 24.5587 21.0138 25.5276 21.0138ZM32.1664 36.1215C32.1664 37.4492 31.0898 38.5617 29.7262 38.5617H21.2932C19.9654 38.5617 18.853 37.4851 18.853 36.1215C18.853 34.7578 19.9295 33.6813 21.2932 33.6813H29.7262C31.0898 33.7172 32.1664 34.7937 32.1664 36.1215ZM29.0085 32.2818H22.0467L18.4223 24.0641L24.8099 13.3344V19.6502C23.4104 19.9731 22.3338 21.2291 22.3338 22.7363C22.3338 24.4947 23.7692 25.9301 25.5276 25.9301C27.286 25.9301 28.7214 24.4947 28.7214 22.7363C28.7214 21.2291 27.6807 19.9731 26.2453 19.6502V13.3344L32.6329 24.0641L29.0085 32.2818Z" fill="white"/>
</g>
</g>
<defs>
<clipPath id="clip0">
<rect width="50" height="49.9888" fill="white" transform="translate(0.53772 0.00292969)"/>
</clipPath>
<clipPath id="clip1">
<rect width="17.2316" height="29.9933" fill="white" transform="translate(16.9219 10.0005)"/>
</clipPath>
</defs>
</svg>
