<svg width="51" height="50" viewBox="0 0 51 50" fill="none" xmlns="http://www.w3.org/2000/svg">
<g clip-path="url(#clip0)">
<rect x="0.658508" y="0.00292969" width="50" height="49.9888" rx="4" fill="#F8981C"/>
<path d="M39.5718 15.2019C39.3367 15.841 39.0979 16.4837 38.8628 17.1227C38.3008 18.6506 37.735 20.1747 37.173 21.7026C36.486 23.561 35.8028 25.4194 35.1158 27.2741C34.528 28.8717 33.9366 30.4656 33.3488 32.0633C33.0623 32.8419 32.7354 33.6168 32.4856 34.4064C32.4819 34.4175 32.4782 34.4285 32.4745 34.4395C32.7427 34.3293 33.0146 34.2191 33.2827 34.1089C31.8721 33.1687 30.4651 32.2285 29.0545 31.292C27.9561 30.5611 26.8577 29.8266 25.7594 29.0957C25.0283 28.6073 24.2973 28.1225 23.5663 27.634C23.5663 27.9498 23.5663 28.2694 23.5663 28.5852C24.1283 28.1592 24.6867 27.7331 25.2487 27.3071C26.5859 26.2935 27.9194 25.2798 29.2565 24.2661C30.8766 23.0358 32.4966 21.8054 34.1166 20.5787C35.5162 19.5173 36.9158 18.4522 38.3154 17.3908C38.995 16.8767 39.6746 16.3625 40.3506 15.8446C40.3616 15.8373 40.3689 15.8299 40.38 15.8226C40.6151 15.6426 40.74 15.3488 40.5783 15.0697C40.4424 14.8383 40.064 14.6914 39.8253 14.8714C39.2632 15.2974 38.7048 15.7234 38.1428 16.1495C36.8056 17.1631 35.4721 18.1768 34.135 19.1905C32.515 20.4208 30.8949 21.6512 29.2749 22.8778C27.8753 23.9393 26.4757 25.0043 25.0761 26.0657C24.3965 26.5799 23.7169 27.0941 23.0409 27.6119C23.0299 27.6193 23.0226 27.6266 23.0116 27.634C22.6773 27.8874 22.6405 28.3391 23.0116 28.5852C24.3377 29.4703 25.6675 30.3555 26.9937 31.2406C28.3051 32.1147 29.6129 32.9851 30.9243 33.8592C31.5268 34.2595 32.1256 34.6599 32.728 35.0602C33.0476 35.2732 33.4223 35.0418 33.5362 34.7296C33.7713 34.0906 34.0101 33.4479 34.2452 32.8088C34.8072 31.281 35.373 29.7568 35.935 28.229C36.622 26.3706 37.3052 24.5122 37.9922 22.6575C38.5799 21.0599 39.1714 19.4659 39.7591 17.8683C40.0457 17.0897 40.3726 16.3147 40.6224 15.5251C40.6261 15.5141 40.6298 15.5031 40.6334 15.4921C40.7326 15.2203 40.5232 14.875 40.2477 14.8126C39.9355 14.7465 39.6783 14.9118 39.5718 15.2019Z" fill="white"/>
<path d="M39.8253 14.8749C39.1273 15.2312 38.4294 15.5874 37.7314 15.9474C36.0673 16.7994 34.4032 17.6515 32.7391 18.5036C30.7297 19.5319 28.7166 20.5639 26.7072 21.5923C24.9586 22.4848 23.2136 23.3809 21.4651 24.2734C20.8957 24.5635 20.3263 24.8573 19.7569 25.1475C19.485 25.287 19.2022 25.4156 18.934 25.5661C18.923 25.5735 18.912 25.5772 18.8973 25.5845C19.0809 25.5845 19.2683 25.5845 19.452 25.5845C18.5556 25.096 17.6593 24.6039 16.7629 24.1154C15.3339 23.3331 13.9013 22.5509 12.4723 21.7686C12.1417 21.5886 11.811 21.4087 11.4804 21.225C11.4363 21.5592 11.3923 21.8971 11.3482 22.2313C11.6053 22.1762 11.8625 22.1175 12.1196 22.0624C12.8213 21.9081 13.5192 21.7539 14.2209 21.5996C15.2568 21.3719 16.2927 21.1442 17.3287 20.9165C18.5924 20.6374 19.8561 20.3619 21.1197 20.0828C22.5047 19.778 23.8896 19.4731 25.2745 19.1683C26.6741 18.8598 28.07 18.555 29.4697 18.2465C30.7738 17.96 32.0779 17.6735 33.382 17.3871C34.484 17.1447 35.5861 16.9023 36.6881 16.6599C37.4816 16.4872 38.2751 16.311 39.0686 16.1383C39.4433 16.0575 39.8253 15.9841 40.1963 15.8886C40.211 15.8849 40.2294 15.8812 40.2441 15.8776C40.5343 15.8151 40.7033 15.4773 40.6298 15.1981C40.549 14.897 40.2441 14.7501 39.9502 14.8125C39.6931 14.8676 39.4359 14.9263 39.1788 14.9814C38.4771 15.1357 37.7792 15.2899 37.0775 15.4442C36.0416 15.6719 35.0057 15.8996 33.9697 16.1273C32.706 16.4064 31.4423 16.6819 30.1786 16.961C28.7937 17.2659 27.4088 17.5707 26.0239 17.8755C24.6243 18.184 23.2283 18.4889 21.8287 18.7974C20.5246 19.0838 19.2205 19.3703 17.9164 19.6568C16.8144 19.8992 15.7123 20.1416 14.6103 20.384C13.8168 20.5566 13.0233 20.7329 12.2298 20.9055C11.8551 20.9863 11.4731 21.0597 11.1021 21.1552C11.0874 21.1589 11.069 21.1626 11.0543 21.1663C10.5914 21.2691 10.518 21.9522 10.922 22.1726C11.6751 22.5839 12.4245 22.9953 13.1776 23.4066C14.5148 24.1375 15.8519 24.8683 17.1891 25.5992C17.6446 25.8489 18.1038 26.0987 18.5593 26.3484C18.8569 26.51 19.1103 26.6973 19.4667 26.5247C19.9001 26.3154 20.3263 26.084 20.7561 25.8636C21.7185 25.3715 22.681 24.8793 23.6471 24.3835C24.9402 23.7225 26.237 23.0577 27.53 22.3966C28.9443 21.6731 30.355 20.9496 31.7693 20.226C33.0917 19.5503 34.4105 18.8745 35.733 18.1987C36.7506 17.6772 37.7718 17.1557 38.7894 16.6342C39.2963 16.3734 39.8033 16.1163 40.3065 15.8555C40.3286 15.8445 40.3506 15.8335 40.3763 15.8188C40.6408 15.6829 40.718 15.312 40.5747 15.0659C40.4204 14.8015 40.0898 14.739 39.8253 14.8749Z" fill="white"/>
<path d="M27.0268 30.3191C26.3068 30.7525 25.5868 31.1895 24.8704 31.6229C23.7243 32.317 22.5781 33.0075 21.432 33.7016C21.1675 33.8596 20.9067 34.0212 20.6422 34.1791C20.3887 34.3333 20.2932 34.6749 20.4438 34.932C20.5944 35.1854 20.9434 35.2846 21.1969 35.1303C21.9169 34.6969 22.6369 34.2599 23.3533 33.8265C24.4994 33.1324 25.6455 32.4419 26.7917 31.7478C27.0562 31.5898 27.317 31.4282 27.5815 31.2703C27.835 31.1161 27.9305 30.7745 27.7799 30.5174C27.6329 30.2603 27.2839 30.1612 27.0268 30.3191Z" fill="white"/>
<path d="M22.7545 27.9683C22.4863 28.7065 22.2181 29.4447 21.9536 30.1829C21.5312 31.3545 21.1051 32.5224 20.6826 33.694C20.5834 33.9658 20.4879 34.2339 20.3887 34.5057C20.7414 34.5057 21.0977 34.5057 21.4504 34.5057C21.2557 33.5398 21.0573 32.5702 20.8626 31.6042C20.5504 30.0617 20.2381 28.5192 19.9222 26.9766C19.8487 26.6204 19.7789 26.2678 19.7054 25.9116C19.6467 25.6214 19.3014 25.4525 19.0258 25.5259C18.7209 25.6104 18.5813 25.9116 18.6401 26.2054C18.8348 27.1713 19.0332 28.1409 19.2279 29.1068C19.5401 30.6493 19.8524 32.1919 20.1683 33.7344C20.2418 34.0907 20.3116 34.4432 20.385 34.7995C20.4291 35.0272 20.6899 35.2145 20.9177 35.2035C21.1749 35.1925 21.3622 35.0382 21.4504 34.7995C21.7185 34.0613 21.9867 33.3231 22.2512 32.5849C22.6736 31.4133 23.0998 30.2453 23.5222 29.0738C23.6214 28.802 23.7169 28.5339 23.8161 28.2621C23.9153 27.9903 23.7059 27.6487 23.4304 27.5826C23.1218 27.5129 22.861 27.6781 22.7545 27.9683Z" fill="white"/>
</g>
<defs>
<clipPath id="clip0">
<rect width="50" height="49.9888" fill="white" transform="translate(0.658508 0.00292969)"/>
</clipPath>
</defs>
</svg>
