<svg width="51" height="50" viewBox="0 0 51 50" fill="none" xmlns="http://www.w3.org/2000/svg">
<g clip-path="url(#clip0)">
<rect x="0.296143" y="0.00292969" width="50" height="49.9888" rx="4" fill="#1894EC"/>
<path d="M23.2496 27.8396C23.348 27.9168 23.4117 27.9987 23.4562 28.091C23.5004 28.183 23.5246 28.2885 23.5246 28.4148C23.5246 28.677 23.736 28.8893 23.9972 28.8893C24.2577 28.8893 24.4697 28.677 24.4697 28.4148C24.4697 28.1614 24.4175 27.91 24.3086 27.6816C24.1462 27.3375 23.8556 27.0568 23.4882 26.8786C23.2725 26.7731 23.0285 26.703 22.7629 26.6599V26.3387C22.7629 26.058 22.5361 25.8306 22.2567 25.8306C21.9769 25.8306 21.7504 26.058 21.7504 26.3387V26.64C21.5623 26.6663 21.3874 26.708 21.2287 26.769C20.8218 26.9227 20.5178 27.1906 20.3314 27.4912C20.1434 27.7924 20.0655 28.1173 20.0655 28.4152C20.0642 28.7242 20.1397 29.0119 20.2839 29.2458C20.4086 29.4513 20.5788 29.6091 20.7591 29.7283C21.0723 29.9329 21.4147 30.0384 21.7501 30.1287V32.0747C21.5465 32.0268 21.3857 31.95 21.2758 31.856C21.0999 31.7027 21.0133 31.5197 21.0099 31.2673C21.0099 31.0058 20.7986 30.7932 20.538 30.7932C20.2768 30.7932 20.0655 31.0058 20.0655 31.2673C20.0621 31.7755 20.2815 32.258 20.6651 32.5801C20.9556 32.8271 21.3281 32.9825 21.7504 33.0431V33.4152C21.7504 33.6959 21.9769 33.9233 22.2567 33.9233C22.5361 33.9233 22.7629 33.6959 22.7629 33.4152V33.028C23.1023 32.9795 23.4259 32.8875 23.713 32.7095C23.9372 32.569 24.1357 32.3712 24.2692 32.1219C24.4033 31.8732 24.4694 31.5814 24.4694 31.268C24.4701 30.9418 24.3993 30.6436 24.2621 30.3945C24.1428 30.1762 23.977 30.0013 23.7966 29.8678C23.4785 29.634 23.1225 29.5117 22.7771 29.4133C22.7723 29.4119 22.768 29.4109 22.7629 29.4096V27.6276C22.9766 27.6789 23.1407 27.754 23.2496 27.8396ZM23.0844 30.5357C23.2405 30.619 23.3426 30.7072 23.4097 30.8093C23.4761 30.9125 23.5236 31.0412 23.525 31.267C23.5243 31.4523 23.4886 31.5763 23.4384 31.6703C23.3629 31.8081 23.2422 31.9113 23.0245 31.9965C22.9486 32.0258 22.859 32.0484 22.7636 32.0683V30.403C22.8826 30.4431 22.9934 30.4862 23.0844 30.5357ZM21.4319 29.02C21.2728 28.9445 21.172 28.8647 21.112 28.7828C21.0537 28.6999 21.0133 28.6066 21.0106 28.4148C21.0106 28.2396 21.0756 28.0266 21.2324 27.8672C21.3119 27.7864 21.4161 27.7129 21.565 27.6553C21.6193 27.6344 21.683 27.6172 21.7507 27.602V29.14C21.6328 29.1033 21.5229 29.0642 21.4319 29.02Z" fill="white"/>
<path d="M39.5857 22.1082L20.5566 11.8453C20.355 11.7365 20.1373 11.6846 19.9219 11.6846C19.4393 11.6846 18.9715 11.9437 18.7284 12.3976L13.2972 22.5472C13.2517 22.6318 13.22 22.7201 13.1958 22.8087H11.646C10.9035 22.8087 10.2961 23.419 10.2961 24.164V35.6006C10.2961 36.346 10.9035 36.9556 11.646 36.9556H29.5595C30.301 37.7859 31.3742 38.3109 32.5721 38.3109C34.8091 38.3109 36.6227 36.4905 36.6227 34.2449C36.6227 33.3712 36.3457 32.5638 35.8782 31.901L40.1365 23.9437C40.4877 23.2869 40.2399 22.461 39.5857 22.1082ZM11.646 35.9396C11.4633 35.9396 11.3086 35.7846 11.3086 35.6009V24.164C11.3086 23.9804 11.4633 23.8251 11.646 23.8251H24.8388C25.0329 25.3209 26.3046 26.4767 27.8473 26.4767C29.3907 26.4767 30.6617 25.3209 30.8565 23.8251H33.2101C33.3931 23.8251 33.5478 23.9804 33.5478 24.164V30.3027C33.2347 30.2252 32.9094 30.179 32.5724 30.179C30.3357 30.179 28.5221 31.9997 28.5221 34.2453C28.5221 34.8508 28.6572 35.423 28.8938 35.9393H11.646V35.9396ZM25.8223 23.4274C25.8223 22.3063 26.7307 21.3945 27.8473 21.3945C28.964 21.3945 29.8726 22.3063 29.8726 23.4274C29.8726 24.5485 28.9643 25.4604 27.8473 25.4604C26.7307 25.4604 25.8223 24.5485 25.8223 23.4274ZM32.5724 37.2949C30.8973 37.2949 29.5349 35.9268 29.5349 34.2453C29.5349 32.5638 30.8973 31.1957 32.5724 31.1957C34.2479 31.1957 35.6106 32.5638 35.6106 34.2453C35.6106 35.9268 34.2479 37.2949 32.5724 37.2949ZM39.2446 23.4625L35.1518 31.1108C34.9678 30.9581 34.7689 30.8233 34.56 30.705V24.1644C34.56 23.419 33.9523 22.8091 33.2098 22.8091H30.8218C30.537 21.4214 29.3135 20.3781 27.847 20.3781C26.3808 20.3781 25.1573 21.4214 24.8722 22.8091H14.3067L19.6203 12.8788C19.6907 12.7477 19.8218 12.7012 19.9219 12.7012C19.9765 12.7012 20.0288 12.7144 20.0773 12.7406L39.1068 23.0035C39.2679 23.0908 39.3309 23.3011 39.2446 23.4625Z" fill="white"/>
</g>
<defs>
<clipPath id="clip0">
<rect width="50" height="49.9888" fill="white" transform="translate(0.296143 0.00292969)"/>
</clipPath>
</defs>
</svg>
