<svg width="51" height="51" viewBox="0 0 51 51" fill="none" xmlns="http://www.w3.org/2000/svg">
<path fill-rule="evenodd" clip-rule="evenodd" d="M48.975 10.6729V1.57906C48.975 1.23393 48.6952 0.954102 48.35 0.954102H2.10897C1.76384 0.954102 1.48401 1.23393 1.48401 1.57906V10.6725L0.234695 19.0862C0.230118 19.1168 0.227982 19.1473 0.227982 19.1781C0.227982 20.4117 0.777264 21.5172 1.64116 22.2707V50.3261C1.64116 50.6712 1.92099 50.951 2.26613 50.951H48.3476C48.6927 50.951 48.9726 50.6712 48.9726 50.3261V22.1273C49.7451 21.3801 50.228 20.3351 50.228 19.1781C50.228 19.1476 50.2258 19.1168 50.2213 19.0865L48.975 10.6729ZM2.64807 11.3441H7.19228V17.392H1.74995L2.64807 11.3441ZM8.4422 11.3441H14.1566V17.392H8.4422V11.3441ZM22.3708 18.6419H28.0852V19.1781C28.0852 20.7536 26.8035 22.0353 25.228 22.0353C23.6525 22.0353 22.3708 20.7536 22.3708 19.1781V18.6419ZM35.0495 11.3441V17.392H29.3351V11.3441H35.0495ZM28.0852 17.392H22.3708V11.3441H28.0852V17.392ZM21.1209 17.392H15.4065V11.3441H21.1209V17.392ZM8.4422 18.6419H14.1566V19.1781C14.1566 20.7536 12.8749 22.0353 11.2994 22.0353C9.72386 22.0353 8.4422 20.7536 8.4422 19.1781V18.6419ZM15.4065 18.6419H21.1209V19.1781C21.1209 20.7536 19.8392 22.0353 18.2637 22.0353C16.6882 22.0353 15.4065 20.7536 15.4065 19.1781V18.6419ZM18.6509 23.2656C19.9572 23.1427 21.0843 22.4044 21.7458 21.3455C22.472 22.5078 23.7594 23.2852 25.228 23.2852C26.6966 23.2852 27.9839 22.5078 28.7101 21.3455C29.3717 22.4044 30.4988 23.1427 31.805 23.2656V49.7011H18.6509V23.2656ZM32.1923 22.0353C30.6168 22.0353 29.3351 20.7536 29.3351 19.1781V18.6419H35.0495V19.1781C35.0495 20.7536 33.7678 22.0353 32.1923 22.0353ZM36.2994 18.6419H42.0138V19.1781C42.0138 20.7536 40.7321 22.0353 39.1566 22.0353C37.581 22.0353 36.2994 20.7536 36.2994 19.1781V18.6419ZM36.2994 17.392V11.3441H42.0138V17.392H36.2994ZM43.2637 11.3441H47.8108L48.7067 17.392H43.2637V11.3441ZM2.73393 2.20403H47.7251V10.0942H2.73393V2.20403ZM1.56434 18.6419H7.19228V19.1781C7.19228 20.7536 5.91062 22.0353 4.33509 22.0353C2.77421 22.0353 1.50201 20.7771 1.47821 19.222L1.56434 18.6419ZM2.89109 23.0181C3.34108 23.1879 3.82639 23.2852 4.33509 23.2852C5.80366 23.2852 7.09104 22.5078 7.81724 21.3455C8.54344 22.5078 9.83082 23.2852 11.2994 23.2852C12.768 23.2852 14.0553 22.5078 14.7815 21.3455C15.3613 22.2735 16.2982 22.9555 17.401 23.1923V49.7011H2.89109V23.0181ZM47.7226 49.7011H33.055V23.1923C34.1578 22.9555 35.0946 22.2735 35.6744 21.3455C36.4006 22.5078 37.688 23.2852 39.1566 23.2852C40.6251 23.2852 41.9125 22.5078 42.6387 21.3455C43.3649 22.5078 44.6523 23.2852 46.1209 23.2852C46.6888 23.2852 47.2302 23.169 47.7226 22.9597V49.7011ZM46.1209 22.0353C44.5453 22.0353 43.2637 20.7536 43.2637 19.1781V18.6419H48.8918L48.9778 19.222C48.9543 20.7771 47.6818 22.0353 46.1209 22.0353ZM28.7858 39.5345H21.7458C21.4007 39.5345 21.1209 39.8143 21.1209 40.1595V46.3612C21.1209 46.7063 21.4007 46.9861 21.7458 46.9861H28.7858C29.1309 46.9861 29.4108 46.7063 29.4108 46.3612V40.1595C29.4108 39.8143 29.1309 39.5345 28.7858 39.5345ZM28.1608 45.7362H22.3708V40.7844H28.1608V45.7362ZM28.7754 35.8772H21.7562C21.4111 35.8772 21.1312 35.5974 21.1312 35.2522V30.2651C21.1312 27.9855 22.986 26.1308 25.2658 26.1308C27.5457 26.1308 29.4004 27.9855 29.4004 30.2651V35.2522C29.4004 35.5974 29.1206 35.8772 28.7754 35.8772ZM25.2658 27.3807C23.6753 27.3807 22.3812 28.6746 22.3812 30.2651V34.6273H28.1505V30.2651C28.1505 28.6746 26.8563 27.3807 25.2658 27.3807ZM10.1605 26.1308C7.69609 26.1308 5.69091 28.136 5.69091 30.6004V46.3615C5.69091 46.7066 5.97073 46.9864 6.31587 46.9864H14.0055C14.3507 46.9864 14.6305 46.7066 14.6305 46.3615V30.6004C14.6305 28.136 12.6253 26.1308 10.1605 26.1308ZM13.3806 45.7365H6.94083V30.6004C6.94083 28.825 8.38514 27.3807 10.1605 27.3807C11.9359 27.3807 13.3806 28.825 13.3806 30.6004V45.7365ZM35.8255 30.6004C35.8255 28.136 37.8307 26.1308 40.2954 26.1308C42.7599 26.1308 44.7651 28.136 44.7651 30.6004V46.3615C44.7651 46.7066 44.4852 46.9864 44.1401 46.9864H36.4504C36.1053 46.9864 35.8255 46.7066 35.8255 46.3615V30.6004ZM37.0754 45.7365H43.5151V30.6004C43.5151 28.825 42.0708 27.3807 40.2954 27.3807C38.52 27.3807 37.0754 28.825 37.0754 30.6004V45.7365Z" fill="#1894EC"/>
</svg>
