<svg width="51" height="44" viewBox="0 0 51 44" fill="none" xmlns="http://www.w3.org/2000/svg">
<path d="M46.7207 8.0396H33.2707V4.36621C33.2707 2.05694 31.4014 0.178711 29.1038 0.178711H21.0482C18.751 0.178711 16.8816 2.05694 16.8816 4.36621V8.0396H3.43123C1.59252 8.0396 0.0759888 9.59645 0.0759888 11.4352V22.2573C0.0759888 22.6142 0.300989 22.9315 0.636473 23.0485L2.19292 23.5912L2.15946 40.3311C2.15946 42.2037 3.6647 43.7267 5.5147 43.7267H44.6373C46.4873 43.7267 47.9925 42.2033 47.9925 40.3311V23.584L49.5175 23.0481C49.8518 22.9307 50.076 22.6134 50.076 22.2577V11.4352C50.076 9.59645 48.5595 8.0396 46.7207 8.0396ZM18.5482 4.36621C18.5482 2.98073 19.6695 1.85371 21.0482 1.85371H29.1038C30.4824 1.85371 31.6038 2.98073 31.6038 4.36621V8.0396H18.5482V4.36621ZM46.326 40.3315C46.326 41.2803 45.5683 42.0521 44.6373 42.0521H5.5147C4.58365 42.0521 3.82599 41.2803 3.82599 40.3331L3.85825 24.1727L20.7449 30.0618V32.2295C20.7449 32.692 21.1179 33.067 21.5784 33.067H28.7582C29.2183 33.067 29.5917 32.692 29.5917 32.2295V30.0525L46.326 24.1698V40.3315ZM22.4115 31.3916V26.809H27.9244V31.3916H22.4115ZM48.4095 21.663L29.5913 28.2779V25.9715C29.5913 25.509 29.2183 25.134 28.7578 25.134H21.5784C21.1183 25.134 20.7449 25.509 20.7449 25.9715V28.2884L1.74252 21.6618V11.4352C1.74252 10.5081 2.50139 9.7146 3.43123 9.7146H46.7207C47.651 9.7146 48.4095 10.5069 48.4095 11.4352V21.663Z" fill="#1894EC"/>
</svg>
