<svg width="51" height="42" viewBox="0 0 51 42" fill="none" xmlns="http://www.w3.org/2000/svg">
<path d="M8.86075 0.502552L0.522716 12.414C0.217306 12.8459 0.249705 13.4855 0.597163 13.8843L24.4201 41.2807C24.8656 41.7858 25.7613 41.7858 26.2068 41.2807L50.0298 13.8843C50.3772 13.4855 50.4096 12.8459 50.1042 12.414L41.7662 0.502552C41.5479 0.194521 41.1759 0.00136982 40.7984 0H9.82856C9.40767 0 9.09404 0.231744 8.86075 0.502552ZM11.5781 2.3823H22.6334L14.984 10.8692L11.5781 2.3823ZM27.9936 2.3823H39.0489L35.643 10.8692L27.9936 2.3823ZM25.3135 2.95929L33.3723 11.9115H17.2546L25.3135 2.95929ZM9.53077 3.64789L12.8436 11.9115H3.74251L9.53077 3.64789ZM41.0962 3.64789L46.8844 11.9115H37.7833L41.0962 3.64789ZM4.09616 14.2938H13.7928L22.075 34.9714L4.09616 14.2938ZM16.3613 14.2938H34.2843L25.3135 36.665L16.3613 14.2938ZM36.8341 14.2938H46.5308L28.5705 34.9527L36.8341 14.2938Z" fill="#1894EC"/>
</svg>
