<svg width="51" height="57" viewBox="0 0 51 57" fill="none" xmlns="http://www.w3.org/2000/svg">
<path d="M45.8938 48.4426C48.9469 43.217 50.5 37.7833 50.5 32.2701C50.5 26.6683 47.4425 20.6506 41.6504 14.863L34.1283 7.34085L38.2301 3.23908L43.1327 8.14174L41.2611 10.0134C41.0956 10.1824 41.004 10.4102 41.0065 10.6467C41.009 10.8832 41.1054 11.109 41.2743 11.2745C41.4433 11.4399 41.6711 11.5315 41.9076 11.529C42.1441 11.5265 42.3699 11.4302 42.5354 11.2612L44.4115 9.3851L44.9159 9.88952C44.9966 9.97821 45.0944 10.0496 45.2035 10.0993C45.3126 10.1491 45.4306 10.1761 45.5504 10.1789C45.6703 10.1816 45.7895 10.16 45.9007 10.1153C46.0119 10.0705 46.1129 10.0037 46.1975 9.91879C46.2821 9.83387 46.3486 9.73265 46.3929 9.62126C46.4372 9.50987 46.4585 9.39064 46.4553 9.2708C46.4521 9.15097 46.4247 9.03302 46.3745 8.92412C46.3244 8.81523 46.2527 8.71765 46.1637 8.63731L37.7566 0.230232C37.5886 0.0773957 37.3682 -0.00495507 37.141 0.000230868C36.9139 0.0054168 36.6975 0.0977423 36.5366 0.258091C36.3757 0.41844 36.2826 0.634531 36.2766 0.861622C36.2706 1.08871 36.3522 1.30941 36.5044 1.47802L37.0089 1.98244L32.9027 6.08421L31.531 4.71253C31.3652 4.54771 31.1409 4.45519 30.9071 4.45519C30.6733 4.45519 30.449 4.54771 30.2832 4.71253L15.2788 19.6993C15.1965 19.7814 15.1312 19.879 15.0867 19.9865C15.0421 20.0939 15.0192 20.2091 15.0192 20.3254C15.0192 20.4417 15.0421 20.5568 15.0867 20.6642C15.1312 20.7717 15.1965 20.8693 15.2788 20.9515L22.146 27.8187L16.2522 33.7125L12.6681 30.1329L16.6062 26.2656C16.774 26.1013 16.8697 25.8771 16.8722 25.6423C16.8747 25.4074 16.7838 25.1812 16.6195 25.0134C16.4552 24.8456 16.2309 24.7499 15.9961 24.7474C15.7613 24.7449 15.5351 24.8358 15.3673 25.0001L10.792 29.4957C10.7091 29.578 10.6433 29.6759 10.5983 29.7837C10.5534 29.8915 10.5303 30.0072 10.5303 30.124C10.5303 30.2409 10.5534 30.3565 10.5983 30.4644C10.6433 30.5722 10.7091 30.6701 10.792 30.7524L15.6239 35.5886C15.7061 35.6709 15.8037 35.7362 15.9111 35.7807C16.0185 35.8253 16.1337 35.8482 16.25 35.8482C16.3663 35.8482 16.4815 35.8253 16.5889 35.7807C16.6963 35.7362 16.7939 35.6709 16.8761 35.5886L23.3982 29.0709L25.4248 31.0975C25.507 31.1798 25.6046 31.245 25.712 31.2896C25.8194 31.3341 25.9346 31.357 26.0509 31.357C26.1672 31.357 26.2823 31.3341 26.3898 31.2896C26.4972 31.245 26.5948 31.1798 26.677 31.0975L41.0265 16.7479C44.4734 20.3364 46.8053 23.9736 47.9381 27.4869C46.7749 26.7138 45.3703 26.3903 43.9862 26.5768C42.6021 26.7632 41.333 27.4469 40.4159 28.5001C40.07 26.7314 39.4251 25.0345 38.5089 23.4824C38.4115 23.3143 38.3097 23.1506 38.2035 22.9824C38.1414 22.8842 38.0605 22.7992 37.9654 22.7323C37.8704 22.6654 37.7631 22.6178 37.6497 22.5923C37.5363 22.5669 37.419 22.564 37.3045 22.5838C37.19 22.6037 37.0805 22.6459 36.9823 22.7081C36.8841 22.7703 36.7991 22.8512 36.7322 22.9462C36.6652 23.0412 36.6177 23.1485 36.5922 23.2619C36.5667 23.3753 36.5638 23.4926 36.5837 23.6071C36.6036 23.7217 36.6458 23.8311 36.708 23.9293C36.8053 24.0798 36.8938 24.2302 36.9823 24.3718C38.3713 26.7676 39.0682 29.5017 38.9956 32.2701C38.9956 37.3718 35.0487 42.7878 31.5708 45.9869H12.8894V44.217H22.6239C22.8586 44.217 23.0837 44.1237 23.2497 43.9578C23.4156 43.7918 23.5089 43.5667 23.5089 43.332V39.7922C23.5089 39.5575 23.4156 39.3324 23.2497 39.1664C23.0837 39.0005 22.8586 38.9072 22.6239 38.9072H1.38496C1.15025 38.9072 0.925159 39.0005 0.759198 39.1664C0.593236 39.3324 0.5 39.5575 0.5 39.7922V43.332C0.5 43.5667 0.593236 43.7918 0.759198 43.9578C0.925159 44.1237 1.15025 44.217 1.38496 44.217H11.1195V45.9869H1.38496C1.15025 45.9869 0.925159 46.0801 0.759198 46.2461C0.593236 46.412 0.5 46.6371 0.5 46.8718V55.7214C0.5 55.9561 0.593236 56.1812 0.759198 56.3471C0.925159 56.5131 1.15025 56.6063 1.38496 56.6063H48.2876C48.5223 56.6063 48.7474 56.5131 48.9134 56.3471C49.0793 56.1812 49.1726 55.9561 49.1726 55.7214C49.1716 54.3453 48.8788 52.9851 48.3137 51.7304C47.7485 50.4758 46.9237 49.3552 45.8938 48.4426ZM2.26991 40.6771H21.7389V42.447H2.26991V40.6771ZM26.0487 29.2214L17.1549 20.3232L30.8717 6.60634L39.7655 15.5001L26.0487 29.2214ZM44.7478 28.2878C45.5354 28.2878 46.3053 28.5213 46.9602 28.9589C47.6151 29.3965 48.1255 30.0184 48.427 30.7461C48.7284 31.4738 48.8072 32.2745 48.6536 33.047C48.4999 33.8195 48.1206 34.529 47.5637 35.086C47.0068 35.6429 46.2972 36.0222 45.5247 36.1758C44.7522 36.3295 43.9515 36.2506 43.2238 35.9492C42.4962 35.6478 41.8742 35.1374 41.4366 34.4825C40.999 33.8276 40.7655 33.0577 40.7655 32.2701C40.7655 31.2139 41.1851 30.201 41.9319 29.4541C42.6787 28.7073 43.6916 28.2878 44.7478 28.2878ZM40.2522 35.8497C40.7253 36.4422 41.3109 36.9354 41.9753 37.3008C42.6396 37.6662 43.3697 37.8967 44.1235 37.9789C44.8772 38.0612 45.6398 37.9936 46.3674 37.78C47.0949 37.5665 47.7731 37.2112 48.3628 36.7347C47.7194 40.4909 46.3969 44.0985 44.4602 47.3807C42.9448 46.4661 41.208 45.9841 39.4381 45.9869H34.1018C36.7345 43.2479 39.2168 39.6373 40.2522 35.8497ZM2.26991 54.8364V47.7568H39.4381C41.3973 47.7566 43.2878 48.4786 44.7482 49.7847C46.2086 51.0908 47.1363 52.8893 47.354 54.8364H2.26991Z" fill="#1894EC"/>
</svg>
