<svg width="51" height="65" viewBox="0 0 51 65" fill="none" xmlns="http://www.w3.org/2000/svg">
<path d="M30.371 1.8564C28.9321 0.893758 27.2398 0.379883 25.5086 0.379883C23.7774 0.379883 22.0851 0.893758 20.6462 1.8564C14.4445 5.9793 9.35948 11.5727 5.84433 18.1379C2.32917 24.7031 0.493175 32.0362 0.500019 39.4832C0.6215 46.0333 3.30881 52.2741 7.984 56.8634C12.6592 61.4527 18.9487 64.0238 25.5 64.0238C32.0512 64.0238 38.3408 61.4527 43.016 56.8634C47.6912 52.2741 50.3785 46.0333 50.5 39.4832C50.5087 32.0377 48.6753 24.7057 45.1632 18.1406C41.6512 11.5755 36.5695 5.98127 30.371 1.8564ZM25.5043 61.0481C19.7863 61.0435 14.3039 58.7701 10.2606 54.7268C6.21742 50.6836 3.94395 45.2012 3.9394 39.4832C3.93274 32.6035 5.62824 25.8289 8.87479 19.7634C12.1213 13.6979 16.8181 8.52978 22.5464 4.71969C23.4215 4.13339 24.451 3.82036 25.5043 3.82036C26.5576 3.82036 27.5871 4.13339 28.4622 4.71969C30.2247 5.90406 31.8947 7.22054 33.4579 8.65777L17.5249 21.693C17.3658 21.8236 17.2402 21.9904 17.1587 22.1795C17.0771 22.3685 17.0421 22.5744 17.0564 22.7798C17.0707 22.9852 17.134 23.1841 17.2409 23.3601C17.3479 23.536 17.4954 23.6838 17.6711 23.791L30.0357 31.3577L20.7494 37.8237C20.6051 37.9242 20.4829 38.0532 20.3903 38.2027C20.2977 38.3521 20.2366 38.519 20.2108 38.6929C20.185 38.8669 20.1951 39.0442 20.2404 39.2142C20.2857 39.3841 20.3653 39.5429 20.4742 39.681L26.0288 46.7059C26.1338 46.8408 26.2644 46.9538 26.413 47.0382C26.5617 47.1227 26.7255 47.1771 26.8952 47.1982C27.0649 47.2194 27.237 47.2069 27.4019 47.1615C27.5667 47.1162 27.721 47.0388 27.856 46.9337C27.9909 46.8287 28.1038 46.6982 28.1883 46.5495C28.2728 46.4009 28.3272 46.237 28.3483 46.0674C28.3695 45.8977 28.357 45.7255 28.3116 45.5607C28.2662 45.3958 28.1888 45.2415 28.0838 45.1066L23.3547 39.1565L33.1225 32.3465C33.2981 32.2236 33.4403 32.0589 33.5362 31.8672C33.6322 31.6755 33.6788 31.463 33.672 31.2488C33.6652 31.0345 33.6051 30.8254 33.4971 30.6402C33.3892 30.4551 33.2368 30.2998 33.0537 30.1883L20.5602 22.5357L35.3237 10.4978C42.853 18.2686 47.0651 28.663 47.0692 39.4832C47.0646 45.2012 44.7912 50.6836 40.7479 54.7268C36.7047 58.7701 31.2223 61.0435 25.5043 61.0481Z" fill="#1894EC"/>
</svg>
