<svg width="51" height="51" viewBox="0 0 51 51" fill="none" xmlns="http://www.w3.org/2000/svg">
<path d="M21.0057 49.2841H8.32775C7.20514 49.2841 6.10388 48.9773 5.14291 48.397C4.18194 47.8167 3.39778 46.9849 2.87515 45.9913C2.35252 44.9978 2.11127 43.8804 2.17747 42.7597C2.24367 41.6391 2.6148 40.5578 3.25077 39.6327L10.9384 28.4508H18.395L25.0217 38.0895L26.395 37.1453L19.6667 27.3586V24.5618L21.5729 22.0201C21.9572 21.5057 22.1654 20.881 22.1667 20.2389C22.1666 19.7329 22.0372 19.2353 21.7908 18.7934C21.5444 18.3515 21.1891 17.9799 20.7587 17.7139C20.3283 17.4479 19.837 17.2963 19.3315 17.2735C18.826 17.2507 18.3231 17.3576 17.8706 17.5838L14.6667 19.1858L11.4628 17.5839C11.0103 17.3577 10.5074 17.2509 10.0019 17.2736C9.4964 17.2964 9.00514 17.448 8.57472 17.714C8.14429 17.98 7.78901 18.3516 7.54258 18.7935C7.29615 19.2354 7.16677 19.733 7.16671 20.239C7.168 20.8811 7.37621 21.5058 7.76045 22.0202L9.6667 24.5619V27.3587L1.87744 38.6886C1.06936 39.8639 0.597781 41.2376 0.513636 42.6615C0.42949 44.0853 0.73598 45.505 1.4 46.7673C2.06401 48.0296 3.06031 49.0865 4.28127 49.8238C5.50223 50.5611 6.90144 50.9508 8.32775 50.9507H21.0057C21.127 50.9507 21.2501 50.9479 21.3716 50.9423L21.2951 49.2774C21.199 49.2819 21.1016 49.2841 21.0057 49.2841ZM11.3334 26.7841V25.1174H18V26.7841H11.3334ZM8.83337 20.239C8.83341 20.0171 8.89017 19.7989 8.99825 19.6051C9.10633 19.4113 9.26214 19.2483 9.45091 19.1316C9.63967 19.015 9.85512 18.9485 10.0768 18.9385C10.2985 18.9285 10.519 18.9753 10.7175 19.0745L14.294 20.8627C14.4097 20.9206 14.5373 20.9507 14.6667 20.9507C14.7961 20.9507 14.9237 20.9206 15.0394 20.8627L18.6159 19.0745C18.8144 18.9753 19.0349 18.9285 19.2566 18.9385C19.4783 18.9485 19.6937 19.015 19.8825 19.1316C20.0713 19.2483 20.2271 19.4113 20.3351 19.6051C20.4432 19.7989 20.5 20.0171 20.5 20.239C20.4994 20.5206 20.4081 20.7946 20.2396 21.0202L18.4167 23.4508H10.9167L9.09379 21.0202C8.92528 20.7946 8.83397 20.5206 8.83337 20.239Z" fill="#1894EC"/>
<path d="M17.1667 38.4515V38.3299C17.1661 37.8236 17.0042 37.3307 16.7046 36.9226C16.4049 36.5145 15.983 36.2125 15.5001 36.0604V35.1182H13.8334V36.0604C13.3811 36.2022 12.9815 36.476 12.6859 36.8466C12.3903 37.2171 12.2122 37.6676 12.1744 38.1401C12.1366 38.6126 12.2408 39.0856 12.4737 39.4985C12.7066 39.9114 13.0576 40.2452 13.4815 40.4572L15.1065 41.2697C15.25 41.3414 15.365 41.4594 15.433 41.6047C15.5009 41.7499 15.5179 41.9138 15.481 42.0699C15.4442 42.2259 15.3558 42.365 15.23 42.4645C15.1043 42.564 14.9487 42.6182 14.7883 42.6182H14.5452C14.3565 42.618 14.1755 42.5429 14.0421 42.4095C13.9087 42.276 13.8336 42.0951 13.8334 41.9064V41.7848H12.1667V41.9064C12.1674 42.4127 12.3293 42.9056 12.6289 43.3137C12.9286 43.7218 13.3505 44.0238 13.8334 44.176V45.1182H15.5001V44.176C15.9524 44.0341 16.3519 43.7603 16.6475 43.3897C16.9431 43.0192 17.1213 42.5687 17.1591 42.0962C17.1969 41.6237 17.0927 41.1507 16.8598 40.7378C16.6269 40.325 16.2759 39.9911 15.852 39.7791L14.227 38.9666C14.0835 38.8949 13.9685 38.7769 13.9005 38.6317C13.8326 38.4864 13.8156 38.3225 13.8524 38.1664C13.8893 38.0104 13.9777 37.8713 14.1035 37.7718C14.2292 37.6723 14.3848 37.6182 14.5452 37.6182H14.7883C14.977 37.6184 15.158 37.6934 15.2914 37.8268C15.4248 37.9603 15.4999 38.1412 15.5001 38.3299V38.4515H17.1667Z" fill="#1894EC"/>
<path d="M10.5 39.2842H8.83337V40.9508H10.5V39.2842Z" fill="#1894EC"/>
<path d="M20.5 39.2842H18.8334V40.9508H20.5V39.2842Z" fill="#1894EC"/>
<path d="M38.0001 41.7842C37.9993 41.1214 37.7357 40.4859 37.267 40.0172C36.7983 39.5486 36.1629 39.2849 35.5001 39.2842H25.5001C25.0921 39.284 24.6903 39.3837 24.3298 39.5746C23.9692 39.7655 23.6609 40.0417 23.4318 40.3792C23.2026 40.7168 23.0596 41.1052 23.0152 41.5108C22.9709 41.9163 23.0264 42.3265 23.1772 42.7056C22.6481 42.85 22.1811 43.1642 21.8483 43.6001C21.5154 44.0359 21.3351 44.5691 21.3351 45.1175C21.3351 45.6659 21.5154 46.1991 21.8483 46.6349C22.1811 47.0708 22.6481 47.3851 23.1772 47.5294C23.0264 47.9085 22.9709 48.3187 23.0152 48.7242C23.0596 49.1298 23.2026 49.5183 23.4318 49.8558C23.6609 50.1933 23.9692 50.4696 24.3298 50.6605C24.6903 50.8513 25.0921 50.951 25.5001 50.9508H35.5001C36.1055 50.9504 36.6902 50.7304 37.1456 50.3315C37.601 49.9326 37.8962 49.382 37.9764 48.7819C38.0566 48.1818 37.9162 47.5731 37.5815 47.0686C37.2468 46.5641 36.7404 46.1983 36.1563 46.039C36.3921 45.4473 36.3921 44.7877 36.1563 44.196C36.6854 44.0514 37.1523 43.7371 37.4854 43.3014C37.8185 42.8657 37.9993 42.3326 38.0001 41.7842ZM23.8334 44.2842H33.8334C34.0544 44.2842 34.2664 44.372 34.4227 44.5283C34.5789 44.6845 34.6667 44.8965 34.6667 45.1175C34.6667 45.3385 34.5789 45.5505 34.4227 45.7068C34.2664 45.863 34.0544 45.9508 33.8334 45.9508H23.8334C23.6124 45.9508 23.4004 45.863 23.2442 45.7068C23.0879 45.5505 23.0001 45.3385 23.0001 45.1175C23.0001 44.8965 23.0879 44.6845 23.2442 44.5283C23.4004 44.372 23.6124 44.2842 23.8334 44.2842ZM35.5001 49.2842H25.5001C25.2791 49.2842 25.0671 49.1964 24.9108 49.0401C24.7545 48.8838 24.6667 48.6719 24.6667 48.4508C24.6667 48.2298 24.7545 48.0179 24.9108 47.8616C25.0671 47.7053 25.2791 47.6175 25.5001 47.6175H35.5001C35.7211 47.6175 35.933 47.7053 36.0893 47.8616C36.2456 48.0179 36.3334 48.2298 36.3334 48.4508C36.3334 48.6719 36.2456 48.8838 36.0893 49.0401C35.933 49.1964 35.7211 49.2842 35.5001 49.2842ZM35.5001 42.6175H25.5001C25.2791 42.6175 25.0671 42.5297 24.9108 42.3734C24.7545 42.2172 24.6667 42.0052 24.6667 41.7842C24.6667 41.5632 24.7545 41.3512 24.9108 41.1949C25.0671 41.0386 25.2791 40.9508 25.5001 40.9508H35.5001C35.7211 40.9508 35.933 41.0386 36.0893 41.1949C36.2456 41.3512 36.3334 41.5632 36.3334 41.7842C36.3334 42.0052 36.2456 42.2172 36.0893 42.3734C35.933 42.5297 35.7211 42.6175 35.5001 42.6175Z" fill="#1894EC"/>
<path d="M35.3193 9.26438L42.1667 10.7859V18.4508H43.8334V10.1175C43.8334 9.92789 43.7687 9.74394 43.6501 9.59602C43.5314 9.44811 43.3659 9.34509 43.1808 9.30397L42.1667 9.07865V5.95084H40.5001V8.70824L38.8334 8.33793V4.28418H37.1667V7.96751L35.6808 7.6373L35.3193 9.26438Z" fill="#1894EC"/>
<path d="M20.5001 7.61816H17.1667V9.28483H20.5001V7.61816Z" fill="#1894EC"/>
<path d="M25.5001 7.61816H22.1667V9.28483H25.5001V7.61816Z" fill="#1894EC"/>
<path d="M30.5001 7.61816H27.1667V9.28483H30.5001V7.61816Z" fill="#1894EC"/>
<path d="M20.5001 10.9512H17.1667V12.6178H20.5001V10.9512Z" fill="#1894EC"/>
<path d="M25.5001 10.9512H22.1667V12.6178H25.5001V10.9512Z" fill="#1894EC"/>
<path d="M30.5001 10.9512H27.1667V12.6178H30.5001V10.9512Z" fill="#1894EC"/>
<path d="M25.5001 14.2842H22.1667V15.9508H25.5001V14.2842Z" fill="#1894EC"/>
<path d="M20.5001 14.2842H17.1667V15.9508H20.5001V14.2842Z" fill="#1894EC"/>
<path d="M30.5001 14.2842H27.1667V15.9508H30.5001V14.2842Z" fill="#1894EC"/>
<path d="M25.5 17.6182H23.8334V19.2848H25.5V17.6182Z" fill="#1894EC"/>
<path d="M30.5001 17.6182H27.1667V19.2848H30.5001V17.6182Z" fill="#1894EC"/>
<path d="M25.5 20.9512H23.8334V22.6178H25.5V20.9512Z" fill="#1894EC"/>
<path d="M30.5001 20.9512H27.1667V22.6178H30.5001V20.9512Z" fill="#1894EC"/>
<path d="M25.5 24.2842H23.8334V25.9508H25.5V24.2842Z" fill="#1894EC"/>
<path d="M30.5001 24.2842H27.1667V25.9508H30.5001V24.2842Z" fill="#1894EC"/>
<path d="M25.5 27.6182H23.8334V29.2848H25.5V27.6182Z" fill="#1894EC"/>
<path d="M30.5001 27.6182H27.1667V29.2848H30.5001V27.6182Z" fill="#1894EC"/>
<path d="M30.5001 30.9512H27.1667V32.6178H30.5001V30.9512Z" fill="#1894EC"/>
<path d="M44.6667 24.2842H41.3334V25.9508H44.6667V24.2842Z" fill="#1894EC"/>
<path d="M44.6667 27.6182H41.3334V29.2848H44.6667V27.6182Z" fill="#1894EC"/>
<path d="M44.6667 30.9512H41.3334V32.6178H44.6667V30.9512Z" fill="#1894EC"/>
<path d="M44.6667 34.2842H41.3334V35.9508H44.6667V34.2842Z" fill="#1894EC"/>
<path d="M44.6667 37.6182H41.3334V39.2848H44.6667V37.6182Z" fill="#1894EC"/>
<path d="M44.6667 40.9512H41.3334V42.6178H44.6667V40.9512Z" fill="#1894EC"/>
<path d="M44.6667 44.2842H41.3334V45.9508H44.6667V44.2842Z" fill="#1894EC"/>
<path d="M39.6667 24.2842H36.3334V25.9508H39.6667V24.2842Z" fill="#1894EC"/>
<path d="M39.6667 27.6182H36.3334V29.2848H39.6667V27.6182Z" fill="#1894EC"/>
<path d="M39.6667 30.9512H36.3334V32.6178H39.6667V30.9512Z" fill="#1894EC"/>
<path d="M39.6667 34.2842H36.3334V35.9508H39.6667V34.2842Z" fill="#1894EC"/>
<path d="M13.0001 5.95117H13.8334V16.7845H15.5001V5.95117H32.1667V37.6178H33.8334V5.95117H34.6667C34.8877 5.95117 35.0997 5.86337 35.256 5.70709C35.4123 5.55081 35.5001 5.33885 35.5001 5.11784V1.7845C35.5001 1.56349 35.4123 1.35153 35.256 1.19525C35.0997 1.03897 34.8877 0.951172 34.6667 0.951172H13.0001C12.7791 0.951172 12.5671 1.03897 12.4108 1.19525C12.2545 1.35153 12.1667 1.56349 12.1667 1.7845V5.11784C12.1667 5.33885 12.2545 5.55081 12.4108 5.70709C12.5671 5.86337 12.7791 5.95117 13.0001 5.95117ZM13.8334 2.61784H33.8334V4.2845H13.8334V2.61784Z" fill="#1894EC"/>
<path d="M48 49.2848V20.9515C48 20.7305 47.9122 20.5185 47.7559 20.3622C47.5996 20.206 47.3877 20.1182 47.1667 20.1182H35.5V21.7848H46.3333V49.2848H38.8333V50.9515H50.5V49.2848H48Z" fill="#1894EC"/>
<path d="M40.5 15.9512H38.8334V17.6178H40.5V15.9512Z" fill="#1894EC"/>
<path d="M37.1667 15.9512H35.5V17.6178H37.1667V15.9512Z" fill="#1894EC"/>
<path d="M40.5 12.6182H38.8334V14.2848H40.5V12.6182Z" fill="#1894EC"/>
<path d="M37.1667 12.6182H35.5V14.2848H37.1667V12.6182Z" fill="#1894EC"/>
</svg>
